<svg width="1240" height="11" viewBox="0 0 1240 11" fill="none" xmlns="http://www.w3.org/2000/svg">
<path d="M1238 9.35229C1238 9.35229 1169.69 2.35229 1104.37 2.35229C1039.08 2.35229 1040.09 9.35229 976.782 9.35229C913.485 9.35229 913.895 2.35229 851.158 2.35229C788.422 2.35229 786.636 9.35229 725.837 9.35229C665.074 9.35229 667.529 2.35229 608.034 2.35229C548.528 2.35229 547.166 9.35229 487.836 9.35229C428.52 9.35229 431.537 2.35229 370.742 2.35229C309.904 2.35229 306.855 9.35229 244.569 9.35229C182.299 9.35229 182.28 2.35229 121.63 2.35229C60.9956 2.35229 2 9.35229 2 9.35229" stroke="#8A2018" stroke-width="3" stroke-linecap="round"/>
</svg>
