<svg xmlns="http://www.w3.org/2000/svg" width="1240" height="23" viewBox="0 0 1240 23">
  <g fill="none" fill-rule="evenodd" stroke-linecap="round" stroke-width="3" transform="translate(2 2.352)">
    <path stroke="#541716" d="M1236,7 C1236,7 1167.69,0 1102.37,0 C1037.08,0 1038.09,7 974.782,7 C911.485,7 911.895,0 849.158,0 C786.422,0 784.636,7 723.837,7 C663.074,7 665.529,0 606.034,0 C546.528,0 545.166,7 485.836,7 C426.52,7 429.537,0 368.742,0 C307.904,0 304.855,7 242.569,7 C180.299,7 180.28,0 119.63,0 C58.9956,0 0,7 0,7"/>
    <path stroke="#EB3F3D" d="M1236,19 C1236,19 1167.69,12 1102.37,12 C1037.08,12 1038.09,19 974.782,19 C911.485,19 911.895,12 849.158,12 C786.422,12 784.636,19 723.837,19 C663.074,19 665.529,12 606.034,12 C546.528,12 545.166,19 485.836,19 C426.52,19 429.537,12 368.742,12 C307.904,12 304.855,19 242.569,19 C180.299,19 180.28,12 119.63,12 C58.9956,12 0,19 0,19" transform="matrix(1 0 0 -1 0 31)"/>
  </g>
</svg>
