<svg xmlns="http://www.w3.org/2000/svg" width="934" height="128" viewBox="0 0 934 128">
  <g fill="none" fill-rule="evenodd" stroke="#A40202" transform="translate(.703 .542)">
    <path d="M3.97903932e-13,90.8216031 C24.8825595,94.1407548 57.9242261,90.9480465 99.125,81.2434781 C134.634729,72.8793975 143.528196,24.3173165 205.253906,23.1133945 C235.056134,22.5321203 336.015583,80.1221958 370.214844,81.2434781 C408.985466,82.5146405 446.736432,11.0716175 510.550781,6.24347812 C540.625012,3.96808735 641.123285,62.9675647 691.789063,65.1106656 C717.845553,66.2128235 780.385378,6.91561198 821.359375,0.454415619 C846.276747,-3.47480895 883.184299,18.0772744 932.082031,65.1106656 L3.97903932e-13,90.8216031 Z"/>
    <path d="M0,83.1301969 C30.8825595,114.910286 66.9242261,125.948046 108.125,116.243478 C143.634729,107.879398 152.528196,59.3173165 214.253906,58.1133945 C244.056134,57.5321203 345.015583,115.122196 379.214844,116.243478 C417.985466,117.51464 455.736432,46.0716175 519.550781,41.2434781 C549.625012,38.9680874 650.123285,97.9675647 700.789062,100.110666 C726.845553,101.212824 789.385378,41.915612 830.359375,35.4544156 C855.276747,31.525191 889.184299,41.3572223 932.082031,64.9505094"/>
    <path d="M2.84217094e-13,90.8216031 C65.2109375,58.3611251 141.533854,67.9701856 228.96875,119.648785 C246.375,71.9754264 277.910156,43.6301608 323.574219,34.6129877 C369.238281,25.5958147 423.828125,56.3163948 487.34375,126.774728 C546.195628,92.6262676 584.203441,67.8085592 601.367188,52.3216031 C612.968614,41.8535636 651.624974,17.542821 704.433594,28.7825406 C721.31304,32.3751404 749.217988,48.4912556 788.148438,77.1308861 C840.678522,106.856695 875.100397,121.029328 891.414063,119.648785 C907.727728,118.268241 921.283718,100.035483 932.082031,64.9505094"/>
  </g>
</svg>
