<svg xmlns="http://www.w3.org/2000/svg" width="296" height="90" viewBox="0 0 296 90">
  <g fill="none" fill-rule="evenodd" transform="translate(-4 -15)">
    <path fill="#000" d="M136.27 27.12L136.27 31.6C136.27 31.89 136.08 32 135.92 32L108.71 32C108.55 32 108.39 31.89 108.39 31.68L108.39 29.26C108.39 29.14 108.48 28.98 108.8 28.98L112.27 28.98 112.27 23.02 108.74 23.02C108.55 23.02 108.42 22.9 108.42 22.74L108.42 20.27C108.42 20.11 108.55 20 108.79 20L123.92 20C124.16 20 124.35 20.11 124.35 20.43L124.35 22.7C124.35 22.9 124.24 23.02 124.03 23.02L120.42 23.02 120.42 28.98 129.68 28.98 129.68 27.15C129.68 26.99 129.76 26.67 130.03 26.67L135.87 26.67C136.08 26.67 136.27 26.8 136.27 27.12zM147.38 29.55L150.1 29.55C150.23 29.55 150.31 29.65 150.31 29.73L150.31 31.84C150.31 31.97 150.23 32 150.1 32L137.82 32C137.72 32 137.66 31.86 137.66 31.78L137.66 29.71C137.66 29.62 137.77 29.55 137.85 29.55L140.68 29.55 140.68 25.94 137.94 25.94C137.77 25.94 137.66 25.89 137.66 25.78L137.66 23.78C137.66 23.58 137.75 23.47 137.91 23.47L147.18 23.47C147.3 23.47 147.38 23.55 147.38 23.63L147.38 29.55zM141.51 20L146.54 20C146.71 20 146.84 20.06 146.84 20.24L146.84 22.45C146.84 22.54 146.78 22.66 146.62 22.66L141.5 22.66C141.37 22.66 141.29 22.64 141.29 22.53L141.29 20.14C141.29 20.08 141.37 20 141.51 20zM162.11 23.58L164.35 23.58C164.49 23.58 164.59 23.63 164.59 23.76L164.59 25.86C164.59 25.94 164.51 26 164.4 26L161.44 26 161.44 29.54 164.4 29.54C164.52 29.54 164.6 29.6 164.6 29.76L164.6 31.84C164.6 31.92 164.56 32 164.4 32L151.84 32C151.74 32 151.68 31.9 151.68 31.74L151.68 29.7C151.68 29.6 151.77 29.54 151.9 29.54L154.7 29.54 154.7 26 151.9 26C151.79 26 151.69 25.98 151.69 25.84L151.69 23.76C151.69 23.65 151.84 23.58 151.95 23.58L154.7 23.58 154.7 22.77C154.7 21.49 155.9 20 157.74 20L163.6 20C164.24 20 165.85 20.14 165.85 21.54 165.85 22.82 163.95 22.94 163.44 22.94 162.64 22.94 161.96 22.82 161.45 22.38 161.36 22.27 161.12 22.16 160.97 22.16 160.73 22.16 160.49 22.37 160.49 22.7 160.49 23.06 160.62 23.58 162.11 23.58zM179.31 32.03L177.55 32.03C174.43 32.03 167.23 31.78 167.23 27.71 167.23 23.63 174.88 23.42 175.71 23.42L178.75 23.42C182.22 23.42 187.22 24.88 187.22 27.5L187.22 27.79C187.22 27.87 187.12 27.92 186.86 27.92L174.67 27.92C174.8 29.18 176.48 29.6 178.02 29.6L179.6 29.6C181.01 29.6 182.19 29.44 182.96 28.66 183.02 28.61 183.09 28.58 183.14 28.58L186.9 28.58C187.04 28.58 187.07 28.72 187.06 28.77 186.66 29.62 185.31 32.03 179.31 32.03zM174.88 26.58L179.98 26.58C179.65 26.1 179.02 25.57 177.58 25.57 175.71 25.57 175.22 26.06 174.88 26.58zM206.92 20.91L207.13 20.19C207.16 20.06 207.3 20.02 207.43 20.02L211.81 20.02C212.12 20.02 212.23 20.24 212.23 20.35L212.23 23.28C212.23 23.39 212.15 23.47 212.02 23.47L206.73 23.47C206.66 23.47 206.58 23.47 206.55 23.39 206.02 22.48 204.28 22.27 203.77 22.27L198.85 22.27C198.45 22.27 197.27 22.32 197.27 23.07 197.27 23.87 199.19 23.84 199.83 23.84L202.89 23.87C204.47 23.87 208.15 24.18 209.11 24.38 210.04 24.61 213.4 25.26 213.4 27.82 213.4 31.49 206.81 32 204.52 32L200.18 32C198.37 32 196.45 31.44 195.32 30.91L195.22 31.84C195.19 31.97 195.09 32 194.98 32L189.54 32C189.43 32 189.38 31.94 189.38 31.81L189.38 28.54C189.38 28.46 189.43 28.35 189.56 28.35L195.27 28.35C195.4 28.35 195.48 28.42 195.51 28.53 195.83 29.58 198.42 29.65 198.6 29.65L204.37 29.65C204.55 29.65 205.51 29.55 205.51 29.02 205.51 28.42 204.61 28.24 204.39 28.24L199.75 28.21C198.52 28.21 194.82 27.82 193.35 27.41 190.73 26.66 189.46 25.18 189.46 24.05 189.46 22.45 191.21 21.5 192.09 21.04 193.19 20.42 195.33 20 197.93 20L202.33 20C204.55 20 206.1 20.54 206.92 20.91zM217.99 29.62L217.99 25.92 215.26 25.92C215.08 25.92 214.97 25.86 214.97 25.76L214.97 23.87C214.97 23.68 215.07 23.58 215.23 23.58L216.2 23.58C218.91 23.58 220.14 22.78 220.73 20.4 220.76 20.24 220.87 20.08 220.97 20.08L224.3 20.08C224.46 20.08 224.59 20.16 224.59 20.32L224.59 23.58 227.56 23.58C227.77 23.58 228.04 23.62 228.04 23.89L228.04 25.65C228.04 25.76 227.88 25.92 227.69 25.92L224.59 25.92 224.59 28.19C224.59 28.66 224.99 29.54 225.9 29.54 226.89 29.54 227.4 28.88 227.69 27.79 227.72 27.63 227.77 27.42 227.96 27.42L229.79 27.42C229.95 27.42 229.99 27.5 229.99 27.66 229.99 28.45 229.27 32 225.26 32L221.08 32C220.49 32 217.99 31.57 217.99 29.62zM240.88 34.58L238.37 34.58C237.42 34.58 232.02 34.46 232.02 32.34 232.02 30.86 234.11 30.42 234.72 30.42 235.54 30.42 237.54 30.58 238.66 32.08 238.83 32.11 239.23 32.11 239.33 32.11 239.81 32.11 240 31.86 240 31.62 240 31.33 239.9 31.18 239.74 31.01L234.75 25.89 231.65 25.89C231.47 25.89 231.36 25.82 231.36 25.73L231.36 23.78C231.36 23.58 231.47 23.47 231.63 23.47L244.69 23.47C244.82 23.47 244.91 23.55 244.91 23.63L244.91 25.65C244.91 25.76 244.88 25.89 244.82 25.89L242.5 25.89 245.09 28.54 247.73 25.89 245.68 25.89C245.57 25.89 245.54 25.81 245.54 25.73L245.54 23.62C245.54 23.55 245.62 23.47 245.7 23.47L254.72 23.47C254.8 23.47 254.88 23.52 254.88 23.58L254.88 25.68C254.88 25.76 254.82 25.89 254.78 25.89L252.08 25.89 245.12 32.74C244.93 32.93 243.02 34.58 240.88 34.58zM265.97 29.54L268.64 29.54C268.84 29.54 268.9 29.65 268.9 29.81L268.9 31.7C268.9 31.82 268.82 32 268.5 32L256.69 32C256.53 32 256.31 31.89 256.31 31.65L256.31 29.94C256.31 29.78 256.36 29.54 256.64 29.54L259.27 29.54 259.27 22.46 256.56 22.46C256.39 22.46 256.26 22.4 256.26 22.3L256.26 20.3C256.26 20.1 256.39 20 256.53 20L265.73 20C265.88 20 265.97 20.08 265.97 20.16L265.97 29.54zM282.66 32.03L280.9 32.03C277.78 32.03 270.58 31.78 270.58 27.71 270.58 23.63 278.23 23.42 279.06 23.42L282.1 23.42C285.58 23.42 290.57 24.88 290.57 27.5L290.57 27.79C290.57 27.87 290.47 27.92 290.22 27.92L278.02 27.92C278.15 29.18 279.83 29.6 281.37 29.6L282.95 29.6C284.36 29.6 285.54 29.44 286.31 28.66 286.38 28.61 286.44 28.58 286.49 28.58L290.25 28.58C290.39 28.58 290.42 28.72 290.41 28.77 290.01 29.62 288.66 32.03 282.66 32.03zM278.23 26.58L283.34 26.58C283 26.1 282.38 25.57 280.94 25.57 279.06 25.57 278.57 26.06 278.23 26.58zM144.95 36L159.16 36C159.32 36 159.49 36.08 159.65 36.19L167.88 43.15 167.88 39.02 164.36 39.02C164.12 39.02 163.99 38.94 163.99 38.82L163.99 36.35C163.99 36.16 164.1 36 164.21 36L175.64 36C175.92 36 175.99 36.24 175.99 36.4L175.99 38.74C175.99 38.94 175.83 39.02 175.62 39.02L172.21 39.02 172.21 47.57C172.21 47.84 172.13 48 171.92 48L162.07 48C161.96 48 161.78 47.98 161.67 47.89L152.66 40.26 152.66 44.98 156.36 44.98C156.55 44.98 156.76 45.06 156.76 45.22L156.76 47.65C156.76 47.89 156.63 48 156.44 48L144.77 48C144.61 48 144.53 47.89 144.53 47.68L144.53 45.26C144.53 45.14 144.61 44.98 144.93 44.98L148.4 44.98 148.4 39.02 144.82 39.02C144.71 39.02 144.55 38.98 144.55 38.74L144.55 36.24C144.55 36.08 144.71 36 144.95 36zM187.22 48.03L184.84 48.03C179.42 48.03 175.75 46 175.75 43.7 175.75 40.54 180.92 39.42 185.29 39.42L187.11 39.42C189.99 39.42 196.06 40.5 196.06 43.78 196.06 47.68 189.03 48.03 187.22 48.03zM185.99 41.81C184.65 41.81 183.22 42.51 183.22 43.74 183.22 44.88 184.42 45.68 185.99 45.68 187.46 45.68 188.82 44.96 188.82 43.74 188.82 42.48 187.18 41.81 185.99 41.81zM200.77 45.62L200.77 41.92 198.03 41.92C197.85 41.92 197.74 41.86 197.74 41.76L197.74 39.87C197.74 39.68 197.84 39.58 198 39.58L198.97 39.58C201.68 39.58 202.91 38.78 203.5 36.4 203.53 36.24 203.65 36.08 203.74 36.08L207.07 36.08C207.23 36.08 207.36 36.16 207.36 36.32L207.36 39.58 210.33 39.58C210.54 39.58 210.81 39.62 210.81 39.89L210.81 41.65C210.81 41.76 210.65 41.92 210.46 41.92L207.36 41.92 207.36 44.19C207.36 44.66 207.76 45.54 208.67 45.54 209.66 45.54 210.17 44.88 210.46 43.79 210.49 43.63 210.54 43.42 210.73 43.42L212.56 43.42C212.72 43.42 212.77 43.5 212.77 43.66 212.77 44.45 212.05 48 208.03 48L203.85 48C203.26 48 200.77 47.57 200.77 45.62zM226.53 48.03L224.77 48.03C221.65 48.03 214.45 47.78 214.45 43.71 214.45 39.63 222.1 39.42 222.93 39.42L225.97 39.42C229.44 39.42 234.43 40.88 234.43 43.5L234.43 43.79C234.43 43.87 234.34 43.92 234.08 43.92L221.89 43.92C222.02 45.18 223.7 45.6 225.23 45.6L226.82 45.6C228.23 45.6 229.41 45.44 230.18 44.66 230.24 44.61 230.31 44.58 230.35 44.58L234.11 44.58C234.26 44.58 234.29 44.72 234.27 44.77 233.87 45.62 232.53 48.03 226.53 48.03zM222.1 42.58L227.2 42.58C226.87 42.1 226.24 41.57 224.8 41.57 222.93 41.57 222.43 42.06 222.1 42.58zM241.29 48L236.55 48C236.46 48 236.36 47.86 236.36 47.78L236.36 45.6C236.36 45.5 236.47 45.44 236.55 45.44L242.04 45.44C242.1 45.44 242.22 45.52 242.26 45.62 242.47 46.11 243.77 46.38 244.92 46.38L246.57 46.38C247.21 46.38 247.94 46.26 247.94 45.78 247.94 45.26 247.21 45.2 247 45.2 246.81 45.2 242.73 44.96 242.36 44.94 239.83 44.8 236.44 44.05 236.44 41.9 236.44 40.26 239.48 39.42 243.43 39.42L245.45 39.42C246.58 39.42 248.12 39.7 248.86 40.1 248.89 39.95 248.95 39.78 249 39.62 249.02 39.55 249.06 39.46 249.18 39.46L253.46 39.46C253.56 39.46 253.7 39.58 253.7 39.73L253.7 41.76C253.7 41.84 253.58 41.94 253.48 41.94L248.63 41.94C248.57 41.94 248.52 41.9 248.44 41.82 248.26 41.6 247.88 41.23 246.41 41.23L244.33 41.23C243.29 41.23 242.87 41.36 242.87 41.84 242.87 42.32 243.46 42.34 244.22 42.38 244.66 42.4 248.86 42.51 249.59 42.54 249.88 42.54 254.41 42.67 254.41 45.23 254.41 47.41 250.33 48.03 247.94 48.03L245.35 48.03C244.3 48.03 242.62 47.76 242.22 47.52 241.96 47.68 241.78 47.78 241.62 47.89 241.5 47.97 241.4 48 241.29 48zM158.2 72.55L157.99 72.7 158.17 73.04 157.52 73.42 157.44 73.42C157.38 73.42 157.31 73.4 157.23 73.36L157.03 73.52 156.74 73.5 156.42 73.72 156.13 73.57 155.75 73.67 155.39 73.86C155.39 73.85 155.37 73.84 155.32 73.84 155.24 73.84 155.19 73.86 155.16 73.92L155.01 74.33C155.07 74.4 155.11 74.46 155.11 74.52 155.11 74.61 155.08 74.69 155.03 74.75L154.99 74.88 155.07 74.9C155.07 74.99 155.05 75.08 155.02 75.16 154.99 75.24 154.95 75.31 154.92 75.38 154.95 75.45 154.98 75.52 155 75.58 155.02 75.63 155.04 75.68 155.07 75.72L154.9 75.83 154.92 76.4 154.76 77.22 154.75 77.39C154.76 77.46 154.77 77.51 154.77 77.54 154.78 77.58 154.78 77.61 154.78 77.64L154.78 77.72 154.86 77.87 154.88 78.15C154.87 78.18 154.85 78.21 154.84 78.25 154.83 78.29 154.81 78.34 154.78 78.4 154.77 78.58 154.68 78.71 154.52 78.81 154.35 78.9 154.12 78.96 153.83 78.97L153.8 78.61 153.66 78.42 153.57 78.13 153.57 77.58 153.43 77.24 153.47 77.22 153.43 76.97 153.43 76.58 153.47 75.97 153.45 75.42 153.57 75.09 153.57 74.73C153.57 74.67 153.58 74.59 153.61 74.49 153.63 74.4 153.64 74.32 153.64 74.26 153.64 74.17 153.61 74.07 153.55 73.97L153.51 73.92 153.45 73.95 153.23 73.9C153.12 73.92 153.03 73.94 152.93 73.95 152.84 73.97 152.74 73.97 152.64 73.97L152.47 73.97C152.41 73.97 152.38 73.97 152.35 73.95L152.1 74.16 151.59 74.09C151.49 74.07 151.4 74.06 151.33 74.06 151.25 74.05 151.19 74.05 151.15 74.05 150.98 74.05 150.77 74.09 150.53 74.16L150.45 74.16 150.03 74.31 149.77 74.14 149.33 74.22 149.29 74.18 149.22 74.22 148.87 74.2 148.84 74.33 148.34 74.16 147.91 74.2 147.91 74.81 147.87 75.17 147.94 75.47 147.81 75.72 147.92 75.93 147.81 76.61 147.89 76.82 147.85 77.2 148.02 77.51 147.92 77.66 147.96 77.85C147.94 78.08 147.79 78.19 147.53 78.19 147.3 78.19 147.11 78.09 146.96 77.9 146.8 77.7 146.73 77.41 146.73 77.03L146.48 76.75 146.39 76.56C146.39 76.49 146.4 76.43 146.42 76.38 146.45 76.32 146.47 76.26 146.5 76.21L146.54 75.95 146.48 75.8 146.39 74.56 146.39 74.35 146.37 74.3 145.91 73.97 145.97 73.23 146.46 72.93C146.49 72.84 146.51 72.74 146.52 72.64 146.53 72.54 146.54 72.43 146.54 72.3 146.54 72.17 146.53 72.07 146.52 72 146.51 71.92 146.49 71.83 146.46 71.73L146.56 71.79 146.54 71.56 146.65 71.24 146.54 70.69 146.54 70.32 146.67 69.77 147.43 69.43 147.75 69.66 148.11 69.77 148.17 70.11 148.32 70.32 148.17 70.78C148.2 70.87 148.21 70.95 148.22 71.04 148.23 71.12 148.23 71.21 148.23 71.31 148.23 71.46 148.22 71.61 148.21 71.76 148.2 71.9 148.16 72.05 148.11 72.19L148.27 72.43 148.1 72.64 148.1 72.83 148.25 72.89 148.67 72.83 148.95 72.87 149.43 72.81 149.46 72.87C149.49 72.86 149.54 72.85 149.61 72.85L149.75 72.85C149.79 72.85 149.86 72.86 149.96 72.89L150.24 72.89C150.25 72.89 150.33 72.89 150.47 72.88 150.61 72.87 150.77 72.87 150.95 72.87L151.21 72.7 151.5 72.85 151.74 72.87 151.82 72.89C151.95 72.86 152.02 72.85 152.05 72.85L152.14 72.85 153.32 72.68 153.57 72.7 153.66 72.64 153.57 72.38 153.66 72.15 153.55 71.56 153.66 71.35 153.36 70.59 153.32 70.48 153.24 70.4C153.26 70.39 153.27 70.37 153.27 70.35 153.28 70.33 153.29 70.3 153.32 70.25 153.32 70.24 153.32 70.23 153.33 70.23 153.34 70.23 153.34 70.22 153.34 70.21L153.36 70.19 153.36 70.13C153.36 70.06 153.45 69.98 153.62 69.89L153.8 69.45 154.38 69.53 154.57 69.64 155.09 69.55 155.09 69.77 155.3 69.72 155.3 70.46 155.2 70.59 155.33 70.91 155.33 71.1 155.41 71.37 155.3 71.65 155.33 71.86 155.24 72.53 155.24 72.64 155.6 72.62 156.28 72.49 156.63 72.51 156.84 72.49 157.22 72.49C157.25 72.46 157.3 72.45 157.35 72.44 157.4 72.44 157.45 72.43 157.5 72.43 157.54 72.43 157.58 72.44 157.61 72.44 157.65 72.45 157.7 72.46 157.75 72.49L158.2 72.55zM165.69 73.55L165.57 73.9C165.57 74.23 165.55 74.48 165.52 74.68L165.4 74.86 165.4 75.07 165.31 75.21 165.25 75.47 165.04 75.68 164.91 76.16 164.76 76.21 164.68 76.42 164.45 76.56 164.3 76.88 164.07 76.99 164.05 77.22 163.69 77.35C163.53 77.58 163.32 77.73 163.08 77.79L163.01 77.81C162.83 78.08 162.6 78.21 162.3 78.21 162.18 78.29 162.03 78.32 161.87 78.32L161.68 78.46 161.49 78.51 161.24 78.7 160.99 78.68 160.73 78.76 160.4 78.63 159.59 78.57 159.3 78.13 158.88 77.7 158.98 77.39 158.69 76.75 158.83 76.5 158.73 76.04 158.83 75.76C158.8 75.58 158.79 75.45 158.79 75.38 158.79 75.14 158.85 74.96 158.98 74.85 158.99 74.72 159.07 74.51 159.23 74.22L159.32 74.22 159.28 74.09 159.34 73.82 159.34 73.54C159.44 73.42 159.5 73.35 159.51 73.31L159.45 73.04 159.45 72.97C159.54 72.79 159.59 72.6 159.59 72.41L159.99 71.86 160.03 71.83C160.07 71.8 160.09 71.77 160.12 71.75L160.1 71.67 160.18 71.67 160.46 71.35 160.48 70.91 160.96 70.74C161.13 70.63 161.25 70.44 161.3 70.17L161.54 70.17C161.68 70.1 161.81 70.06 161.92 70.06 162.04 70.06 162.15 70.08 162.25 70.13L162.46 70.15 162.95 69.96 163.22 70.21 163.43 70.34 163.58 70.34 163.86 70.5 164.01 70.5C164.18 70.65 164.37 70.86 164.58 71.12L164.62 71.22 164.76 71.29 165.15 71.81 165.52 72.7 165.52 72.89 165.69 73.55zM164.43 74.01L164.41 73.92C164.32 73.83 164.27 73.73 164.26 73.63L164.32 73.54 164.15 73.17 164.19 72.81 164.11 72.72C163.94 72.59 163.86 72.49 163.84 72.41 163.73 72.36 163.67 72.24 163.67 72.03L163.56 72.02 163.33 71.64 163.16 71.5 162.76 71.35 162.61 71.31C162.53 71.31 162.48 71.29 162.46 71.24L162.08 71.65 161.83 72.19 161.43 72.4 161.37 72.6 161.18 72.7 161.11 73.19 160.88 73.31C160.83 73.48 160.8 73.65 160.8 73.8L160.5 74.09 160.59 74.14C160.59 74.3 160.54 74.43 160.42 74.54 160.39 74.66 160.33 74.78 160.27 74.92L160.27 75.07 160.21 75.15 160.23 75.38 160.02 75.89 160.06 75.99 160.06 76.52 159.99 76.78 160.01 77.05 160.18 77.3 160.44 77.39 160.54 77.43 160.69 77.35 161.18 77.39 161.26 77.2 161.34 77.2C161.41 77.2 161.46 77.22 161.47 77.26L161.64 77.2 161.79 77.26 162.04 77.09 162.08 77.03 162.25 76.99C162.34 76.85 162.54 76.71 162.87 76.58L162.91 76.48 163.29 76.21 163.5 75.91 163.81 75.76 163.82 75.66 163.92 75.45 163.92 75.21 164.15 75.02 164.22 74.88 164.32 74.77C164.27 74.62 164.24 74.51 164.24 74.45 164.24 74.33 164.28 74.21 164.36 74.09L164.43 74.01zM170.38 76.14L170.41 76.35 170.28 76.63 170.3 76.73 170.36 76.75 170.39 77.01 170.77 77.07 171.15 76.94 171.5 76.92C171.57 76.97 171.63 77 171.66 77 171.69 77.01 171.73 77.01 171.78 76.99L172.09 76.84 172.56 76.86 173.05 76.71 173.47 76.54 173.72 76.56 173.95 76.37 174.16 76.33C174.23 76.33 174.32 76.32 174.42 76.3 174.52 76.28 174.63 76.26 174.73 76.23 174.83 76.21 174.92 76.17 175.01 76.13 175.1 76.08 175.17 76.03 175.22 75.97L175.37 75.78 175.75 75.66 175.87 75.45 175.96 75.36 175.9 75.32 175.62 75.28 175.56 75.19 175.47 75.19 175.07 75.02 174.75 75.06 174.59 74.92 174.23 74.96C174.16 74.88 174.08 74.84 174 74.83 173.9 74.89 173.81 74.92 173.72 74.92 173.66 74.91 173.56 74.87 173.43 74.81 173.33 74.81 173.26 74.8 173.22 74.8 173.17 74.79 173.09 74.78 172.98 74.77L172.77 74.75C172.67 74.73 172.58 74.73 172.51 74.75 172.44 74.78 172.37 74.79 172.29 74.79 172.26 74.79 172.21 74.78 172.15 74.76 172.1 74.74 172.04 74.74 171.97 74.75L171.59 74.79 171.33 74.6 171.31 74.71 170.74 74.69 170.55 74.62C170.34 74.62 170.24 74.71 170.24 74.9L170.24 75.25 170.34 75.3 170.24 75.57 170.28 75.68 170.24 75.93 170.38 76.14zM177.54 75.7L177.23 75.97 177.16 76.19 176.95 76.23 176.72 76.58 176.32 76.65 175.98 76.9 175.85 76.96 175.58 77.24 175.14 77.2 174.95 77.35 174.71 77.32C174.59 77.39 174.5 77.46 174.42 77.53 174.35 77.59 174.23 77.63 174.08 77.66L173.95 77.58 173.45 77.94 173.26 77.85 173.13 77.92 172.83 77.85 172.71 77.92 172.39 77.96 172.14 77.91 171.84 78.17 171.48 78.13 171.48 78.15C171.47 78.16 171.4 78.19 171.27 78.23L171.17 78.11C171.01 78.24 170.82 78.3 170.6 78.3L170.51 78.3C170.47 78.29 170.44 78.29 170.41 78.29L170.13 78.59 169.81 78.68 169.52 78.53 169.31 78.36 169.16 78.19 169.05 78.1 169.05 77.96C169.05 77.9 168.99 77.72 168.87 77.43L168.89 77.11 168.86 76.73 168.95 76.44 168.89 76.06 169.03 75.8 168.95 75.57 169.01 75.19 168.87 74.77 168.86 74.71C168.48 74.51 168.26 74.33 168.21 74.16 168.24 74.02 168.29 73.93 168.38 73.89 168.47 73.84 168.58 73.78 168.72 73.69L168.91 73.57 168.8 73.25 168.93 73.19 168.86 72.93 168.91 72.68 168.82 72.41 168.86 72.28 168.84 72.05 168.63 71.64 168.67 71.46 168.57 71.39 168.61 71.16 168.51 71.03 168.4 70.78 168.38 70.76 168.19 70.91 168 70.8 167.81 70.91 167.75 70.84 167.45 71.03 167.28 70.76 166.94 70.97C166.35 70.64 166.06 70.34 166.06 70.08 166.06 69.85 166.18 69.72 166.42 69.68 166.55 69.49 166.72 69.39 166.94 69.39L166.99 69.39 167.18 69.47 167.22 69.47C167.48 69.47 167.7 69.47 167.89 69.48 168.08 69.48 168.23 69.5 168.34 69.53 168.44 69.5 168.54 69.48 168.62 69.48 168.7 69.47 168.78 69.47 168.86 69.47L168.95 69.53 169.06 69.49 169.56 69.68 170 69.79C170.03 69.78 170.12 69.77 170.26 69.77 170.34 69.77 170.4 69.78 170.45 69.78 170.5 69.79 170.55 69.8 170.58 69.81L170.77 69.77C170.94 69.79 171.1 69.84 171.25 69.93L171.38 70C171.59 70.05 171.74 70.08 171.86 70.08L172.28 70 172.35 70.1C172.5 70.1 172.64 70.16 172.75 70.29L173.26 70.29 173.47 70.5C173.55 70.52 173.62 70.54 173.68 70.55 173.75 70.56 173.8 70.57 173.85 70.57L174.19 70.69 174.35 70.82 174.75 70.82 174.84 71.07 175.2 71.29 175.33 71.83 175.05 72.34C174.91 72.48 174.78 72.58 174.67 72.66 174.56 72.74 174.43 72.79 174.29 72.83L174 73 173.87 72.97 173.53 73.25 173.32 73.25 172.83 73.46 172.48 73.5C172.36 73.55 172.26 73.59 172.19 73.62 172.12 73.65 172.05 73.68 171.98 73.71 171.91 73.73 171.84 73.76 171.75 73.78 171.67 73.81 171.55 73.85 171.4 73.9L171.4 73.93C171.43 73.93 171.5 73.93 171.61 73.92 171.72 73.9 171.85 73.89 171.98 73.88 172.11 73.86 172.24 73.85 172.35 73.84 172.47 73.83 172.54 73.82 172.58 73.82 172.72 73.79 172.86 73.77 173.02 73.74 173.17 73.72 173.27 73.74 173.32 73.8 173.42 73.75 173.51 73.72 173.59 73.72 173.8 73.79 173.94 73.82 173.99 73.82L174.14 73.82C174.19 73.82 174.25 73.81 174.33 73.78 174.4 73.82 174.51 73.84 174.65 73.85 174.79 73.85 174.97 73.86 175.18 73.86L175.33 73.95C175.49 73.98 175.63 73.99 175.75 74 175.88 74.01 175.99 74.04 176.09 74.09L176.38 74.09C176.44 74.15 176.54 74.19 176.67 74.22 176.81 74.24 176.91 74.29 176.99 74.35 177.03 74.38 177.08 74.41 177.15 74.46 177.22 74.5 177.3 74.57 177.41 74.68 177.58 74.83 177.67 74.99 177.67 75.15L177.65 75.36 177.54 75.7zM173.87 71.67L173.68 71.67 173.51 71.58 173.26 71.52 173.07 71.65 172.71 71.39 172.43 71.31 172.31 71.37 172.16 71.2 172.09 71.2C171.96 71.2 171.76 71.18 171.5 71.14L171.1 71.2 170.89 71.01 170.7 71.05 170.64 71.03 170.53 71.1 170.2 70.99 170.13 71.03 170.13 71.44 170.24 71.77 170.15 72.03 170.24 72.24 170.22 72.6 170.32 72.89 170.2 73.17 170.26 73.36 170.53 73.35C170.55 73.33 170.59 73.32 170.64 73.3 170.69 73.28 170.74 73.24 170.79 73.17L170.87 73.14 170.98 73.21 171.04 73.08 171.52 72.83C171.69 72.78 171.82 72.75 171.89 72.74 171.96 72.72 172.02 72.69 172.07 72.62L172.33 72.55 172.43 72.53C172.59 72.43 172.78 72.36 173 72.34L173.07 72.28C173.1 72.28 173.15 72.26 173.23 72.21L173.51 72.05 173.55 72.05C173.61 72 173.68 71.95 173.75 71.91 173.82 71.87 173.9 71.83 173.99 71.81L173.87 71.67zM186.01 73.55L185.9 73.9C185.9 74.23 185.88 74.48 185.84 74.68L185.72 74.86 185.72 75.07 185.63 75.21 185.57 75.47 185.36 75.68 185.23 76.16 185.08 76.21 185 76.42 184.77 76.56 184.62 76.88 184.39 76.99 184.38 77.22 184.01 77.35C183.85 77.58 183.65 77.73 183.41 77.79L183.33 77.81C183.15 78.08 182.92 78.21 182.63 78.21 182.5 78.29 182.36 78.32 182.19 78.32L182 78.46 181.81 78.51 181.56 78.7 181.32 78.68 181.05 78.76 180.73 78.63 179.91 78.57 179.63 78.13 179.21 77.7 179.3 77.39 179.02 76.75 179.15 76.5 179.06 76.04 179.15 75.76C179.13 75.58 179.11 75.45 179.11 75.38 179.11 75.14 179.18 74.96 179.3 74.85 179.32 74.72 179.4 74.51 179.55 74.22L179.64 74.22 179.61 74.09 179.66 73.82 179.66 73.54C179.77 73.42 179.82 73.35 179.83 73.31L179.78 73.04 179.78 72.97C179.87 72.79 179.91 72.6 179.91 72.41L180.31 71.86 180.36 71.83C180.39 71.8 180.42 71.77 180.44 71.75L180.42 71.67 180.5 71.67 180.78 71.35 180.8 70.91 181.28 70.74C181.46 70.63 181.57 70.44 181.62 70.17L181.87 70.17C182.01 70.1 182.13 70.06 182.25 70.06 182.36 70.06 182.47 70.08 182.57 70.13L182.78 70.15 183.27 69.96 183.54 70.21 183.75 70.34 183.9 70.34 184.19 70.5 184.34 70.5C184.5 70.65 184.69 70.86 184.91 71.12L184.95 71.22 185.08 71.29 185.48 71.81 185.84 72.7 185.84 72.89 186.01 73.55zM184.76 74.01L184.74 73.92C184.65 73.83 184.6 73.73 184.58 73.63L184.64 73.54 184.47 73.17 184.51 72.81 184.43 72.72C184.27 72.59 184.18 72.49 184.17 72.41 184.05 72.36 184 72.24 184 72.03L183.88 72.02 183.65 71.64 183.48 71.5 183.08 71.35 182.93 71.31C182.86 71.31 182.81 71.29 182.78 71.24L182.4 71.65 182.15 72.19 181.75 72.4 181.7 72.6 181.51 72.7 181.43 73.19 181.2 73.31C181.15 73.48 181.13 73.65 181.13 73.8L180.82 74.09 180.92 74.14C180.92 74.3 180.86 74.43 180.75 74.54 180.71 74.66 180.66 74.78 180.59 74.92L180.59 75.07 180.54 75.15 180.56 75.38 180.35 75.89 180.39 75.99 180.39 76.52 180.31 76.78 180.33 77.05 180.5 77.3 180.77 77.39 180.86 77.43 181.01 77.35 181.51 77.39 181.58 77.2 181.66 77.2C181.73 77.2 181.78 77.22 181.79 77.26L181.96 77.2 182.11 77.26 182.36 77.09 182.4 77.03 182.57 76.99C182.66 76.85 182.87 76.71 183.2 76.58L183.24 76.48 183.62 76.21 183.82 75.91 184.13 75.76 184.15 75.66 184.24 75.45 184.24 75.21 184.47 75.02 184.55 74.88 184.64 74.77C184.59 74.62 184.57 74.51 184.57 74.45 184.57 74.33 184.6 74.21 184.68 74.09L184.76 74.01zM194.88 75.04L194.52 75.38 194.5 75.49C194.46 75.72 194.35 75.9 194.18 76.04 193.87 76.61 193.45 77.03 192.9 77.3L192.62 77.53 192.37 77.56 192.07 77.79 191.86 77.81 191.38 78.11 191.08 78.08 190.74 78.23 190.47 78.15 190.34 78.27 189.98 78.21 189.62 78.27 189.48 78.15 189.1 78.08 188.55 77.66 188.25 77.28C188.06 77.04 187.96 76.83 187.96 76.67L187.96 76.61 187.77 76.33 187.77 76.08C187.74 75.93 187.72 75.79 187.72 75.66L187.72 75.53 187.62 75.21 187.72 74.98 187.64 74.83 187.87 74.47 187.81 74.16 187.96 73.67 188.04 73.55 188.12 73.1 188.08 73.02 188.31 72.78 188.34 72.58 188.5 72.15 188.74 71.62 189.08 71.31 189.16 71.14 189.27 70.93 189.31 70.74 189.62 70.38C189.69 70.36 189.78 70.33 189.88 70.31 189.93 70.06 190.25 69.93 190.83 69.89 191.33 69.99 191.64 70.12 191.78 70.29 191.92 70.31 192.03 70.37 192.11 70.46L192.5 70.48 192.77 70.82C192.83 70.94 192.88 71.07 192.9 71.2L193.06 71.35 193 71.64C193.01 71.72 193.02 71.86 193.02 72.05L193.11 72.13 193.11 72.41 193.19 73C192.92 73.27 192.62 73.42 192.28 73.46 192.1 73.13 191.88 72.88 191.61 72.72L191.57 72.09 191.46 71.88 191.46 71.73 191.27 71.5 191.17 71.43 191 71.48 190.76 71.48C190.59 71.52 190.43 71.64 190.28 71.84 190.13 72.05 189.98 72.26 189.83 72.49L189.81 72.68 189.69 72.78 189.69 73.12 189.45 73.38 189.14 74.22 189.16 74.45 189.01 74.79 189.07 75.21 188.95 75.26 188.91 75.8 188.93 75.89 189.16 76.12 189.26 76.52 189.52 76.59 189.54 76.75 189.86 76.8 190.11 76.86C190.2 76.81 190.31 76.78 190.43 76.78L190.57 76.78C190.72 76.72 190.86 76.69 190.98 76.69 191.07 76.65 191.19 76.61 191.33 76.58 191.48 76.37 191.69 76.27 191.97 76.27L192.09 76.27C192.15 76.27 192.19 76.24 192.22 76.18 192.36 75.96 192.58 75.82 192.88 75.76 193.24 75.44 193.44 75.19 193.49 75 193.67 74.9 193.78 74.74 193.83 74.52L193.95 74.45 194.01 74.01C194.59 74.1 194.88 74.39 194.88 74.88L194.88 75.04zM206.56 70.21L206.16 71.18 205.97 71.24 205.67 71.24 205.38 71.27 205.17 71.24 204.17 71.31 203.86 71.24 203.81 71.26C203.71 71.31 203.52 71.35 203.26 71.39L202.88 71.39 202.76 71.35 202.7 71.35C202.58 71.35 202.42 71.38 202.23 71.43 202.08 71.46 201.88 71.48 201.64 71.48L201.37 71.43 201.34 71.62 201.15 71.62 201.09 72.17 201.17 72.3 201.15 72.55 201.15 72.97C201.15 73.4 201.1 73.69 201.01 73.84L201.15 74.03 201.03 74.49 201.15 74.62 200.96 74.88 200.96 75.02 200.86 75.19 200.94 75.55 200.88 76.21 200.79 76.52C200.8 76.53 200.8 76.56 200.8 76.61 200.8 76.59 200.79 76.66 200.75 76.82 200.75 76.83 200.75 76.85 200.77 76.88L200.77 76.96C200.77 77.07 200.73 77.18 200.65 77.3L200.71 77.53C200.71 77.61 200.7 77.66 200.69 77.68L200.67 77.72C200.66 77.75 200.65 77.79 200.64 77.82 200.64 77.85 200.63 77.89 200.63 77.92 200.63 78.13 200.66 78.3 200.71 78.44 200.58 78.46 200.45 78.48 200.32 78.48 200.19 78.49 200.11 78.49 200.08 78.49 200.01 78.49 199.93 78.48 199.85 78.46L199.82 78.46C199.54 78.38 199.4 78.12 199.4 77.68 199.41 77.64 199.42 77.56 199.42 77.45 199.42 77.36 199.4 77.24 199.38 77.08 199.35 76.92 199.34 76.81 199.34 76.75 199.34 76.63 199.36 76.54 199.4 76.46L199.46 75.8C199.37 75.67 199.32 75.57 199.32 75.51 199.32 75.52 199.34 75.48 199.36 75.38 199.32 75.3 199.3 75.24 199.3 75.19 199.3 75.09 199.33 75.02 199.38 74.98 199.38 74.92 199.42 74.78 199.51 74.58 199.49 74.45 199.47 74.36 199.47 74.3 199.55 74.3 199.59 74.26 199.59 74.18 199.59 74.16 199.58 74.12 199.56 74.09 199.54 74.05 199.53 74 199.53 73.93L199.57 73.99 199.51 73.84C199.51 73.62 199.54 73.45 199.59 73.31L199.59 72.85 199.51 72.51 199.59 71.96 199.51 71.62 199.53 71.46 199.3 71.46 199.11 71.56 199 71.56 199 71.62C198.76 71.62 198.54 71.6 198.33 71.56L198.28 71.69 197.65 71.48 196.81 71.46 196.28 71.62C196.07 71.43 195.91 71.23 195.8 71.04 195.69 70.84 195.64 70.7 195.64 70.61 195.64 70.51 195.65 70.43 195.67 70.38L196.04 70.06 196.34 70.08 197.42 70.29 197.71 70.19 198.52 70.21 199.17 70.29 199.59 70.13 199.74 69.72 200.39 69.87 200.41 69.85 200.44 69.89 200.67 70.17 200.73 70.17 200.96 70.1 201.43 70.21C201.67 70.17 201.86 70.14 201.99 70.11 202.12 70.09 202.21 70.08 202.25 70.08 202.36 70.08 202.5 70.11 202.67 70.17L202.86 70.17C202.92 70.17 202.98 70.17 203.03 70.16 203.08 70.16 203.12 70.15 203.14 70.15L203.26 70.15 203.81 70.08 204.28 70.17 204.34 70.19 204.59 70.11 204.93 70.19 205.73 70.17 206.09 70.21 206.56 70.21zM208.99 76.18L209.14 76.77 209.28 76.58 209.69 76.08 210.28 75.8C210.35 75.64 210.45 75.53 210.6 75.44 210.74 75.36 210.88 75.29 211.02 75.23L212.13 74.22 212.64 73.61 213.09 73.29 213.11 73.19C213.14 73.09 213.2 73.04 213.3 73.03 213.4 73.03 213.49 73.01 213.55 72.98L213.93 72.41 213.99 72.3 214.69 71.88 215.43 70.89 215.74 70.72 215.83 70.48 216.1 70.34C216.16 70.23 216.27 70.1 216.43 69.96 216.59 69.82 216.74 69.72 216.88 69.66L217.03 69.83 217.2 69.79C217.48 69.82 217.61 69.91 217.6 70.08 217.64 70.14 217.65 70.21 217.65 70.29 217.65 70.35 217.62 70.43 217.56 70.51L217.48 71.44 217.41 71.6 217.43 72.05 217.33 72.6 217.37 73.36 217.2 73.67 217.46 74.14 217.31 74.6 217.41 74.86 217.5 75.06 217.45 75.55 217.45 75.72C217.46 75.76 217.46 75.79 217.46 75.82L217.46 75.91 217.41 76.02 217.27 76.18C217.29 76.2 217.29 76.25 217.29 76.33 217.29 76.39 217.28 76.44 217.26 76.47 217.25 76.5 217.23 76.53 217.22 76.56L217.33 76.8 217.18 77.07 217.33 77.62C217.29 77.85 217.19 78.02 217.02 78.13 216.85 78.25 216.66 78.3 216.46 78.3L216.12 78.3C216.05 78.2 215.99 78.1 215.93 77.99 215.88 77.88 215.84 77.77 215.83 77.64 215.83 77.59 215.85 77.53 215.89 77.47L215.7 77.2 215.83 76.97 215.81 76.65 215.87 76.29 215.7 75.72 215.87 75.68C215.84 75.63 215.83 75.58 215.84 75.52 215.85 75.46 215.85 75.4 215.85 75.34 215.85 75.21 215.89 75.11 215.98 75.04L216.04 74.81 215.87 74.01 215.93 73.54 215.83 72.85 215.98 72.68 216.04 72.32 216.1 72.03 216 72.02 215.53 72.66 215.17 72.93 214.96 73.17C214.85 73.31 214.74 73.45 214.61 73.57 214.49 73.7 214.35 73.81 214.22 73.92L214.01 74.22 213.7 74.3 213.17 75.06 212.45 75.64 212.14 75.95 211.92 76.08 211.61 76.35 211.16 76.58 211.08 76.73 209.71 77.73 209.62 77.75 209.48 78C209.42 78.01 209.35 78.04 209.28 78.09 209.22 78.13 209.14 78.16 209.07 78.17L208.97 78.25 208.95 78.25 208.95 78.38 207.89 78.65 207.7 78.4 207.41 78.19 207.74 77.85 207.55 77.15 207.6 77.09 207.51 76.88 207.89 76.69 207.6 76.33 207.85 75.93 207.77 75.59 207.79 75.34 207.7 74.81 207.85 74.62 207.7 74.01 207.83 73.84 207.62 73.54 207.74 72.79 207.7 72.72C207.6 72.63 207.54 72.33 207.53 71.81L207.51 71.75 207.57 71.39 207.51 71.16C207.53 71.06 207.59 70.95 207.68 70.84 207.74 70.82 207.77 70.79 207.77 70.72 207.77 70.66 207.79 70.59 207.83 70.52 207.87 70.45 207.88 70.37 207.85 70.27L208.46 70.19 208.55 70.02 209.5 70.38 209.39 70.55 209.6 70.74 209.37 70.88 209.58 71.48 209.31 71.69 209.31 72.6 209.18 73.12 209.35 73.74 209.07 73.99 209.07 74.05 209.24 74.3 209.22 75.15 209.14 75.21 209.28 75.51 208.99 76.18zM232.14 73.55L232.03 73.9C232.03 74.23 232.01 74.48 231.97 74.68L231.86 74.86 231.86 75.07 231.76 75.21 231.71 75.47 231.5 75.68 231.37 76.16 231.21 76.21 231.14 76.42 230.91 76.56 230.76 76.88 230.53 76.99 230.51 77.22 230.15 77.35C229.99 77.58 229.78 77.73 229.54 77.79L229.47 77.81C229.29 78.08 229.05 78.21 228.76 78.21 228.64 78.29 228.49 78.32 228.33 78.32L228.14 78.46 227.95 78.51 227.7 78.7 227.45 78.68 227.19 78.76 226.86 78.63 226.05 78.57 225.76 78.13 225.34 77.7 225.44 77.39 225.15 76.75 225.29 76.5 225.19 76.04 225.29 75.76C225.26 75.58 225.25 75.45 225.25 75.38 225.25 75.14 225.31 74.96 225.44 74.85 225.45 74.72 225.53 74.51 225.68 74.22L225.78 74.22 225.74 74.09 225.8 73.82 225.8 73.54C225.9 73.42 225.96 73.35 225.97 73.31L225.91 73.04 225.91 72.97C226 72.79 226.05 72.6 226.05 72.41L226.44 71.86 226.49 71.83C226.52 71.8 226.55 71.77 226.58 71.75L226.56 71.67 226.63 71.67 226.92 71.35 226.94 70.91 227.41 70.74C227.59 70.63 227.71 70.44 227.76 70.17L228 70.17C228.14 70.1 228.27 70.06 228.38 70.06 228.5 70.06 228.6 70.08 228.71 70.13L228.91 70.15 229.41 69.96 229.67 70.21 229.88 70.34 230.04 70.34 230.32 70.5 230.47 70.5C230.64 70.65 230.83 70.86 231.04 71.12L231.08 71.22 231.21 71.29 231.61 71.81 231.97 72.7 231.97 72.89 232.14 73.55zM230.89 74.01L230.87 73.92C230.78 73.83 230.73 73.73 230.72 73.63L230.78 73.54 230.61 73.17 230.64 72.81 230.57 72.72C230.4 72.59 230.31 72.49 230.3 72.41 230.19 72.36 230.13 72.24 230.13 72.03L230.02 72.02 229.79 71.64 229.62 71.5 229.22 71.35 229.07 71.31C228.99 71.31 228.94 71.29 228.91 71.24L228.53 71.65 228.29 72.19 227.89 72.4 227.83 72.6 227.64 72.7 227.57 73.19 227.34 73.31C227.29 73.48 227.26 73.65 227.26 73.8L226.96 74.09 227.05 74.14C227.05 74.3 227 74.43 226.88 74.54 226.84 74.66 226.79 74.78 226.73 74.92L226.73 75.07 226.67 75.15 226.69 75.38 226.48 75.89 226.52 75.99 226.52 76.52 226.44 76.78 226.46 77.05 226.63 77.3 226.9 77.39 227 77.43 227.15 77.35 227.64 77.39 227.72 77.2 227.79 77.2C227.87 77.2 227.91 77.22 227.93 77.26L228.1 77.2 228.25 77.26 228.5 77.09 228.53 77.03 228.71 76.99C228.79 76.85 229 76.71 229.33 76.58L229.37 76.48 229.75 76.21 229.96 75.91 230.26 75.76 230.28 75.66 230.38 75.45 230.38 75.21 230.61 75.02 230.68 74.88 230.78 74.77C230.73 74.62 230.7 74.51 230.7 74.45 230.7 74.33 230.74 74.21 230.81 74.09L230.89 74.01zM245.84 74.41L246.22 73.97 246.24 73.93C246.26 73.91 246.28 73.89 246.29 73.89 246.31 73.88 246.33 73.86 246.37 73.84 246.38 73.81 246.41 73.79 246.45 73.77 246.48 73.75 246.53 73.73 246.6 73.69 246.7 73.52 246.83 73.4 247 73.31L247.05 73.21 247.05 73.06C247.32 72.73 247.53 72.54 247.7 72.49 247.7 72.33 247.87 72.17 248.21 72.02L248.5 71.62 248.59 71.33 248.78 71.33C248.81 71.22 248.85 71.13 248.9 71.06 248.95 70.99 249 70.91 249.05 70.84L249.01 70.72 248.84 70.4 249.09 70.06 249.24 69.64 249.54 69.64C249.59 69.64 249.64 69.63 249.68 69.62 249.78 69.62 249.95 69.67 250.19 69.77L250.21 69.91 250.44 70.06 250.45 70.19 250.63 70.31 250.53 70.4C250.72 70.46 250.82 70.55 250.82 70.67 250.82 70.73 250.8 70.79 250.76 70.84L250.76 71.1 250.99 71.39 250.87 71.48 250.85 71.56 250.89 71.58 250.97 71.83 251.21 72.02 251.01 72.24 250.91 72.6 251.04 72.87 251.01 73.23 251.2 73.72C251.23 73.83 251.26 73.92 251.27 74.02 251.28 74.11 251.29 74.19 251.29 74.26 251.29 74.33 251.25 74.43 251.16 74.56 251.23 74.62 251.27 74.69 251.27 74.75 251.27 74.84 251.23 74.94 251.16 75.06L251.23 75.11 251.18 76.02 251.39 76.54 251.39 77.09C251.41 77.14 251.44 77.19 251.47 77.24 251.5 77.29 251.53 77.35 251.56 77.41 251.57 77.42 251.61 77.46 251.68 77.53 251.75 77.59 251.84 77.68 251.96 77.79 252.09 77.93 252.17 78.05 252.18 78.15 252.12 78.32 251.88 78.47 251.46 78.61L250.87 78.27 250.32 77.7 250.13 77.32 250.07 77.01 250 76.84C249.91 76.66 249.85 76.5 249.82 76.35 249.79 76.19 249.77 76.05 249.77 75.91 249.77 75.87 249.77 75.83 249.78 75.8 249.79 75.76 249.8 75.71 249.81 75.66L249.85 75.63 249.9 75.32 249.68 74.96 249.75 74.75 249.69 74.5 249.73 74.28C249.71 74.21 249.69 74.15 249.69 74.1 249.68 74.04 249.68 73.98 249.68 73.93L249.68 73.84C249.68 73.67 249.64 73.48 249.58 73.25L249.58 72.79 249.52 72.51 249.58 72.05 249.35 72.28 248.9 73 248.44 73.52 248.27 73.84 247.76 74.39 247.21 74.77 247.15 75.09 246.81 75.21 246.75 75.38 246.35 75.57 246.22 75.87 245.93 75.97 245.61 76.5 245.4 76.61 245.34 76.92C245.25 76.96 245.17 76.99 245.09 77.01 245 77.04 244.91 77.05 244.81 77.05L244.72 77.05 244.56 76.73 244.32 76.4 244.34 76.23 244.18 76.01 244.26 75.89 244.24 75.87 244.17 75.61 244.03 75.51C243.8 75.28 243.64 75.09 243.54 74.94L243.44 74.64 243.29 74.45 242.97 73.88 242.65 73.52 242.53 73.33 242.23 73 241.92 72.47C241.87 72.57 241.85 72.66 241.85 72.73 241.85 72.8 241.84 72.93 241.83 73.12L241.51 73.61 241.6 73.97 241.43 74.33 241.07 75.34 240.92 75.68 240.88 75.89 240.57 76.42 240.33 76.78 240.37 77.11C240.34 77.21 240.3 77.3 240.23 77.39 240.17 77.48 240.11 77.58 240.04 77.68L240.18 78.08C239.8 78.39 239.53 78.55 239.38 78.55 239.15 78.55 239 78.47 238.92 78.3 238.88 78.27 238.85 78.22 238.82 78.18 238.79 78.14 238.76 78.08 238.75 78.02L238.75 77.94C238.98 77.13 239.13 76.73 239.21 76.73 239.22 76.73 239.23 76.73 239.23 76.75L239.23 76.48C239.23 76.2 239.35 75.99 239.59 75.83L239.59 75.74 239.68 75.42 239.66 75.3C239.66 75.28 239.68 75.23 239.71 75.15 239.74 75.07 239.78 74.97 239.83 74.85L239.93 74.77 239.93 74.33 240.12 74.05 240.38 73.23 240.31 72.74 240.54 72.55 240.54 72.51 240.56 71.86 240.63 71.6C240.67 71.51 240.69 71.43 240.69 71.37L240.69 71.29 240.37 70.78 240.46 70.46 240.59 70.44 240.73 70.27 240.71 70.13 240.97 69.94 241.11 70 241.35 69.85 241.6 69.87 242.06 70.15 242.06 70.27 242.23 70.36 242.44 70.74 242.42 70.95 242.44 71.07C242.47 71.09 242.52 71.12 242.56 71.14 242.6 71.17 242.66 71.21 242.72 71.27L242.74 71.5 242.93 71.65 243.04 71.98 243.84 72.66 244.01 73.06 244.28 73.19 244.58 73.84 245.13 74.69 245.21 74.92 245.31 74.92 245.44 74.66 245.84 74.41zM260.94 73.55L260.83 73.9C260.83 74.23 260.81 74.48 260.77 74.68L260.65 74.86 260.65 75.07 260.56 75.21 260.5 75.47 260.29 75.68 260.16 76.16 260.01 76.21 259.93 76.42 259.7 76.56 259.55 76.88 259.32 76.99 259.31 77.22 258.94 77.35C258.78 77.58 258.58 77.73 258.34 77.79L258.26 77.81C258.08 78.08 257.85 78.21 257.56 78.21 257.43 78.29 257.29 78.32 257.12 78.32L256.93 78.46 256.74 78.51 256.49 78.7 256.25 78.68 255.98 78.76 255.66 78.63 254.84 78.57 254.56 78.13 254.14 77.7 254.23 77.39 253.95 76.75 254.08 76.5 253.99 76.04 254.08 75.76C254.06 75.58 254.04 75.45 254.04 75.38 254.04 75.14 254.11 74.96 254.23 74.85 254.25 74.72 254.33 74.51 254.48 74.22L254.57 74.22 254.54 74.09 254.59 73.82 254.59 73.54C254.69 73.42 254.75 73.35 254.76 73.31L254.71 73.04 254.71 72.97C254.8 72.79 254.84 72.6 254.84 72.41L255.24 71.86 255.29 71.83C255.32 71.8 255.35 71.77 255.37 71.75L255.35 71.67 255.43 71.67 255.71 71.35 255.73 70.91 256.21 70.74C256.39 70.63 256.5 70.44 256.55 70.17L256.8 70.17C256.94 70.1 257.06 70.06 257.18 70.06 257.29 70.06 257.4 70.08 257.5 70.13L257.71 70.15 258.2 69.96 258.47 70.21 258.68 70.34 258.83 70.34 259.12 70.5 259.27 70.5C259.43 70.65 259.62 70.86 259.84 71.12L259.88 71.22 260.01 71.29 260.41 71.81 260.77 72.7 260.77 72.89 260.94 73.55zM259.69 74.01L259.67 73.92C259.58 73.83 259.53 73.73 259.51 73.63L259.57 73.54 259.4 73.17 259.44 72.81 259.36 72.72C259.2 72.59 259.11 72.49 259.1 72.41 258.98 72.36 258.93 72.24 258.93 72.03L258.81 72.02 258.58 71.64 258.41 71.5 258.01 71.35 257.86 71.31C257.79 71.31 257.73 71.29 257.71 71.24L257.33 71.65 257.08 72.19 256.68 72.4 256.63 72.6 256.44 72.7 256.36 73.19 256.13 73.31C256.08 73.48 256.06 73.65 256.06 73.8L255.75 74.09 255.85 74.14C255.85 74.3 255.79 74.43 255.68 74.54 255.64 74.66 255.59 74.78 255.52 74.92L255.52 75.07 255.47 75.15 255.49 75.38 255.28 75.89 255.32 75.99 255.32 76.52 255.24 76.78 255.26 77.05 255.43 77.3 255.7 77.39 255.79 77.43 255.94 77.35 256.44 77.39 256.51 77.2 256.59 77.2C256.66 77.2 256.71 77.22 256.72 77.26L256.89 77.2 257.04 77.26 257.29 77.09 257.33 77.03 257.5 76.99C257.59 76.85 257.8 76.71 258.13 76.58L258.17 76.48 258.55 76.21 258.75 75.91 259.06 75.76 259.08 75.66 259.17 75.45 259.17 75.21 259.4 75.02 259.48 74.88 259.57 74.77C259.52 74.62 259.5 74.51 259.5 74.45 259.5 74.33 259.53 74.21 259.61 74.09L259.69 74.01zM272.77 76.58L272.94 76.48 273.31 76.61 273.44 76.46 273.86 76.63 273.88 76.71 273.82 76.99 273.86 77.03 273.95 77.41 273.78 77.56 273.91 77.73 273.93 77.77C273.94 78.1 273.89 78.34 273.76 78.49L273.8 78.89 273.8 79.18 273.59 79.54 273.61 79.82 273.53 80.11 273.21 80.81 272.93 80.87 272.75 80.28 272.64 79.94C272.59 79.87 272.57 79.8 272.58 79.72 272.6 79.64 272.61 79.54 272.64 79.43L272.58 79.35 272.62 79.25 272.51 79.03 272.66 78.8 272.56 78.68 272.66 78.51C272.65 78.28 272.61 78.12 272.55 78.02 272.5 77.92 272.34 77.88 272.09 77.91L272.05 77.91 272.11 77.83C272.06 77.84 272.01 77.85 271.98 77.86 271.94 77.86 271.89 77.87 271.84 77.87L271.1 77.87C271.04 77.87 270.96 77.85 270.87 77.81 270.85 77.81 270.82 77.81 270.79 77.8 270.76 77.79 270.71 77.78 270.66 77.77L270.55 77.91 269.92 77.79 269.79 77.87 269.45 77.87 268.92 77.81 268.08 77.91 267.64 77.79 266.67 77.91C266.59 77.91 266.43 77.91 266.22 77.91 266 77.92 265.81 77.92 265.65 77.92 265.58 77.92 265.53 77.94 265.5 77.96 265.46 77.99 265.43 77.99 265.4 77.96L265.17 77.94 264.64 78.02 264.68 78.06C264.6 78.06 264.55 78.05 264.51 78.05 264.47 78.04 264.44 78.04 264.41 78.04 264.35 78.04 264.27 78.03 264.19 78.01 264.1 77.99 264.04 78.01 264.01 78.06L263.69 78.15 263.54 78.08C263.54 78.2 263.49 78.37 263.39 78.57L263.48 78.74 263.39 78.84 263.52 79.08 263.44 79.29 263.48 79.43 263.43 79.48C263.43 79.6 263.42 79.69 263.42 79.78 263.41 79.86 263.38 79.93 263.33 80L263.22 80.34 262.91 80.91 262.57 80.85 262.38 80.11 262.34 79.81 262.38 79.52 262.17 79.18 262.23 78.89 262.29 78.49C262.17 78.33 262.12 78.08 262.13 77.75L262.15 77.73C262.14 77.7 262.13 77.66 262.12 77.63 262.12 77.6 262.11 77.56 262.11 77.53 262.11 77.32 262.16 77.15 262.26 77.02 262.35 76.89 262.53 76.79 262.78 76.73L263.03 76.73 263.6 76.67 263.69 76.5C263.77 76.45 263.8 76.38 263.8 76.29 263.79 76.2 263.81 76.13 263.86 76.08L264.05 76.01 264.01 75.8 264.26 75.7C264.29 75.62 264.3 75.58 264.3 75.57L264.3 75.53 264.36 75.4 264.53 75.26 264.62 75.02 264.62 74.83 264.81 74.83 264.83 74.56 264.95 74.47 264.98 74.37C265.17 74.24 265.27 74.16 265.27 74.12L265.44 73.8 265.57 73.54 265.76 73.27 265.9 73.04 266.05 72.87 266.2 72.58 266.45 72.32 266.52 72.26 266.52 72.05 266.56 72.03 266.6 71.92C266.69 71.82 266.76 71.69 266.82 71.54 266.87 71.39 266.91 71.28 266.94 71.22L266.96 70.97 267.05 70.74 267.13 70.72 267.13 70.5 267.17 70.5 267.28 70.29 267.21 69.79 267.34 69.51C267.44 69.44 267.56 69.39 267.69 69.36 267.82 69.32 267.92 69.3 267.99 69.3 268.1 69.3 268.2 69.32 268.29 69.37 268.33 69.4 268.38 69.5 268.46 69.69 268.54 69.87 268.66 70.09 268.84 70.34L268.97 70.69 269.14 70.89 269.43 71.26 269.7 71.6 269.71 71.71 270.11 72.15 270.11 72.3 270.32 72.36 270.44 72.79 270.66 73.02 270.82 73.25C270.83 73.3 270.85 73.35 270.88 73.39 270.91 73.44 270.95 73.48 270.99 73.52L270.99 73.55 271.04 73.55C271.11 73.62 271.16 73.69 271.2 73.77 271.23 73.85 271.27 73.94 271.31 74.03L271.41 74.22 271.5 74.33 271.67 74.77 271.8 74.88 271.8 75.07 271.88 75.19 272.05 75.47 272.2 75.78 272.43 76.12 272.53 76.29 272.64 76.46 272.77 76.58zM265.8 75.7L265.71 75.76C265.68 75.78 265.66 75.82 265.66 75.87 265.65 75.92 265.64 75.96 265.61 75.99L265.38 76.29 265.29 76.63 265.78 76.61 266.1 76.67 266.41 76.67 266.71 76.63 267.32 76.63C267.42 76.63 267.51 76.62 267.6 76.59 267.68 76.57 267.73 76.56 267.74 76.56L267.85 76.56C267.88 76.57 267.95 76.55 268.07 76.49 268.19 76.43 268.26 76.4 268.27 76.4L268.75 76.56 269.01 76.42 269.51 76.56 270.15 76.59C270.18 76.58 270.21 76.58 270.26 76.58L270.38 76.58C270.49 76.58 270.6 76.59 270.7 76.63L270.89 76.65C270.89 76.59 270.89 76.51 270.87 76.41 270.86 76.32 270.84 76.25 270.82 76.19 270.74 76.09 270.7 76 270.7 75.91L270.44 75.53 270.42 75.4 270.25 75.06 270.21 74.86 270 74.56 269.71 74.01 269.41 73.48 269.11 73.1C269.07 73.07 269.04 73.03 269.02 72.97 269 72.9 268.98 72.83 268.95 72.74L268.78 72.7 268.75 72.53 268.42 72.3C268.4 72.26 268.37 72.21 268.35 72.15 268.32 72.08 268.28 72.03 268.21 71.98L268.16 71.9 268.04 71.96 268 72.15 267.74 72.51 267.4 73 267.23 73.35 267.02 73.61 266.85 73.97 266.56 74.28 266.33 74.69 266.26 74.85C266.23 74.96 266.19 75.04 266.14 75.07 266.09 75.11 266.04 75.18 265.99 75.28L265.8 75.7zM281.74 76.44C281.74 76.59 281.62 76.78 281.4 77.01 281.33 77.21 281.24 77.38 281.11 77.51L281 77.53 280.79 77.89 280.45 77.94 280.09 78.17 279.9 78.51 279.69 78.47C279.55 78.54 279.43 78.58 279.34 78.59L279.23 78.76C279.19 78.75 279.14 78.74 279.06 78.74 278.89 78.74 278.74 78.85 278.58 79.08L278.32 78.86C278.27 78.87 278.19 78.87 278.09 78.87 277.93 78.87 277.79 78.85 277.67 78.8L277.35 78.8 277.2 78.7C276.72 78.63 276.41 78.44 276.29 78.15L276.29 78.1 276.06 77.98 275.94 77.66 275.72 77.51 275.72 77.22 275.49 76.39 275.53 75.7 275.6 75.4 275.6 75 275.7 74.69 275.68 74.56 275.81 74.33 275.77 74.37C275.77 74.26 275.8 74.14 275.87 74.01L275.87 73.92 275.81 73.46C275.81 73.24 275.91 73.05 276.1 72.89 276.11 72.86 276.11 72.83 276.11 72.78 276.11 72.72 276.09 72.62 276.05 72.46 276 72.3 275.98 72.19 275.98 72.13 275.98 71.98 276.02 71.82 276.1 71.65 276.2 71.81 276.34 71.88 276.53 71.88L276.59 71.88C276.61 71.83 276.67 71.77 276.76 71.71 276.86 71.39 277 71.13 277.18 70.91L277.25 70.84C277.25 70.79 277.29 70.64 277.37 70.4L277.52 70.4 277.56 70.31 277.71 70.27C277.77 70.17 277.81 70.11 277.83 70.09 277.85 70.07 277.99 69.99 278.24 69.85 278.29 69.76 278.37 69.68 278.47 69.6 278.52 69.58 278.58 69.55 278.66 69.53L278.74 69.41C279.08 69.3 279.29 69.24 279.38 69.24 279.48 69.24 279.58 69.27 279.67 69.32L279.76 69.3 279.9 69.37C280.05 69.49 280.2 69.58 280.35 69.66L280.67 69.91 280.67 69.98C280.97 70.21 281.11 70.53 281.11 70.95L281.05 71.14 281.11 71.77 280.94 71.88 280.75 72.38 280.39 72.78 280.37 73.08C279.96 73.37 279.59 73.6 279.25 73.78 279.14 73.96 278.96 74.05 278.72 74.05L278.66 74.05 278.3 74.28 278 74.28 277.54 74.47 277.2 74.3 277.16 74.3C277.13 74.4 277.11 74.55 277.08 74.75L276.93 74.86 276.91 75.09 276.8 75.42C276.84 75.72 276.86 75.92 276.86 76.01L276.78 76.06C276.78 76.23 276.77 76.35 276.76 76.42 276.76 76.44 276.75 76.45 276.74 76.48L276.74 76.54C276.74 76.64 276.79 76.72 276.89 76.78 276.93 76.94 276.99 77.03 277.08 77.07L277.22 77.18 277.63 77.3 277.63 77.35 277.79 77.39 278.43 77.43 278.81 77.37 279 77.24 279.12 77.2 279.31 76.92 279.4 76.9 279.88 76.75C279.93 76.66 280.01 76.58 280.12 76.52L280.18 76.42C280.43 76.37 280.58 76.24 280.62 76.02 280.79 75.85 281.02 75.76 281.3 75.76L281.38 75.76C281.62 76.04 281.74 76.26 281.74 76.44zM279.86 70.97C279.86 70.93 279.84 70.86 279.8 70.74L279.71 70.72 279.67 70.74 279.59 70.74C279.57 70.75 279.54 70.76 279.52 70.76 279.5 70.76 279.48 70.75 279.46 70.74L279.4 70.74 279.21 70.88 279.04 70.89 278.95 70.93 278.62 71.35 278.41 71.5 278.11 72.03 277.94 72.15C277.9 72.36 277.81 72.55 277.67 72.7L277.6 72.83C277.74 72.74 277.89 72.7 278.07 72.7L278.2 72.64 278.26 72.47 278.53 72.49 278.68 72.26 278.79 72.26 279 72.34 279.1 72.05 279.23 72.05 279.23 71.84 279.48 71.79 279.53 71.73 279.57 71.56 279.82 71.2C279.84 71.13 279.86 71.06 279.86 70.97zM286.18 77.2L285.9 77.64 285.63 77.77 285.52 77.92 285.23 78.17 285.12 78.32 284.77 78.53 284.13 79.18 283.79 79.33C283.7 79.51 283.58 79.65 283.43 79.77L283.35 79.82 283.22 80.07 282.95 80.32C282.74 80.38 282.58 80.41 282.48 80.41 282.44 80.41 282.34 80.4 282.19 80.38 282.18 80.32 282.17 80.25 282.17 80.15 282.17 80.03 282.2 79.89 282.25 79.73L282.3 79.54 282.36 79.46C282.4 79.26 282.53 79.11 282.74 79.01L282.76 78.95 282.95 78.68 283.03 78.42 283.12 78.29 283.33 78.19 283.37 78.11C283.38 78.04 283.43 77.97 283.52 77.92L283.63 77.85 283.63 77.66 283.81 77.62C283.81 77.48 283.84 77.34 283.92 77.18L284.11 77.03C284.11 76.99 284.12 76.94 284.15 76.86 284.15 76.83 284.15 76.8 284.17 76.77L284.17 76.67 284.28 76.52C284.46 76.29 284.69 76.18 284.98 76.18 285.19 76.18 285.42 76.23 285.69 76.35L285.74 76.42 286.1 76.52 286.18 77.2zM153.72 99.04L153.36 99.38 153.34 99.49C153.3 99.72 153.19 99.9 153.01 100.04 152.71 100.61 152.28 101.03 151.74 101.3L151.46 101.53 151.21 101.56 150.9 101.79 150.7 101.81 150.22 102.11 149.92 102.08 149.57 102.23 149.31 102.15 149.18 102.27 148.81 102.21 148.45 102.27 148.32 102.15 147.94 102.08 147.39 101.66 147.09 101.28C146.9 101.04 146.8 100.83 146.8 100.67L146.8 100.61 146.61 100.33 146.61 100.08C146.57 99.93 146.55 99.79 146.55 99.66L146.55 99.53 146.46 99.21 146.55 98.98 146.48 98.83 146.71 98.47 146.65 98.16 146.8 97.67 146.88 97.55 146.95 97.1 146.91 97.02 147.14 96.78 147.18 96.59 147.33 96.15 147.58 95.62 147.92 95.31 148 95.14 148.11 94.93 148.15 94.74 148.45 94.38C148.53 94.36 148.62 94.33 148.72 94.31 148.77 94.06 149.09 93.93 149.67 93.89 150.16 93.99 150.48 94.12 150.62 94.29 150.76 94.31 150.87 94.37 150.94 94.46L151.34 94.48 151.61 94.82C151.67 94.94 151.71 95.07 151.74 95.2L151.89 95.35 151.84 95.64C151.85 95.72 151.85 95.86 151.85 96.05L151.95 96.13 151.95 96.41 152.03 97C151.76 97.27 151.46 97.42 151.11 97.46 150.94 97.13 150.71 96.88 150.45 96.72L150.41 96.09 150.3 95.88 150.3 95.73 150.11 95.5 150.01 95.43 149.84 95.48 149.59 95.48C149.43 95.52 149.27 95.64 149.12 95.84 148.97 96.05 148.81 96.26 148.66 96.49L148.64 96.68 148.53 96.78 148.53 97.12 148.28 97.38 147.98 98.22 148 98.45 147.85 98.79 147.9 99.21 147.79 99.26 147.75 99.8 147.77 99.89 148 100.12 148.09 100.52 148.36 100.59 148.38 100.75 148.7 100.8 148.95 100.86C149.04 100.81 149.14 100.78 149.27 100.78L149.4 100.78C149.56 100.72 149.69 100.69 149.82 100.69 149.91 100.65 150.02 100.61 150.16 100.58 150.32 100.37 150.53 100.27 150.81 100.27L150.92 100.27C150.99 100.27 151.03 100.24 151.06 100.18 151.2 99.96 151.42 99.82 151.72 99.76 152.08 99.44 152.28 99.19 152.33 99 152.51 98.9 152.62 98.74 152.67 98.52L152.79 98.45 152.84 98.01C153.42 98.1 153.72 98.39 153.72 98.88L153.72 99.04zM165.4 94.21L165 95.18 164.81 95.24 164.5 95.24 164.22 95.27 164.01 95.24 163 95.31 162.7 95.24 162.64 95.26C162.54 95.31 162.36 95.35 162.09 95.39L161.71 95.39 161.6 95.35 161.54 95.35C161.41 95.35 161.26 95.38 161.07 95.43 160.91 95.46 160.72 95.48 160.48 95.48L160.21 95.43 160.17 95.62 159.98 95.62 159.93 96.17 160 96.3 159.98 96.55 159.98 96.97C159.98 97.4 159.94 97.69 159.85 97.84L159.98 98.03 159.87 98.49 159.98 98.62 159.79 98.88 159.79 99.02 159.7 99.19 159.77 99.55 159.72 100.21 159.62 100.52C159.63 100.53 159.64 100.56 159.64 100.61 159.64 100.59 159.62 100.66 159.58 100.82 159.58 100.83 159.59 100.85 159.6 100.88L159.6 100.96C159.6 101.07 159.56 101.18 159.49 101.3L159.55 101.53C159.55 101.61 159.54 101.66 159.53 101.68L159.51 101.72C159.5 101.75 159.49 101.79 159.48 101.82 159.47 101.85 159.47 101.89 159.47 101.92 159.47 102.13 159.5 102.3 159.55 102.44 159.42 102.46 159.29 102.48 159.16 102.48 159.02 102.49 158.94 102.49 158.92 102.49 158.84 102.49 158.77 102.48 158.69 102.46L158.65 102.46C158.37 102.38 158.23 102.12 158.23 101.68 158.25 101.64 158.25 101.56 158.25 101.45 158.25 101.36 158.24 101.24 158.22 101.08 158.19 100.92 158.18 100.81 158.18 100.75 158.18 100.63 158.2 100.54 158.23 100.46L158.29 99.8C158.2 99.67 158.16 99.57 158.16 99.51 158.16 99.52 158.17 99.48 158.2 99.38 158.16 99.3 158.14 99.24 158.14 99.19 158.14 99.09 158.17 99.02 158.22 98.98 158.22 98.92 158.26 98.78 158.35 98.58 158.32 98.45 158.31 98.36 158.31 98.3 158.39 98.3 158.42 98.26 158.42 98.18 158.42 98.16 158.42 98.12 158.4 98.09 158.38 98.05 158.37 98 158.37 97.93L158.41 97.99 158.35 97.84C158.35 97.62 158.37 97.45 158.42 97.31L158.42 96.85 158.35 96.51 158.42 95.96 158.35 95.62 158.37 95.46 158.14 95.46 157.95 95.56 157.84 95.56 157.84 95.62C157.6 95.62 157.37 95.6 157.17 95.56L157.11 95.69 156.49 95.48 155.65 95.46 155.12 95.62C154.9 95.43 154.74 95.23 154.63 95.04 154.53 94.84 154.47 94.7 154.47 94.61 154.47 94.51 154.49 94.43 154.51 94.38L154.87 94.06 155.18 94.08 156.26 94.29 156.54 94.19 157.36 94.21 158.01 94.29 158.42 94.13 158.58 93.72 159.22 93.87 159.24 93.85 159.28 93.89 159.51 94.17 159.56 94.17 159.79 94.1 160.27 94.21C160.51 94.17 160.7 94.14 160.83 94.12 160.96 94.09 161.05 94.08 161.08 94.08 161.2 94.08 161.34 94.11 161.5 94.17L161.69 94.17C161.76 94.17 161.81 94.17 161.86 94.16 161.91 94.16 161.95 94.15 161.98 94.15L162.09 94.15 162.64 94.08 163.12 94.17 163.17 94.19 163.42 94.12 163.76 94.19 164.56 94.17 164.92 94.21 165.4 94.21zM167.83 100.18L167.98 100.77 168.11 100.58 168.53 100.08 169.12 99.8C169.18 99.64 169.29 99.53 169.43 99.44 169.58 99.36 169.72 99.29 169.86 99.23L170.96 98.22 171.47 97.61 171.93 97.29 171.95 97.19C171.98 97.09 172.04 97.04 172.14 97.03 172.24 97.03 172.32 97.01 172.39 96.98L172.77 96.41 172.82 96.3 173.53 95.88 174.27 94.89 174.57 94.72 174.67 94.48 174.93 94.34C175 94.23 175.11 94.1 175.27 93.96 175.42 93.82 175.57 93.72 175.71 93.66L175.86 93.83 176.03 93.79C176.31 93.82 176.45 93.91 176.43 94.08 176.47 94.14 176.49 94.21 176.49 94.29 176.49 94.35 176.46 94.43 176.4 94.51L176.32 95.45 176.24 95.6 176.26 96.05 176.17 96.6 176.21 97.36 176.03 97.67 176.3 98.14 176.15 98.6 176.24 98.87 176.34 99.06 176.28 99.55 176.28 99.72C176.29 99.76 176.3 99.79 176.3 99.82L176.3 99.91 176.24 100.02 176.11 100.18C176.12 100.2 176.13 100.25 176.13 100.33 176.13 100.39 176.12 100.44 176.1 100.47 176.08 100.5 176.07 100.53 176.05 100.56L176.17 100.8 176.02 101.07 176.17 101.62C176.13 101.85 176.03 102.02 175.85 102.13 175.68 102.25 175.5 102.3 175.29 102.3L174.95 102.3C174.89 102.2 174.83 102.1 174.77 101.99 174.71 101.88 174.68 101.77 174.67 101.64 174.67 101.59 174.69 101.53 174.72 101.47L174.53 101.2 174.67 100.97 174.65 100.65 174.7 100.29 174.53 99.72 174.7 99.68C174.68 99.63 174.67 99.58 174.68 99.52 174.68 99.46 174.69 99.4 174.69 99.34 174.69 99.21 174.73 99.11 174.82 99.04L174.88 98.81 174.7 98.01 174.76 97.54 174.67 96.85 174.82 96.68 174.88 96.32 174.93 96.03 174.84 96.02 174.36 96.66 174 96.93 173.79 97.17C173.69 97.31 173.58 97.45 173.45 97.57 173.32 97.7 173.19 97.81 173.05 97.92L172.84 98.22 172.54 98.3 172.01 99.06 171.28 99.64 170.98 99.95 170.75 100.08 170.45 100.35 169.99 100.58 169.92 100.73 168.55 101.73 168.45 101.75 168.32 102C168.26 102.01 168.19 102.04 168.12 102.09 168.05 102.13 167.98 102.16 167.9 102.17L167.81 102.25 167.79 102.25 167.79 102.38 166.72 102.65 166.53 102.4 166.25 102.19 166.57 101.85 166.38 101.15 166.44 101.09 166.34 100.88 166.72 100.69 166.44 100.33 166.69 99.93 166.61 99.59 166.63 99.34 166.53 98.81 166.69 98.62 166.53 98.01 166.67 97.84 166.46 97.54 166.57 96.79 166.53 96.72C166.43 96.63 166.38 96.33 166.36 95.81L166.34 95.75 166.4 95.39 166.34 95.16C166.37 95.06 166.43 94.95 166.52 94.84 166.58 94.82 166.61 94.79 166.61 94.72 166.61 94.66 166.63 94.59 166.67 94.52 166.71 94.45 166.71 94.37 166.69 94.27L167.29 94.19 167.39 94.02 168.34 94.38 168.23 94.55 168.43 94.74 168.21 94.88 168.42 95.48 168.15 95.69 168.15 96.6 168.02 97.12 168.19 97.74 167.9 97.99 167.9 98.05 168.07 98.3 168.05 99.15 167.98 99.21 168.11 99.51 167.83 100.18zM187.53 98.6L187.83 99.04 188.04 99.17 188.06 99.38 188.15 99.47 188.19 99.68C188.25 99.8 188.31 99.88 188.35 99.95 188.4 100.01 188.43 100.07 188.46 100.12L188.63 100.46 188.67 100.67 188.84 100.88 188.89 100.97 188.88 101.03 188.91 101.11 188.84 101.16 188.93 101.34C188.91 101.49 188.87 101.62 188.82 101.73L188.7 101.94 188.5 102.15 188.17 102.19 187.72 102.1 187.45 101.92C187.36 101.76 187.3 101.6 187.27 101.44 187.24 101.28 187.22 101.13 187.22 100.97 187.13 100.9 187.08 100.8 187.05 100.67L186.79 100.23 186.77 100.08 186.5 99.68 186.44 99.44 186.16 99.07 185.76 98.39 185.38 97.74 184.96 97.52C184.92 97.49 184.89 97.44 184.86 97.35 184.83 97.27 184.79 97.18 184.75 97.08L184.56 97.06 184.49 96.89 184.07 96.43C184.03 96.41 183.98 96.36 183.93 96.29 183.87 96.22 183.82 96.14 183.78 96.05L183.57 96.19 183.37 96.43C183.31 96.5 183.26 96.57 183.19 96.65 183.13 96.73 183.06 96.84 182.99 96.97L182.87 97.06 182.87 97.12 182.68 97.19 182.66 97.29 182.47 97.48 182.26 97.71 182.15 97.95 181.98 98.18 181.79 98.49 181.33 98.94C181.29 98.95 181.24 99.09 181.18 99.36L181.1 99.45 181.05 99.61 180.86 99.74 180.9 99.97 180.78 100.12 180.78 100.35 180.61 100.52 180.52 100.73C180.52 100.74 180.51 100.75 180.5 100.77 180.48 100.78 180.47 100.79 180.47 100.8 180.46 100.82 180.45 100.83 180.42 100.86L180.34 101.3 180.21 101.53 180.21 101.75C180.14 101.87 180.03 101.96 179.89 102.02L179.51 102.19 179.24 102.17C179.01 102.17 178.84 102.09 178.73 101.92 178.62 101.87 178.56 101.77 178.56 101.62L178.56 101.53C178.56 101.46 178.55 101.42 178.54 101.41L178.6 100.97 178.79 100.78 178.92 100.44 179.11 100.25 179.3 99.93C179.35 99.88 179.38 99.8 179.38 99.68L179.45 99.53C179.49 99.38 179.59 99.24 179.76 99.11 179.81 98.83 179.96 98.61 180.21 98.45L180.33 98.28 180.72 97.86 180.95 97.38 181.28 97 181.47 96.66 181.62 96.51 181.58 96.3 182.17 95.62 182.62 95.16 182.64 94.93 182.66 94.8 182.81 94.61 182.74 94.08 182.87 93.75C182.96 93.68 183.09 93.62 183.27 93.57 183.45 93.53 183.57 93.51 183.65 93.51 183.78 93.51 183.87 93.53 183.94 93.58 183.99 93.62 184.18 93.92 184.51 94.5L184.66 94.84 184.87 95.07 185.17 95.43 185.38 95.75 185.38 95.88 185.8 96.34 185.85 96.49 186.04 96.53 186.33 97 186.56 97.23 186.75 97.5C186.76 97.54 186.79 97.58 186.82 97.62 186.86 97.66 186.91 97.71 186.96 97.74L186.96 97.82 186.99 97.82C187.11 97.92 187.22 98.08 187.32 98.3L187.43 98.5 187.53 98.6zM196.81 100.44C196.81 100.59 196.7 100.78 196.47 101.01 196.41 101.21 196.31 101.38 196.19 101.51L196.07 101.53 195.86 101.89 195.52 101.94 195.16 102.17 194.97 102.51 194.76 102.48C194.62 102.54 194.51 102.58 194.42 102.59L194.31 102.76C194.27 102.75 194.21 102.74 194.14 102.74 193.97 102.74 193.81 102.85 193.66 103.08L193.39 102.86C193.34 102.87 193.27 102.87 193.17 102.87 193 102.87 192.86 102.85 192.75 102.8L192.43 102.8 192.27 102.7C191.79 102.63 191.49 102.44 191.36 102.15L191.36 102.1 191.13 101.98 191.02 101.66 190.79 101.51 190.79 101.22 190.56 100.39 190.6 99.7 190.68 99.4 190.68 99 190.77 98.69 190.75 98.56 190.89 98.33 190.85 98.37C190.85 98.26 190.88 98.14 190.94 98.01L190.94 97.92 190.89 97.46C190.89 97.24 190.98 97.05 191.17 96.89 191.18 96.86 191.19 96.83 191.19 96.78 191.19 96.72 191.17 96.62 191.12 96.46 191.08 96.3 191.06 96.19 191.06 96.13 191.06 95.98 191.1 95.82 191.17 95.65 191.27 95.81 191.42 95.88 191.61 95.88L191.67 95.88C191.69 95.83 191.75 95.77 191.84 95.71 191.94 95.39 192.08 95.13 192.25 94.91L192.33 94.84C192.33 94.79 192.37 94.64 192.44 94.4L192.6 94.4 192.63 94.31 192.79 94.27C192.85 94.17 192.89 94.11 192.91 94.09 192.93 94.07 193.07 93.99 193.32 93.85 193.37 93.76 193.45 93.68 193.55 93.6 193.6 93.58 193.66 93.55 193.74 93.53L193.81 93.41C194.15 93.3 194.37 93.24 194.46 93.24 194.56 93.24 194.65 93.27 194.74 93.32L194.84 93.3 194.97 93.37C195.12 93.49 195.28 93.58 195.43 93.66L195.75 93.91 195.75 93.98C196.04 94.21 196.19 94.53 196.19 94.95L196.13 95.14 196.19 95.77 196.02 95.88 195.83 96.38 195.47 96.78 195.45 97.08C195.04 97.37 194.67 97.6 194.33 97.78 194.21 97.96 194.03 98.05 193.79 98.05L193.74 98.05 193.38 98.28 193.07 98.28 192.62 98.47 192.27 98.3 192.24 98.3C192.21 98.4 192.18 98.55 192.16 98.75L192.01 98.87 191.99 99.09 191.87 99.42C191.91 99.72 191.93 99.92 191.93 100.01L191.86 100.06C191.86 100.23 191.85 100.35 191.84 100.42 191.84 100.44 191.83 100.45 191.82 100.48L191.82 100.54C191.82 100.64 191.87 100.72 191.97 100.78 192.01 100.94 192.07 101.03 192.16 101.07L192.29 101.18 192.71 101.3 192.71 101.35 192.86 101.39 193.51 101.43 193.89 101.37 194.08 101.24 194.19 101.2 194.38 100.92 194.48 100.9 194.95 100.75C195 100.66 195.09 100.58 195.2 100.52L195.26 100.42C195.51 100.37 195.66 100.24 195.69 100.02 195.87 99.85 196.1 99.76 196.38 99.76L196.45 99.76C196.69 100.04 196.81 100.26 196.81 100.44zM194.93 94.97C194.93 94.93 194.91 94.86 194.88 94.74L194.78 94.72 194.74 94.74 194.67 94.74C194.64 94.75 194.62 94.76 194.59 94.76 194.58 94.76 194.56 94.75 194.53 94.74L194.48 94.74 194.29 94.88 194.12 94.89 194.02 94.93 193.7 95.35 193.49 95.5 193.19 96.03 193.01 96.15C192.98 96.36 192.89 96.55 192.75 96.7L192.67 96.83C192.81 96.74 192.97 96.7 193.15 96.7L193.28 96.64 193.34 96.47 193.6 96.49 193.76 96.26 193.87 96.26 194.08 96.34 194.17 96.05 194.31 96.05 194.31 95.84 194.55 95.79 194.61 95.73 194.65 95.56 194.9 95.2C194.92 95.13 194.93 95.06 194.93 94.97zM205.61 100.18L205.76 100.77 205.89 100.58 206.31 100.08 206.9 99.8C206.96 99.64 207.06 99.53 207.21 99.44 207.36 99.36 207.5 99.29 207.64 99.23L208.74 98.22 209.25 97.61 209.71 97.29 209.73 97.19C209.75 97.09 209.82 97.04 209.92 97.03 210.02 97.03 210.1 97.01 210.17 96.98L210.55 96.41 210.6 96.3 211.31 95.88 212.05 94.89 212.35 94.72 212.45 94.48 212.71 94.34C212.77 94.23 212.89 94.1 213.04 93.96 213.2 93.82 213.35 93.72 213.49 93.66L213.64 93.83 213.81 93.79C214.09 93.82 214.22 93.91 214.21 94.08 214.25 94.14 214.27 94.21 214.27 94.29 214.27 94.35 214.24 94.43 214.17 94.51L214.1 95.45 214.02 95.6 214.04 96.05 213.95 96.6 213.98 97.36 213.81 97.67 214.08 98.14 213.93 98.6 214.02 98.87 214.12 99.06 214.06 99.55 214.06 99.72C214.07 99.76 214.08 99.79 214.08 99.82L214.08 99.91 214.02 100.02 213.89 100.18C213.9 100.2 213.91 100.25 213.91 100.33 213.91 100.39 213.9 100.44 213.88 100.47 213.86 100.5 213.84 100.53 213.83 100.56L213.95 100.8 213.79 101.07 213.95 101.62C213.91 101.85 213.8 102.02 213.63 102.13 213.46 102.25 213.27 102.3 213.07 102.3L212.73 102.3C212.67 102.2 212.61 102.1 212.55 101.99 212.49 101.88 212.46 101.77 212.45 101.64 212.45 101.59 212.46 101.53 212.5 101.47L212.31 101.2 212.45 100.97 212.43 100.65 212.48 100.29 212.31 99.72 212.48 99.68C212.46 99.63 212.45 99.58 212.45 99.52 212.46 99.46 212.46 99.4 212.46 99.34 212.46 99.21 212.51 99.11 212.6 99.04L212.65 98.81 212.48 98.01 212.54 97.54 212.45 96.85 212.6 96.68 212.65 96.32 212.71 96.03 212.62 96.02 212.14 96.66 211.78 96.93 211.57 97.17C211.47 97.31 211.36 97.45 211.23 97.57 211.1 97.7 210.97 97.81 210.83 97.92L210.62 98.22 210.32 98.3 209.79 99.06 209.06 99.64 208.76 99.95 208.53 100.08 208.23 100.35 207.77 100.58 207.7 100.73 206.33 101.73 206.23 101.75 206.1 102C206.04 102.01 205.97 102.04 205.9 102.09 205.83 102.13 205.76 102.16 205.68 102.17L205.59 102.25 205.57 102.25 205.57 102.38 204.5 102.65 204.31 102.4 204.03 102.19 204.35 101.85 204.16 101.15 204.22 101.09 204.12 100.88 204.5 100.69 204.22 100.33 204.47 99.93 204.39 99.59 204.41 99.34 204.31 98.81 204.47 98.62 204.31 98.01 204.45 97.84 204.24 97.54 204.35 96.79 204.31 96.72C204.21 96.63 204.15 96.33 204.14 95.81L204.12 95.75 204.18 95.39 204.12 95.16C204.15 95.06 204.21 94.95 204.29 94.84 204.36 94.82 204.39 94.79 204.39 94.72 204.39 94.66 204.41 94.59 204.45 94.52 204.48 94.45 204.49 94.37 204.47 94.27L205.07 94.19 205.17 94.02 206.12 94.38 206 94.55 206.21 94.74 205.99 94.88 206.19 95.48 205.93 95.69 205.93 96.6 205.8 97.12 205.97 97.74 205.68 97.99 205.68 98.05 205.85 98.3 205.83 99.15 205.76 99.21 205.89 99.51 205.61 100.18zM229.84 99.15L229.79 99.15 229.69 99.63C229.77 99.63 229.81 99.62 229.82 99.61L229.77 100.04 229.88 100.44 229.77 100.78 229.79 101.49 229.73 101.81C229.83 101.92 229.88 102.07 229.88 102.25 229.88 102.32 229.86 102.41 229.8 102.52 229.75 102.63 229.73 102.7 229.73 102.72 229.72 102.77 229.71 102.82 229.71 102.87 229.71 103 229.76 103.14 229.86 103.29L229.63 103.52 229.88 103.67C229.88 103.84 229.86 104 229.83 104.16 229.8 104.31 229.76 104.46 229.72 104.58 229.67 104.71 229.62 104.82 229.57 104.9 229.51 104.98 229.44 105.02 229.37 105.02 229.29 105.02 229.22 104.99 229.14 104.93 229.06 104.86 228.99 104.78 228.91 104.69 228.84 104.59 228.77 104.5 228.72 104.39 228.67 104.29 228.64 104.2 228.63 104.11L228.53 103.96C228.43 103.78 228.39 103.64 228.4 103.55 228.41 103.45 228.42 103.37 228.42 103.29L228.23 102.76 228.38 102.51 228.3 102.19 228.34 101.7 228.32 101.54C228.31 101.47 228.3 101.4 228.29 101.34 228.29 101.29 228.28 101.23 228.28 101.18L228.28 101.03C228.28 100.98 228.29 100.93 228.3 100.88L228.28 100.71 228.23 100.12 228.27 100.01 228.3 98.73 228 99.11 227.77 99.32 227.41 99.47 227.22 99.82 226.97 99.85 226.38 100.25 226.08 100.44 225.83 100.78 224.58 101.56 224.31 101.92 223.84 102.08 223.65 102.34 223.46 102.34 223.06 102.68 222.83 102.78 222.58 102.89 222.45 102.91 222.39 102.89C222.22 103.08 222.07 103.17 221.94 103.16 221.8 103.13 221.7 103.01 221.63 102.8 221.57 102.58 221.55 102.39 221.58 102.21 221.74 102.11 221.87 102.01 221.97 101.91 222.06 101.8 222.14 101.7 222.2 101.6L222.32 101.56 222.32 101.53C222.32 101.5 222.34 101.46 222.38 101.39 222.73 101.33 222.96 101.17 223.06 100.92L223.44 100.78 223.59 100.69C223.63 100.65 223.68 100.6 223.75 100.54 223.82 100.47 223.91 100.39 224.01 100.29L224.37 100.1 224.58 99.89C224.73 99.85 224.81 99.76 224.83 99.63L225.11 99.59 225.43 99.26 225.55 99.19 225.85 99.15 226.04 98.88 226.27 98.83 226.65 98.58 226.84 98.5 227.3 98.31 227.35 98.24 226.88 98.22 226.46 98.2 226.19 98.09 225.87 98.05 225.55 97.88 225.07 97.69 224.73 97.4 224.43 97.33 224.41 97.23C224.31 97.15 224.24 97.1 224.2 97.06L223.82 97.02C223.74 96.87 223.71 96.77 223.71 96.72L223.71 96.64C223.53 96.6 223.4 96.49 223.31 96.3L223.08 96.07 222.95 95.73 222.74 95.67 222.68 95.41 222.55 95.31 222.57 95.2 222.53 95.1 222.6 95.07 222.41 94.67C222.35 94.45 222.36 94.25 222.45 94.08 222.54 93.9 222.64 93.78 222.74 93.72 223.1 93.68 223.32 93.83 223.38 94.17L223.55 94.31 223.78 94.57C223.79 94.6 223.8 94.62 223.81 94.65 223.82 94.67 223.83 94.7 223.86 94.74 224 94.81 224.11 94.94 224.2 95.14L224.48 95.16 224.5 95.35 224.58 95.46C224.81 95.53 224.94 95.65 224.98 95.83L225.13 95.81 225.32 96.09 225.59 96.11 225.59 96.19 225.74 96.17 225.76 96.36 226.02 96.43 226.18 96.64 226.57 96.76C226.87 96.77 227.01 96.8 227.01 96.85L227.01 96.89C227.18 96.9 227.32 96.96 227.45 97.08L227.79 97.04 227.79 97.08 228.19 97.33 228.38 97.35 228.34 96.45 228.4 96.36 228.3 96.26 228.42 95.81 228.42 95.64 228.3 95.62 228.34 95.12C228.32 95.07 228.31 95.02 228.33 94.96 228.35 94.9 228.38 94.84 228.41 94.76 228.44 94.68 228.47 94.61 228.5 94.52 228.53 94.44 228.54 94.36 228.53 94.27L228.61 94 228.53 93.53 228.57 93.56 228.65 93.22 228.59 93.34 228.59 92.73 228.85 92.73 228.91 92.52 229.48 92.37C229.62 92.37 229.74 92.39 229.84 92.42 229.94 92.46 230.04 92.5 230.13 92.54 230.29 92.77 230.37 93.03 230.37 93.32L230.37 93.43 230.32 93.43 230.22 94.32 230.24 94.84 230.3 94.91 230.15 95.41 230.03 95.77 230.01 96.24 229.84 96.74C229.87 96.8 229.88 96.85 229.88 96.88L229.88 97.02C229.88 97.15 229.87 97.24 229.86 97.31L230.11 97.33 230.51 97.08 230.51 97.04 230.85 97.08C230.98 96.96 231.12 96.9 231.29 96.89L231.29 96.85C231.29 96.8 231.43 96.77 231.72 96.76L232.12 96.64 232.27 96.43 232.54 96.36 232.56 96.17 232.71 96.19 232.71 96.11 232.98 96.09 233.17 95.81 233.32 95.83C233.36 95.65 233.49 95.53 233.72 95.46L233.79 95.35 233.81 95.16 234.1 95.14C234.19 94.94 234.3 94.81 234.44 94.74 234.47 94.7 234.48 94.67 234.49 94.65 234.49 94.62 234.5 94.6 234.52 94.57L234.74 94.31 234.92 94.17C234.98 93.83 235.19 93.68 235.56 93.72 235.66 93.78 235.76 93.9 235.85 94.08 235.94 94.25 235.95 94.45 235.88 94.67L235.69 95.07 235.77 95.1 235.73 95.2 235.75 95.31 235.62 95.41 235.56 95.67 235.35 95.73 235.22 96.07 234.99 96.3C234.9 96.49 234.77 96.6 234.59 96.64L234.59 96.72C234.59 96.77 234.55 96.87 234.48 97.02L234.1 97.06C234.06 97.1 233.99 97.15 233.89 97.23L233.87 97.33 233.57 97.4 233.22 97.69 232.75 97.88 232.43 98.05 232.1 98.09 231.84 98.2 231.42 98.22 230.94 98.24 231 98.31 231.46 98.5 231.65 98.58 232.03 98.83 232.26 98.88 232.45 99.15 232.75 99.19 232.86 99.26 233.19 99.59 233.47 99.63C233.48 99.76 233.57 99.85 233.72 99.89L233.93 100.1 234.29 100.29C234.39 100.39 234.48 100.47 234.55 100.54 234.61 100.6 234.67 100.65 234.71 100.69L234.86 100.78 235.24 100.92C235.34 101.17 235.57 101.33 235.92 101.39L235.96 101.47C235.97 101.49 235.98 101.51 235.98 101.53L235.98 101.56 236.09 101.6C236.16 101.7 236.24 101.8 236.33 101.91 236.43 102.01 236.56 102.11 236.72 102.21 236.75 102.39 236.73 102.58 236.66 102.8 236.6 103.01 236.5 103.13 236.36 103.16 236.23 103.17 236.08 103.08 235.9 102.89L235.85 102.91 235.71 102.89 235.47 102.78 235.24 102.68 234.84 102.34 234.65 102.34 234.46 102.08 233.98 101.92 233.72 101.56 232.46 100.78 232.22 100.44 231.91 100.25 231.32 99.85 231.08 99.82 230.89 99.47 230.53 99.32 230.3 99.11 230.07 98.85C230.07 98.78 230.05 98.74 229.99 98.7 229.94 98.67 229.87 98.64 229.79 98.62L229.84 99.15zM240.27 100.18L240.42 100.77 240.56 100.58 240.97 100.08 241.56 99.8C241.63 99.64 241.73 99.53 241.88 99.44 242.02 99.36 242.16 99.29 242.3 99.23L243.41 98.22 243.92 97.61 244.37 97.29 244.39 97.19C244.42 97.09 244.48 97.04 244.58 97.03 244.68 97.03 244.77 97.01 244.83 96.98L245.21 96.41 245.27 96.3 245.97 95.88 246.71 94.89 247.02 94.72 247.11 94.48 247.38 94.34C247.44 94.23 247.55 94.1 247.71 93.96 247.87 93.82 248.02 93.72 248.16 93.66L248.31 93.83 248.48 93.79C248.76 93.82 248.89 93.91 248.88 94.08 248.92 94.14 248.93 94.21 248.93 94.29 248.93 94.35 248.9 94.43 248.84 94.51L248.76 95.45 248.69 95.6 248.71 96.05 248.61 96.6 248.65 97.36 248.48 97.67 248.74 98.14 248.59 98.6 248.69 98.87 248.78 99.06 248.73 99.55 248.73 99.72C248.74 99.76 248.74 99.79 248.74 99.82L248.74 99.91 248.69 100.02 248.55 100.18C248.57 100.2 248.57 100.25 248.57 100.33 248.57 100.39 248.56 100.44 248.55 100.47 248.53 100.5 248.51 100.53 248.5 100.56L248.61 100.8 248.46 101.07 248.61 101.62C248.57 101.85 248.47 102.02 248.3 102.13 248.13 102.25 247.94 102.3 247.74 102.3L247.4 102.3C247.33 102.2 247.27 102.1 247.22 101.99 247.16 101.88 247.12 101.77 247.11 101.64 247.11 101.59 247.13 101.53 247.17 101.47L246.98 101.2 247.11 100.97 247.09 100.65 247.15 100.29 246.98 99.72 247.15 99.68C247.12 99.63 247.11 99.58 247.12 99.52 247.13 99.46 247.13 99.4 247.13 99.34 247.13 99.21 247.17 99.11 247.26 99.04L247.32 98.81 247.15 98.01 247.21 97.54 247.11 96.85 247.26 96.68 247.32 96.32 247.38 96.03 247.28 96.02 246.81 96.66 246.45 96.93 246.24 97.17C246.14 97.31 246.02 97.45 245.89 97.57 245.77 97.7 245.63 97.81 245.5 97.92L245.29 98.22 244.98 98.3 244.45 99.06 243.73 99.64 243.42 99.95 243.2 100.08 242.89 100.35 242.44 100.58 242.36 100.73 240.99 101.73 240.9 101.75 240.76 102C240.7 102.01 240.63 102.04 240.57 102.09 240.5 102.13 240.42 102.16 240.35 102.17L240.25 102.25 240.23 102.25 240.23 102.38 239.17 102.65 238.98 102.4 238.69 102.19 239.02 101.85 238.83 101.15 238.88 101.09 238.79 100.88 239.17 100.69 238.88 100.33 239.13 99.93 239.05 99.59 239.07 99.34 238.98 98.81 239.13 98.62 238.98 98.01 239.11 97.84 238.9 97.54 239.02 96.79 238.98 96.72C238.88 96.63 238.82 96.33 238.81 95.81L238.79 95.75 238.85 95.39 238.79 95.16C238.81 95.06 238.87 94.95 238.96 94.84 239.02 94.82 239.05 94.79 239.05 94.72 239.05 94.66 239.07 94.59 239.11 94.52 239.15 94.45 239.16 94.37 239.13 94.27L239.74 94.19 239.83 94.02 240.78 94.38 240.67 94.55 240.88 94.74 240.65 94.88 240.86 95.48 240.59 95.69 240.59 96.6 240.46 97.12 240.63 97.74 240.35 97.99 240.35 98.05 240.52 98.3 240.5 99.15 240.42 99.21 240.56 99.51 240.27 100.18zM259.4 98.73L259.67 99.06 259.72 99.4 259.82 99.59 259.72 100.35 259.46 100.63 259.36 100.94 259.02 101.09 259.02 101.22 258.74 101.28 258.55 101.53C258.46 101.56 258.34 101.6 258.19 101.64 258.05 101.68 257.89 101.72 257.71 101.77 257.63 101.84 257.56 101.9 257.49 101.95 257.42 102.01 257.33 102.04 257.22 102.06 257.11 102.11 256.99 102.17 256.84 102.25 256.7 102.32 256.55 102.38 256.4 102.42L256.21 102.36 255.49 102.55 255.13 102.53 254.84 102.48 254.59 102.53 254.18 102.59 253.91 102.59 253.76 102.51C253.74 102.54 253.73 102.56 253.7 102.57 253.65 102.6 253.61 102.59 253.59 102.55L253.49 102.44C253.47 102.45 253.44 102.48 253.42 102.52 253.41 102.57 253.37 102.6 253.32 102.61 253.24 102.61 253.15 102.59 253.04 102.55L252.9 102.59C252.83 102.59 252.78 102.58 252.75 102.57 252.74 102.58 252.73 102.57 252.71 102.54 252.7 102.51 252.68 102.49 252.66 102.49 252.57 102.49 252.48 102.47 252.39 102.42L252.12 102.55 251.93 102.27 251.82 102.36 251.63 102.27C251.58 102.32 251.53 102.34 251.5 102.34L251.36 102.34C251.27 102.34 251.19 102.28 251.12 102.15 250.96 102.08 250.85 101.98 250.77 101.87 250.7 101.75 250.66 101.55 250.66 101.26 250.66 100.89 250.83 100.69 251.15 100.65 251.22 100.63 251.26 100.59 251.27 100.54 251.28 100.49 251.33 100.45 251.4 100.42L251.67 100.37 252.14 100.29C252.51 100.44 252.69 100.61 252.69 100.78 252.69 100.89 252.65 100.98 252.56 101.07 252.6 101.07 252.67 101.09 252.77 101.13L253.07 101.07C253.2 101.07 253.33 101.11 253.45 101.2 253.54 101.18 253.63 101.18 253.73 101.22 253.82 101.26 253.92 101.28 254.02 101.28L254.35 101.28C254.46 101.2 254.54 101.16 254.59 101.16 254.66 101.16 254.74 101.19 254.84 101.24 254.9 101.2 254.96 101.18 255.01 101.16 255.06 101.15 255.12 101.14 255.18 101.13L255.49 101.32 255.52 101.24 255.87 101.18 256.08 101.18 256.38 100.97C256.48 100.97 256.56 100.98 256.62 100.98 256.67 100.99 256.71 100.99 256.72 100.99 256.76 100.99 256.82 100.96 256.91 100.91 257 100.85 257.09 100.79 257.18 100.73L257.35 100.73 257.39 100.63 257.67 100.44 257.73 100.33C257.86 100.28 257.94 100.21 257.99 100.14 258.05 100.06 258.09 100 258.13 99.95 258.19 99.85 258.22 99.76 258.21 99.69 258.21 99.62 258.19 99.56 258.17 99.49 258.14 99.47 258.11 99.45 258.09 99.45 258.06 99.45 258 99.44 257.9 99.42L257.61 99.19 257.27 99.13 256.97 99.23 256.85 99.06 256.7 99.09 256.53 98.9 256.46 98.96C256.28 98.92 256.18 98.9 256.15 98.9 256.09 98.92 256.03 98.93 255.99 98.94 255.95 98.95 255.9 98.97 255.87 98.98 255.82 98.97 255.75 98.91 255.68 98.81L255.6 98.87C255.51 98.89 255.42 98.91 255.32 98.92 255.23 98.93 255.13 98.95 255.01 98.96L254.92 98.85 254.52 98.79 254.38 98.66 254.18 98.68 253.81 98.5 253.51 98.16 253.42 97.78 253.59 97.4 253.91 97.19C254.02 97.12 254.14 97.07 254.26 97.05 254.38 97.03 254.5 97.01 254.61 96.98L254.84 96.81 255.6 96.59 255.75 96.47 256.06 96.53 256.21 96.34 256.32 96.41C256.53 96.2 256.76 96.09 257.03 96.09L257.18 95.96 257.22 95.92C257.27 95.87 257.3 95.84 257.32 95.83 257.34 95.81 257.39 95.78 257.48 95.73 257.56 95.6 257.58 95.53 257.55 95.51 257.52 95.49 257.44 95.43 257.33 95.31 257.28 95.25 257.21 95.19 257.12 95.13 257.03 95.07 256.86 95.01 256.61 94.95L256.36 94.99C256.15 94.95 255.99 94.93 255.9 94.93 255.84 94.93 255.78 94.94 255.72 94.94 255.67 94.95 255.61 94.96 255.54 94.97L255.37 94.97 255.07 95.05 254.78 94.97 254.65 95.12 254 95.16 253.62 95.29C253.52 95.41 253.42 95.46 253.32 95.46 253.28 95.46 253.24 95.46 253.21 95.45 253.17 95.43 253.12 95.41 253.05 95.39 253.04 95.43 253.03 95.45 253.02 95.47 253 95.49 252.99 95.51 252.98 95.54L252.88 95.54C252.81 95.54 252.73 95.55 252.65 95.56 252.56 95.57 252.48 95.65 252.39 95.79 252.31 95.79 252.26 95.78 252.24 95.77L252.14 96.05 251.52 95.58 251.34 95.39 251.4 95.27 251.29 95.27C251.24 95.19 251.21 95.1 251.21 95.03L251.21 94.91 251.31 94.57 251.4 94.48C251.45 94.44 251.5 94.4 251.55 94.37 251.6 94.34 251.66 94.32 251.72 94.32L251.8 94.32 251.91 94.15 252.18 94.23C252.24 94.17 252.32 94.12 252.4 94.1 252.48 94.07 252.56 94.06 252.64 94.06L252.71 94.06C252.71 94.01 252.75 93.93 252.83 93.83L253.15 93.83 253.28 93.75 253.55 93.72 253.78 93.93 253.76 93.75 254 93.75 254.23 93.7 254.78 93.58 254.97 93.6C255.2 93.54 255.43 93.51 255.66 93.51L255.87 93.51 255.81 93.56 255.89 93.56C255.97 93.56 256.06 93.58 256.13 93.62L256.3 93.56 256.66 93.6 256.88 93.6C256.99 93.6 257.08 93.6 257.14 93.58L257.27 93.58 257.27 93.7 257.65 93.83 258.11 93.94 258.32 94.25 258.64 94.5C258.75 94.65 258.84 94.8 258.91 94.94 258.97 95.09 258.98 95.29 258.94 95.54L258.85 95.92 258.85 95.96C258.82 96.02 258.77 96.14 258.68 96.3 258.53 96.55 258.32 96.72 258.05 96.81L257.9 96.97 257.48 97.14 257.12 97.21 256.87 97.4 256.21 97.48 255.94 97.61 255.62 97.61 255.24 97.74 255.64 97.88 256.09 97.88 256.3 97.86 256.8 97.86C256.97 97.86 257.1 97.9 257.18 97.99 257.28 98.02 257.38 98.04 257.49 98.06 257.6 98.08 257.72 98.09 257.86 98.09L257.98 98.18C257.99 98.18 258 98.17 258.01 98.16 258.03 98.16 258.04 98.17 258.06 98.17 258.08 98.18 258.12 98.18 258.18 98.18L258.56 98.22 258.81 98.43 259 98.43 259.4 98.73zM274.01 96.55L273.8 96.7 273.97 97.04 273.32 97.42 273.25 97.42C273.18 97.42 273.12 97.4 273.04 97.36L272.83 97.52 272.55 97.5 272.22 97.73 271.94 97.57 271.56 97.67 271.2 97.86C271.2 97.85 271.17 97.84 271.12 97.84 271.04 97.84 270.99 97.86 270.97 97.92L270.82 98.33C270.88 98.4 270.91 98.46 270.91 98.52 270.91 98.61 270.89 98.69 270.84 98.75L270.8 98.88 270.87 98.9C270.87 98.99 270.86 99.08 270.83 99.16 270.79 99.24 270.76 99.31 270.72 99.38 270.76 99.45 270.79 99.52 270.81 99.58 270.83 99.63 270.85 99.68 270.87 99.72L270.7 99.83 270.72 100.4 270.57 101.22 270.55 101.39C270.56 101.46 270.57 101.51 270.58 101.54 270.59 101.58 270.59 101.61 270.59 101.64L270.59 101.72 270.66 101.87 270.68 102.15C270.67 102.18 270.66 102.21 270.65 102.25 270.63 102.29 270.61 102.34 270.59 102.4 270.58 102.58 270.49 102.71 270.32 102.81 270.16 102.9 269.93 102.96 269.64 102.97L269.6 102.61 269.47 102.42 269.37 102.13 269.37 101.58 269.24 101.24 269.28 101.22 269.24 100.97 269.24 100.58 269.28 99.97 269.26 99.42 269.37 99.09 269.37 98.73C269.37 98.67 269.38 98.59 269.41 98.49 269.44 98.4 269.45 98.32 269.45 98.26 269.45 98.17 269.42 98.07 269.35 97.97L269.32 97.92 269.26 97.95 269.03 97.9C268.93 97.92 268.83 97.94 268.74 97.95 268.64 97.97 268.54 97.97 268.44 97.97L268.27 97.97C268.22 97.97 268.18 97.97 268.16 97.95L267.91 98.16 267.4 98.09C267.29 98.07 267.21 98.06 267.13 98.06 267.05 98.05 267 98.05 266.96 98.05 266.78 98.05 266.57 98.09 266.33 98.16L266.26 98.16 265.84 98.31 265.57 98.14 265.14 98.22 265.1 98.18 265.02 98.22 264.68 98.2 264.64 98.33 264.15 98.16 263.71 98.2 263.71 98.81 263.67 99.17 263.75 99.47 263.62 99.72 263.73 99.93 263.62 100.61 263.69 100.82 263.65 101.2 263.82 101.51 263.73 101.66 263.77 101.85C263.74 102.08 263.6 102.19 263.33 102.19 263.1 102.19 262.91 102.09 262.76 101.9 262.61 101.7 262.53 101.41 262.53 101.03L262.29 100.75 262.19 100.56C262.19 100.49 262.2 100.43 262.23 100.38 262.25 100.32 262.28 100.26 262.3 100.21L262.34 99.95 262.29 99.8 262.19 98.56 262.19 98.35 262.17 98.3 261.72 97.97 261.77 97.23 262.27 96.93C262.29 96.84 262.31 96.74 262.32 96.64 262.34 96.54 262.34 96.43 262.34 96.3 262.34 96.17 262.34 96.07 262.32 96 262.31 95.92 262.29 95.83 262.27 95.73L262.36 95.79 262.34 95.56 262.46 95.24 262.34 94.69 262.34 94.32 262.48 93.77 263.24 93.43 263.56 93.66 263.92 93.77 263.98 94.12 264.13 94.32 263.98 94.78C264 94.87 264.02 94.95 264.02 95.04 264.03 95.12 264.03 95.21 264.03 95.31 264.03 95.46 264.03 95.61 264.01 95.76 264 95.9 263.97 96.05 263.92 96.19L264.07 96.43 263.9 96.64 263.9 96.83 264.05 96.89 264.47 96.83 264.76 96.87 265.23 96.81 265.27 96.87C265.29 96.86 265.34 96.85 265.41 96.85L265.55 96.85C265.59 96.85 265.66 96.86 265.76 96.89L266.05 96.89C266.06 96.89 266.14 96.89 266.28 96.88 266.41 96.87 266.57 96.87 266.75 96.87L267.02 96.7 267.3 96.85 267.55 96.87 267.62 96.89C267.75 96.86 267.83 96.85 267.85 96.85L267.95 96.85 269.13 96.68 269.37 96.7 269.47 96.64 269.37 96.38 269.47 96.15 269.35 95.56 269.47 95.35 269.16 94.59 269.13 94.48 269.05 94.4C269.06 94.39 269.07 94.37 269.08 94.35 269.08 94.33 269.1 94.3 269.13 94.25 269.13 94.24 269.13 94.23 269.13 94.23 269.14 94.23 269.14 94.22 269.14 94.21L269.16 94.19 269.16 94.13C269.16 94.06 269.25 93.98 269.43 93.89L269.6 93.45 270.19 93.53 270.38 93.64 270.89 93.55 270.89 93.77 271.1 93.72 271.1 94.46 271.01 94.59 271.14 94.91 271.14 95.1 271.22 95.37 271.1 95.65 271.14 95.86 271.04 96.53 271.04 96.64 271.41 96.62 272.09 96.49 272.43 96.51 272.64 96.49 273.02 96.49C273.06 96.46 273.1 96.45 273.15 96.44 273.2 96.44 273.25 96.43 273.31 96.43 273.34 96.43 273.38 96.44 273.42 96.44 273.46 96.45 273.5 96.46 273.55 96.49L274.01 96.55zM276.78 100.18L276.93 100.77 277.06 100.58 277.48 100.08 278.07 99.8C278.13 99.64 278.24 99.53 278.38 99.44 278.53 99.36 278.67 99.29 278.81 99.23L279.91 98.22 280.43 97.61 280.88 97.29 280.9 97.19C280.93 97.09 280.99 97.04 281.09 97.03 281.19 97.03 281.28 97.01 281.34 96.98L281.72 96.41 281.78 96.3 282.48 95.88 283.22 94.89 283.52 94.72 283.62 94.48 283.89 94.34C283.95 94.23 284.06 94.1 284.22 93.96 284.38 93.82 284.52 93.72 284.66 93.66L284.82 93.83 284.99 93.79C285.27 93.82 285.4 93.91 285.39 94.08 285.42 94.14 285.44 94.21 285.44 94.29 285.44 94.35 285.41 94.43 285.35 94.51L285.27 95.45 285.2 95.6 285.22 96.05 285.12 96.6 285.16 97.36 284.99 97.67 285.25 98.14 285.1 98.6 285.2 98.87 285.29 99.06 285.23 99.55 285.23 99.72C285.25 99.76 285.25 99.79 285.25 99.82L285.25 99.91 285.2 100.02 285.06 100.18C285.08 100.2 285.08 100.25 285.08 100.33 285.08 100.39 285.07 100.44 285.05 100.47 285.03 100.5 285.02 100.53 285.01 100.56L285.12 100.8 284.97 101.07 285.12 101.62C285.08 101.85 284.98 102.02 284.81 102.13 284.64 102.25 284.45 102.3 284.25 102.3L283.9 102.3C283.84 102.2 283.78 102.1 283.72 101.99 283.67 101.88 283.63 101.77 283.62 101.64 283.62 101.59 283.64 101.53 283.68 101.47L283.49 101.2 283.62 100.97 283.6 100.65 283.66 100.29 283.49 99.72 283.66 99.68C283.63 99.63 283.62 99.58 283.63 99.52 283.63 99.46 283.64 99.4 283.64 99.34 283.64 99.21 283.68 99.11 283.77 99.04L283.83 98.81 283.66 98.01 283.71 97.54 283.62 96.85 283.77 96.68 283.83 96.32 283.89 96.03 283.79 96.02 283.32 96.66 282.95 96.93 282.75 97.17C282.64 97.31 282.53 97.45 282.4 97.57 282.28 97.7 282.14 97.81 282 97.92L281.8 98.22 281.49 98.3 280.96 99.06 280.24 99.64 279.93 99.95 279.71 100.08 279.4 100.35 278.95 100.58 278.87 100.73 277.5 101.73 277.41 101.75 277.27 102C277.21 102.01 277.14 102.04 277.07 102.09 277 102.13 276.93 102.16 276.86 102.17L276.76 102.25 276.74 102.25 276.74 102.38 275.68 102.65 275.49 102.4 275.2 102.19 275.53 101.85 275.34 101.15 275.39 101.09 275.3 100.88 275.68 100.69 275.39 100.33 275.64 99.93 275.56 99.59 275.58 99.34 275.49 98.81 275.64 98.62 275.49 98.01 275.62 97.84 275.41 97.54 275.53 96.79 275.49 96.72C275.39 96.63 275.33 96.33 275.32 95.81L275.3 95.75 275.35 95.39 275.3 95.16C275.32 95.06 275.38 94.95 275.47 94.84 275.53 94.82 275.56 94.79 275.56 94.72 275.56 94.66 275.58 94.59 275.62 94.52 275.66 94.45 275.66 94.37 275.64 94.27L276.25 94.19 276.34 94.02 277.29 94.38 277.18 94.55 277.39 94.74 277.16 94.88 277.37 95.48 277.1 95.69 277.1 96.6 276.97 97.12 277.14 97.74 276.86 97.99 276.86 98.05 277.03 98.3 277.01 99.15 276.93 99.21 277.06 99.51 276.78 100.18z"/>
    <path fill="#B92020" fill-rule="nonzero" stroke="#BB1D18" stroke-linecap="square" d="M108.5 58.5L299 58.5"/>
    <path fill="#B91F21" d="M30.51 65L4.8 65C5.4 64.12 5.78 63.12 5.96 62 6.07 61.34 6.12 60.41 6.12 59.2L6.12 21.36C6.12 20.18 6.07 19.25 5.96 18.59 5.76 17.43 5.37 16.42 4.8 15.56L14.29 15.56C13.11 17.67 12.52 19.6 12.52 21.36L12.52 58.61 24.71 58.61C26.47 58.61 28.4 58.01 30.51 56.83L30.51 65ZM29.72 64.21L29.72 58.14C28.05 58.98 26.38 59.4 24.71 59.4L11.72 59.4 11.72 21.36C11.72 19.69 12.14 18.02 12.98 16.35L6.19 16.35C6.43 16.81 6.61 17.42 6.73 18.18 6.85 18.94 6.91 20 6.91 21.36L6.91 59.2C6.91 60.45 6.88 61.43 6.81 62.13 6.75 62.84 6.54 63.53 6.19 64.21L29.72 64.21ZM37.6 22.45C37.6 21.51 37.93 20.69 38.59 20.01 39.25 19.33 40.06 18.99 41.03 18.99 41.98 18.99 42.78 19.32 43.45 19.99 44.12 20.66 44.46 21.48 44.46 22.45 44.46 23.39 44.12 24.2 43.45 24.87 42.78 25.54 41.98 25.88 41.03 25.88 40.06 25.88 39.25 25.54 38.59 24.87 37.93 24.2 37.6 23.39 37.6 22.45ZM33.38 64.08C35.73 63.86 37.22 63.46 37.83 62.87 38.45 62.29 38.76 60.72 38.76 58.14L38.76 42.42C38.76 40.99 38.66 40.01 38.46 39.46 38.13 38.56 37.44 38.11 36.38 38.11 36.14 38.11 35.91 38.13 35.67 38.17 35.44 38.22 34.78 38.39 33.68 38.7L33.68 37.68 35.1 37.22C38.94 35.96 41.62 35.02 43.14 34.38 43.75 34.12 44.15 33.99 44.33 33.99 44.37 34.14 44.39 34.3 44.39 34.48L44.39 58.14C44.39 60.65 44.69 62.22 45.3 62.86 45.9 63.49 47.27 63.9 49.4 64.08L49.4 65 33.38 65 33.38 64.08ZM52.64 64.08C54.97 63.97 56.5 63.53 57.24 62.78 57.97 62.02 58.34 60.42 58.34 57.98L58.34 36.82 52.7 36.82 52.7 34.61 58.34 34.61C58.34 31.14 58.81 28.21 59.76 25.81 61.56 21.22 64.87 18.92 69.68 18.92 71.61 18.92 73.34 19.31 74.87 20.08 76.4 20.85 77.16 21.88 77.16 23.18 77.16 23.9 76.9 24.55 76.37 25.12 75.84 25.69 75.2 25.98 74.46 25.98 73.82 25.98 73.27 25.78 72.81 25.4 72.35 25.02 71.8 24.34 71.16 23.37L70.6 22.52C70.29 22.05 69.93 21.66 69.51 21.35 69.09 21.03 68.51 20.87 67.77 20.87 66.1 20.87 64.96 21.69 64.37 23.34 64.04 24.22 63.88 25.37 63.88 26.8L63.88 34.61 72.15 34.61 72.15 36.82 63.94 36.82 63.94 57.98C63.94 60.46 64.28 62.05 64.95 62.74 65.62 63.43 67.37 63.88 70.2 64.08L70.2 65 52.64 65 52.64 64.08ZM89.75 34.08C92.85 34.08 95.57 35.16 97.9 37.3 100.22 39.44 101.39 42.48 101.39 46.41L80.46 46.41C80.68 51.51 81.83 55.22 83.92 57.55 86.01 59.88 88.48 61.04 91.34 61.04 93.64 61.04 95.59 60.44 97.17 59.23 98.75 58.02 100.21 56.31 101.55 54.09L102.71 54.49C101.81 57.28 100.12 59.86 97.65 62.23 95.18 64.6 92.15 65.79 88.57 65.79 84.44 65.79 81.25 64.23 78.99 61.11 76.74 57.99 75.62 54.4 75.62 50.33 75.62 45.92 76.92 42.1 79.54 38.9 82.15 35.69 85.56 34.08 89.75 34.08ZM87.84 36.49C85.34 36.49 83.43 37.6 82.11 39.82 81.41 41.01 80.9 42.5 80.59 44.3L94.5 44.3C94.26 42.1 93.84 40.47 93.25 39.39 92.17 37.46 90.37 36.49 87.84 36.49Z"/>
    <path fill="#000" d="M42.3 71.63C42.11 72.57 41.37 73.23 40.05 73.61 39.26 73.81 37.88 74.16 35.88 74.66 34.15 75.1 32.91 75.72 32.13 76.52 34.65 77.14 36.21 77.57 36.84 77.81 39.04 78.63 40.14 79.58 40.14 80.66 40.14 82.22 38.83 83.68 36.21 85.04 33.88 86.22 31.87 86.81 30.15 86.81 28.72 86.81 27.43 86.26 26.25 85.16 24.96 83.96 24.37 82.68 24.48 81.32L24.51 80.87C25.07 81.07 25.87 81.91 26.94 83.39 27.94 84.77 28.81 85.46 29.58 85.46 30.88 85.46 32.55 85.02 34.62 84.14 37 83.12 38.19 82.06 38.19 80.96 38.19 80.18 37.49 79.58 36.09 79.16 36.02 79.16 34.54 78.78 31.62 78.02 29.99 77.6 28.94 77.11 28.44 76.55 29.04 75.89 30.22 75.19 32.01 74.45 33.15 73.97 34.84 73.39 37.1 72.71 39.55 71.97 40.98 71.52 41.43 71.36 41.69 71.5 41.97 71.59 42.3 71.63zM56.22 67.97C56.22 68.47 56.05 69.03 55.71 69.65 55.56 69.91 54.96 70.76 53.88 72.2 54.38 72.54 54.88 72.87 55.41 73.19 55.97 73.65 56.22 74.17 56.16 74.75L56.13 75.08C56.1 75.08 55.65 74.94 54.75 74.66 54.16 74.48 53.72 74.39 53.4 74.39 52.29 74.39 50.71 75.54 48.64 77.86 46.57 80.17 45.54 81.89 45.54 83.03 45.54 84.01 46.41 84.72 48.18 85.16 49.3 85.44 50.55 85.58 51.96 85.58 52.5 85.58 53.04 85.54 53.61 85.46 53.58 85.56 53.67 85.74 53.88 86 52.61 86.48 51.37 86.72 50.13 86.72 45.62 86.72 43.38 85.62 43.38 83.42 43.38 82.12 44.5 80.21 46.77 77.69L49.35 74.81 48.3 74.75C47.85 74.73 47.27 74.85 46.53 75.11 45.06 75.63 44.21 75.89 43.95 75.89 43.6 75.89 43.29 75.79 43 75.58 42.71 75.36 42.57 75.1 42.57 74.78 42.57 74 43.45 73.61 45.24 73.61 45.42 73.61 45.67 73.62 46.02 73.64 46.36 73.66 46.61 73.67 46.8 73.67 48.32 73.67 49.57 73.41 50.56 72.89 51.55 72.37 52.42 71.47 53.19 70.19 53.45 69.75 54.05 68.51 55.02 66.47 55.28 66.47 55.54 66.65 55.81 67.01 56.08 67.37 56.22 67.69 56.22 67.97zM72 74.12C72 74.88 71.4 75.98 70.19 77.42 69.55 78.16 68.44 79.5 66.83 81.44 65.63 82.92 65.04 84.14 65.04 85.1 65.04 85.36 65.07 85.58 65.16 85.76 63.63 86.18 62.21 87.4 60.87 89.42L56.37 96.26C56.08 96.2 55.56 95.92 54.78 95.42 55.1 94.76 55.81 93.72 56.94 92.3 57.52 91.62 58.36 90.59 59.49 89.21 60.43 88.03 60.9 87.25 60.9 86.87 60.9 86.29 60.44 86 59.52 86L58.92 86C57.99 85.9 57.33 85.12 56.91 83.66 56.62 82.68 56.49 81.56 56.49 80.3 56.49 78.9 56.63 77.26 56.94 75.38 58.16 75.38 58.77 76.36 58.77 78.32 58.77 78.68 58.73 79.21 58.66 79.91 58.59 80.61 58.56 81.14 58.56 81.5 58.56 83.94 59.61 85.16 61.74 85.16 62.4 85.16 63.35 84.26 64.61 82.46 64.98 81.94 66.11 80.13 68.04 77.03 69.4 74.83 70.41 73.42 71.1 72.8 71.24 72.9 71.42 73.11 71.65 73.43 71.88 73.75 72 73.98 72 74.12zM83.01 66.62C83.01 66.74 82.34 68.03 81 70.49L77.1 77.66C75.47 80.66 74.59 82.4 74.43 82.88L73.83 84.8C73.48 85.6 73.05 86 72.51 86 72.2 86 71.87 85.93 71.49 85.79L71.16 85.25C71.38 84.21 72.12 82.64 73.41 80.54L77.22 74.27C78.7 71.85 79.66 69.82 80.13 68.18 80.21 67.84 80.37 67.24 80.64 66.38 80.88 65.78 81.26 65.33 81.81 65.03 82.11 65.07 82.38 65.26 82.63 65.61 82.88 65.97 83.01 66.3 83.01 66.62zM95.34 84.02C94.73 84.68 93.32 85.18 91.08 85.52 89.49 85.76 87.89 85.88 86.25 85.88 82.86 85.88 81.18 84.91 81.18 82.97 81.18 80.59 82.93 78.55 86.46 76.85 87.68 76.25 88.94 75.76 90.27 75.38 91.55 75.68 92.39 75.9 92.82 76.04 93.72 76.34 94.17 77.09 94.17 78.29 94.17 79.35 93.49 80.19 92.13 80.81 90.98 81.33 89.83 81.59 88.65 81.59 86.8 81.59 85.49 81.31 84.69 80.75 83.68 81.23 83.19 81.85 83.19 82.61 83.19 83.95 84.4 84.62 86.85 84.62 87.75 84.62 88.79 84.56 90 84.44 92.82 84.16 94.59 84.02 95.34 84.02zM92.25 78.26C91.64 77.62 90.92 77.3 90.06 77.3 89.43 77.3 88.88 77.43 88.38 77.69 88.35 77.71 87.85 77.99 86.85 78.53 87.45 79.49 88.26 79.97 89.31 79.97 90.49 79.97 91.46 79.4 92.25 78.26zM53.69 97.42C53.69 97.86 53.48 98.5 53.06 99.34 52.64 100.18 52.26 100.76 51.9 101.09 51.92 101.25 51.93 101.35 51.94 101.39 51.97 101.48 52.01 101.58 52.07 101.68 51.97 102.06 51.72 102.25 51.31 102.25 51.1 102.25 50.91 102.18 50.73 102.06 50.56 101.93 50.48 101.77 50.48 101.56 50.48 101.2 50.8 100.57 51.45 99.68 52.09 98.8 52.42 98.18 52.42 97.84 52.42 97.19 52.09 96.87 51.43 96.87 50.55 96.87 49.71 97.28 48.88 98.09 48.46 98.53 47.7 99.31 46.58 100.44 45.7 101.34 44.84 101.86 44.02 102L44.02 101.83 43.85 101.64C43.85 100.97 44.47 99.89 45.71 98.41 46.42 97.56 46.87 96.95 47.08 96.57 47.19 96.24 47.32 95.91 47.46 95.58 47.57 95.32 47.68 95.15 47.79 95.05 47.9 94.94 48.07 94.89 48.31 94.89 48.67 94.89 48.84 95.08 48.84 95.45 48.84 95.7 48.81 95.9 48.75 96.05 48.74 96.1 48.6 96.45 48.33 97.08 49.42 96.5 50.04 96.17 50.19 96.11 51.05 95.69 51.69 95.48 52.09 95.48 52.57 95.48 52.96 95.68 53.25 96.08 53.54 96.48 53.69 96.93 53.69 97.42zM65.24 98.45C65.24 99.64 64.38 100.57 62.66 101.24 61.35 101.75 59.98 102 58.53 102 55.51 102 53.99 101.25 53.99 99.76 53.99 98.69 54.98 97.66 56.96 96.66 58.72 95.77 60.2 95.33 61.4 95.33 62.47 95.33 63.35 95.58 64.04 96.07 64.84 96.63 65.24 97.42 65.24 98.45zM64.2 98.33C64.2 97.71 63.88 97.24 63.25 96.93 62.74 96.67 62.14 96.55 61.46 96.55 60.32 96.55 59.14 96.86 57.91 97.5 56.61 98.14 55.69 98.93 55.13 99.87 55.99 100.75 57.03 101.18 58.23 101.18 59.38 101.18 60.57 100.97 61.78 100.56 63.39 100 64.2 99.26 64.2 98.33zM74.13 90.58C74.13 90.9 74.03 91.25 73.81 91.65 73.72 91.81 73.34 92.35 72.65 93.26 72.97 93.48 73.29 93.68 73.62 93.89 73.97 94.18 74.13 94.51 74.1 94.88L74.08 95.08C74.06 95.08 73.77 95 73.2 94.82 72.83 94.7 72.55 94.65 72.35 94.65 71.65 94.65 70.65 95.38 69.34 96.84 68.02 98.3 67.37 99.4 67.37 100.12 67.37 100.74 67.93 101.19 69.04 101.47 69.75 101.65 70.55 101.73 71.44 101.73 71.78 101.73 72.13 101.71 72.48 101.66 72.47 101.72 72.52 101.84 72.65 102 71.85 102.3 71.06 102.46 70.28 102.46 67.43 102.46 66 101.76 66 100.37 66 99.54 66.72 98.33 68.15 96.74L69.78 94.91 69.12 94.88C68.84 94.86 68.46 94.94 68 95.1 67.07 95.43 66.53 95.6 66.36 95.6 66.15 95.6 65.95 95.53 65.76 95.4 65.58 95.26 65.49 95.1 65.49 94.89 65.49 94.4 66.05 94.15 67.18 94.15 67.29 94.15 67.46 94.16 67.67 94.17 67.89 94.18 68.05 94.19 68.17 94.19 69.13 94.19 69.92 94.03 70.55 93.7 71.18 93.37 71.73 92.8 72.21 91.99 72.38 91.71 72.76 90.92 73.37 89.63 73.54 89.63 73.71 89.74 73.88 89.97 74.05 90.2 74.13 90.4 74.13 90.58zM83.37 100.75C82.99 101.16 82.09 101.48 80.67 101.7 79.67 101.85 78.65 101.92 77.61 101.92 75.47 101.92 74.4 101.31 74.4 100.08 74.4 98.57 75.51 97.28 77.74 96.21 78.52 95.82 79.32 95.51 80.16 95.27 80.97 95.46 81.5 95.6 81.77 95.69 82.34 95.88 82.63 96.36 82.63 97.12 82.63 97.79 82.2 98.32 81.33 98.71 80.61 99.04 79.88 99.21 79.13 99.21 77.96 99.21 77.13 99.03 76.62 98.68 75.99 98.98 75.67 99.37 75.67 99.85 75.67 100.7 76.44 101.13 77.99 101.13 78.56 101.13 79.22 101.09 79.99 101.01 81.77 100.83 82.9 100.75 83.37 100.75zM81.41 97.1C81.03 96.69 80.57 96.49 80.02 96.49 79.63 96.49 79.28 96.57 78.96 96.74 78.95 96.75 78.62 96.93 77.99 97.27 78.37 97.88 78.89 98.18 79.55 98.18 80.3 98.18 80.92 97.82 81.41 97.1zM95.17 92.9C95.05 93.49 94.58 93.91 93.74 94.15 93.25 94.28 92.37 94.5 91.1 94.82 90.01 95.1 89.22 95.49 88.73 96 90.32 96.39 91.32 96.66 91.71 96.81 93.1 97.33 93.8 97.93 93.8 98.62 93.8 99.61 92.97 100.53 91.31 101.39 89.84 102.14 88.56 102.51 87.47 102.51 86.57 102.51 85.75 102.16 85 101.47 84.19 100.71 83.82 99.9 83.88 99.04L83.9 98.75C84.25 98.88 84.77 99.41 85.44 100.35 86.07 101.22 86.63 101.66 87.11 101.66 87.93 101.66 89 101.38 90.3 100.82 91.81 100.18 92.56 99.5 92.56 98.81 92.56 98.31 92.12 97.93 91.23 97.67 91.19 97.67 90.25 97.43 88.4 96.95 87.38 96.68 86.7 96.37 86.39 96.02 86.77 95.6 87.52 95.15 88.65 94.69 89.37 94.38 90.45 94.01 91.88 93.58 93.42 93.11 94.34 92.83 94.62 92.73 94.78 92.82 94.96 92.87 95.17 92.9z"/>
  </g>
</svg>
