<svg height="90" viewBox="0 0 296 90" width="296" xmlns="http://www.w3.org/2000/svg"><g fill="none" fill-rule="evenodd" transform="translate(-4 -15)"><path d="m136.27 27.12v4.48c0 .29-.19.4-.35.4h-27.21c-.16 0-.32-.11-.32-.32v-2.42c0-.12.09-.28.41-.28h3.47v-5.96h-3.53c-.19 0-.32-.12-.32-.28v-2.47c0-.16.13-.27.37-.27h15.13c.24 0 .43.11.43.43v2.27c0 .2-.11.32-.32.32h-3.61v5.96h9.26v-1.83c0-.16.08-.48.35-.48h5.84c.21 0 .4.13.4.45zm11.11 2.43h2.72c.13 0 .21.1.21.18v2.11c0 .13-.08.16-.21.16h-12.28c-.1 0-.16-.14-.16-.22v-2.07c0-.09.11-.16.19-.16h2.83v-3.61h-2.74c-.17 0-.28-.05-.28-.16v-2c0-.2.09-.31.25-.31h9.27c.12 0 .2.08.2.16zm-5.87-9.55h5.03c.17 0 .3.06.3.24v2.21c0 .09-.06.21-.22.21h-5.12c-.13 0-.21-.02-.21-.13v-2.39c0-.06.08-.14.22-.14zm20.6 3.58h2.24c.14 0 .24.05.24.18v2.1c0 .08-.08.14-.19.14h-2.96v3.54h2.96c.12 0 .2.06.2.22v2.08c0 .08-.04.16-.2.16h-12.56c-.1 0-.16-.1-.16-.26v-2.04c0-.1.09-.16.22-.16h2.8v-3.54h-2.8c-.11 0-.21-.02-.21-.16v-2.08c0-.11.15-.18.26-.18h2.75v-.81c0-1.28 1.2-2.77 3.04-2.77h5.86c.64 0 2.25.14 2.25 1.54 0 1.28-1.9 1.4-2.41 1.4-.8 0-1.48-.12-1.99-.56-.09-.11-.33-.22-.48-.22-.24 0-.48.21-.48.54 0 .36.13.88 1.62.88zm17.2 8.45h-1.76c-3.12 0-10.32-.25-10.32-4.32 0-4.08 7.65-4.29 8.48-4.29h3.04c3.47 0 8.47 1.46 8.47 4.08v.29c0 .08-.1.13-.36.13h-12.19c.13 1.26 1.81 1.68 3.35 1.68h1.58c1.41 0 2.59-.16 3.36-.94.06-.05.13-.08.18-.08h3.76c.14 0 .17.14.16.19-.4.85-1.75 3.26-7.75 3.26zm-4.43-5.45h5.1c-.33-.48-.96-1.01-2.4-1.01-1.87 0-2.36.49-2.7 1.01zm32.04-5.67.21-.72c.03-.13.17-.17.3-.17h4.38c.31 0 .42.22.42.33v2.93c0 .11-.08.19-.21.19h-5.29c-.07 0-.15 0-.18-.08-.53-.91-2.27-1.12-2.78-1.12h-4.92c-.4 0-1.58.05-1.58.8 0 .8 1.92.77 2.56.77l3.06.03c1.58 0 5.26.31 6.22.51.93.23 4.29.88 4.29 3.44 0 3.67-6.59 4.18-8.88 4.18h-4.34c-1.81 0-3.73-.56-4.86-1.09l-.1.93c-.03.13-.13.16-.24.16h-5.44c-.11 0-.16-.06-.16-.19v-3.27c0-.08.05-.19.18-.19h5.71c.13 0 .21.07.24.18.32 1.05 2.91 1.12 3.09 1.12h5.77c.18 0 1.14-.1 1.14-.63 0-.6-.9-.78-1.12-.78l-4.64-.03c-1.23 0-4.93-.39-6.4-.8-2.62-.75-3.89-2.23-3.89-3.36 0-1.6 1.75-2.55 2.63-3.01 1.1-.62 3.24-1.04 5.84-1.04h4.4c2.22 0 3.77.54 4.59.91zm11.07 8.71v-3.7h-2.73c-.18 0-.29-.06-.29-.16v-1.89c0-.19.1-.29.26-.29h.97c2.71 0 3.94-.8 4.53-3.18.03-.16.14-.32.24-.32h3.33c.16 0 .29.08.29.24v3.26h2.97c.21 0 .48.04.48.31v1.76c0 .11-.16.27-.35.27h-3.1v2.27c0 .47.4 1.35 1.31 1.35.99 0 1.5-.66 1.79-1.75.03-.16.08-.37.27-.37h1.83c.16 0 .2.08.2.24 0 .79-.72 4.34-4.73 4.34h-4.18c-.59 0-3.09-.43-3.09-2.38zm22.89 4.96h-2.51c-.95 0-6.35-.12-6.35-2.24 0-1.48 2.09-1.92 2.7-1.92.82 0 2.82.16 3.94 1.66.17.03.57.03.67.03.48 0 .67-.25.67-.49 0-.29-.1-.44-.26-.61l-4.99-5.12h-3.1c-.18 0-.29-.07-.29-.16v-1.95c0-.2.11-.31.27-.31h13.06c.13 0 .22.08.22.16v2.02c0 .11-.03.24-.09.24h-2.32l2.59 2.65 2.64-2.65h-2.05c-.11 0-.14-.08-.14-.16v-2.11c0-.07.08-.15.16-.15h9.02c.08 0 .16.05.16.11v2.1c0 .08-.06.21-.1.21h-2.7l-6.96 6.85c-.19.19-2.1 1.84-4.24 1.84zm25.09-5.04h2.67c.2 0 .26.11.26.27v1.89c0 .12-.08.3-.4.3h-11.81c-.16 0-.38-.11-.38-.35v-1.71c0-.16.05-.4.33-.4h2.63v-7.08h-2.71c-.17 0-.3-.06-.3-.16v-2c0-.2.13-.3.27-.3h9.2c.15 0 .24.08.24.16zm16.69 2.49h-1.76c-3.12 0-10.32-.25-10.32-4.32 0-4.08 7.65-4.29 8.48-4.29h3.04c3.48 0 8.47 1.46 8.47 4.08v.29c0 .08-.1.13-.35.13h-12.2c.13 1.26 1.81 1.68 3.35 1.68h1.58c1.41 0 2.59-.16 3.36-.94.07-.05.13-.08.18-.08h3.76c.14 0 .17.14.16.19-.4.85-1.75 3.26-7.75 3.26zm-4.43-5.45h5.11c-.34-.48-.96-1.01-2.4-1.01-1.88 0-2.37.49-2.71 1.01zm-133.28 9.42h14.21c.16 0 .33.08.49.19l8.23 6.96v-4.13h-3.52c-.24 0-.37-.08-.37-.2v-2.47c0-.19.11-.35.22-.35h11.43c.28 0 .35.24.35.4v2.34c0 .2-.16.28-.37.28h-3.41v8.55c0 .27-.08.43-.29.43h-9.85c-.11 0-.29-.02-.4-.11l-9.01-7.63v4.72h3.7c.19 0 .4.08.4.24v2.43c0 .24-.13.35-.32.35h-11.67c-.16 0-.24-.11-.24-.32v-2.42c0-.12.08-.28.4-.28h3.47v-5.96h-3.58c-.11 0-.27-.04-.27-.28v-2.5c0-.16.16-.24.4-.24zm42.27 12.03h-2.38c-5.42 0-9.09-2.03-9.09-4.33 0-3.16 5.17-4.28 9.54-4.28h1.82c2.88 0 8.95 1.08 8.95 4.36 0 3.9-7.03 4.25-8.84 4.25zm-1.23-6.22c-1.34 0-2.77.7-2.77 1.93 0 1.14 1.2 1.94 2.77 1.94 1.47 0 2.83-.72 2.83-1.94 0-1.26-1.64-1.93-2.83-1.93zm14.78 3.81v-3.7h-2.74c-.18 0-.29-.06-.29-.16v-1.89c0-.19.1-.29.26-.29h.97c2.71 0 3.94-.8 4.53-3.18.03-.16.15-.32.24-.32h3.33c.16 0 .29.08.29.24v3.26h2.97c.21 0 .48.04.48.31v1.76c0 .11-.16.27-.35.27h-3.1v2.27c0 .47.4 1.35 1.31 1.35.99 0 1.5-.66 1.79-1.75.03-.16.08-.37.27-.37h1.83c.16 0 .21.08.21.24 0 .79-.72 4.34-4.74 4.34h-4.18c-.59 0-3.08-.43-3.08-2.38zm25.76 2.41h-1.76c-3.12 0-10.32-.25-10.32-4.32 0-4.08 7.65-4.29 8.48-4.29h3.04c3.47 0 8.46 1.46 8.46 4.08v.29c0 .08-.09.13-.35.13h-12.19c.13 1.26 1.81 1.68 3.34 1.68h1.59c1.41 0 2.59-.16 3.36-.94.06-.05.13-.08.17-.08h3.76c.15 0 .18.14.16.19-.4.85-1.74 3.26-7.74 3.26zm-4.43-5.45h5.1c-.33-.48-.96-1.01-2.4-1.01-1.87 0-2.37.49-2.7 1.01zm19.19 5.42h-4.74c-.09 0-.19-.14-.19-.22v-2.18c0-.1.11-.16.19-.16h5.49c.06 0 .18.08.22.18.21.49 1.51.76 2.66.76h1.65c.64 0 1.37-.12 1.37-.6 0-.52-.73-.58-.94-.58-.19 0-4.27-.24-4.64-.26-2.53-.14-5.92-.89-5.92-3.04 0-1.64 3.04-2.48 6.99-2.48h2.02c1.13 0 2.67.28 3.41.68.03-.15.09-.32.14-.48.02-.07.06-.16.18-.16h4.28c.1 0 .24.12.24.27v2.03c0 .08-.12.18-.22.18h-4.85c-.06 0-.11-.04-.19-.12-.18-.22-.56-.59-2.03-.59h-2.08c-1.04 0-1.46.13-1.46.61s.59.5 1.35.54c.44.02 4.64.13 5.37.16.29 0 4.82.13 4.82 2.69 0 2.18-4.08 2.8-6.47 2.8h-2.59c-1.05 0-2.73-.27-3.13-.51-.26.16-.44.26-.6.37-.12.08-.22.11-.33.11zm-83.09 24.55-.21.15.18.34-.65.38h-.08c-.06 0-.13-.02-.21-.06l-.2.16-.29-.02-.32.22-.29-.15-.38.1-.36.19c0-.01-.02-.02-.07-.02-.08 0-.13.02-.16.08l-.15.41c.06.07.1.13.1.19 0 .09-.03.17-.08.23l-.04.13.08.02c0 .09-.02.18-.05.26s-.07.15-.1.22c.03.07.06.14.08.2.02.05.04.1.07.14l-.17.11.02.57-.16.82-.01.17c.01.07.02.12.02.15.01.04.01.07.01.1v.08l.08.15.02.28c-.01.03-.03.06-.04.1s-.03.09-.06.15c-.01.18-.1.31-.26.41-.17.09-.4.15-.69.16l-.03-.36-.14-.19-.09-.29v-.55l-.14-.34.04-.02-.04-.25v-.39l.04-.61-.02-.55.12-.33v-.36c0-.06.01-.14.04-.24.02-.09.03-.17.03-.23 0-.09-.03-.19-.09-.29l-.04-.05-.06.03-.22-.05c-.11.02-.2.04-.3.05-.09.02-.19.02-.29.02h-.17c-.06 0-.09 0-.12-.02l-.25.21-.51-.07c-.1-.02-.19-.03-.26-.03-.08-.01-.14-.01-.18-.01-.17 0-.38.04-.62.11h-.08l-.42.15-.26-.17-.44.08-.04-.04-.07.04-.35-.02-.03.13-.5-.17-.43.04v.61l-.04.36.07.3-.13.25.11.21-.11.68.08.21-.04.38.17.31-.1.15.04.19c-.02.23-.17.34-.43.34-.23 0-.42-.1-.57-.29-.16-.2-.23-.49-.23-.87l-.25-.28-.09-.19c0-.07.01-.13.03-.18.03-.06.05-.12.08-.17l.04-.26-.06-.15-.09-1.24v-.21l-.02-.05-.46-.33.06-.74.49-.3c.03-.09.05-.19.06-.29s.02-.21.02-.34-.01-.23-.02-.3c-.01-.08-.03-.17-.06-.27l.1.06-.02-.23.11-.32-.11-.55v-.37l.13-.55.76-.34.32.23.36.11.06.34.15.21-.15.46c.03.09.04.17.05.26.01.08.01.17.01.27 0 .15-.01.3-.02.45-.01.14-.05.29-.1.43l.16.24-.17.21v.19l.15.06.42-.06.28.04.48-.06.03.06c.03-.01.08-.02.15-.02h.14c.04 0 .11.01.21.04h.28c.01 0 .09 0 .23-.01s.3-.01.48-.01l.26-.17.29.15.24.02.08.02c.13-.03.2-.04.23-.04h.09l1.18-.17.25.02.09-.06-.09-.26.09-.23-.11-.59.11-.21-.3-.76-.04-.11-.08-.08c.02-.01.03-.03.03-.05.01-.02.02-.05.05-.1 0-.01 0-.02.01-.02s.01-.01.01-.02l.02-.02v-.06c0-.07.09-.15.26-.24l.18-.44.58.08.19.11.52-.09v.22l.21-.05v.74l-.1.13.13.32v.19l.08.27-.11.28.03.21-.09.67v.11l.36-.02.68-.13.35.02.21-.02h.38c.03-.03.08-.04.13-.05.05 0 .1-.01.15-.01.04 0 .08.01.11.01.04.01.09.02.14.05zm7.49 1-.12.35c0 .33-.02.58-.05.78l-.12.18v.21l-.09.14-.06.26-.21.21-.13.48-.15.05-.08.21-.23.14-.15.32-.23.11-.02.23-.36.13c-.16.23-.37.38-.61.44l-.07.02c-.18.27-.41.4-.71.4-.12.08-.27.11-.43.11l-.19.14-.19.05-.25.19-.25-.02-.26.08-.33-.13-.81-.06-.29-.44-.42-.43.1-.31-.29-.64.14-.25-.1-.46.1-.28c-.03-.18-.04-.31-.04-.38 0-.24.06-.42.19-.53.01-.13.09-.34.25-.63h.09l-.04-.13.06-.27v-.28c.1-.12.16-.19.17-.23l-.06-.27v-.07c.09-.18.14-.37.14-.56l.4-.55.04-.03c.04-.03.06-.06.09-.08l-.02-.08h.08l.28-.32.02-.44.48-.17c.17-.11.29-.3.34-.57h.24c.14-.07.27-.11.38-.11.12 0 .23.02.33.07l.21.02.49-.19.27.25.21.13h.15l.28.16h.15c.17.15.36.36.57.62l.04.1.14.07.39.52.37.89v.19zm-1.26.46-.02-.09c-.09-.09-.14-.19-.15-.29l.06-.09-.17-.37.04-.36-.08-.09c-.17-.13-.25-.23-.27-.31-.11-.05-.17-.17-.17-.38l-.11-.01-.23-.38-.17-.14-.4-.15-.15-.04c-.08 0-.13-.02-.15-.07l-.38.41-.25.54-.4.21-.06.2-.19.1-.07.49-.23.12c-.05.17-.08.34-.08.49l-.3.29.09.05c0 .16-.05.29-.17.4-.03.12-.09.24-.15.38v.15l-.06.08.02.23-.21.51.04.1v.53l-.07.26.02.27.17.25.26.09.1.04.15-.08.49.04.08-.19h.08c.07 0 .12.02.13.06l.17-.06.15.06.25-.17.04-.06.17-.04c.09-.14.29-.28.62-.41l.04-.1.38-.27.21-.3.31-.15.01-.1.1-.21v-.24l.23-.19.07-.14.1-.11c-.05-.15-.08-.26-.08-.32 0-.12.04-.24.12-.36zm5.95 2.13.03.21-.13.28.02.1.06.02.03.26.38.06.38-.13.35-.02c.07.05.13.08.16.08.03.01.07.01.12-.01l.31-.15.47.02.49-.15.42-.17.25.02.23-.19.21-.04c.07 0 .16-.01.26-.03s.21-.04.31-.07c.1-.02.19-.06.28-.1.09-.05.16-.1.21-.16l.15-.19.38-.12.12-.21.09-.09-.06-.04-.28-.04-.06-.09h-.09l-.4-.17-.32.04-.16-.14-.36.04c-.07-.08-.15-.12-.23-.13-.1.06-.19.09-.28.09-.06-.01-.16-.05-.29-.11-.1 0-.17-.01-.21-.01-.05-.01-.13-.02-.24-.03l-.21-.02c-.1-.02-.19-.02-.26 0-.07.03-.14.04-.22.04-.03 0-.08-.01-.14-.03-.05-.02-.11-.02-.18-.01l-.38.04-.26-.19-.02.11-.57-.02-.19-.07c-.21 0-.31.09-.31.28v.35l.1.05-.1.27.04.11-.04.25zm7.16-.44-.31.27-.07.22-.21.04-.23.35-.4.07-.34.25-.13.06-.27.28-.44-.04-.19.15-.24-.03c-.12.07-.21.14-.29.21-.07.06-.19.1-.34.13l-.13-.08-.5.36-.19-.09-.13.07-.3-.07-.12.07-.32.04-.25-.05-.3.26-.36-.04v.02c-.01.01-.08.04-.21.08l-.1-.12c-.16.13-.35.19-.57.19h-.09c-.04-.01-.07-.01-.1-.01l-.28.3-.32.09-.29-.15-.21-.17-.15-.17-.11-.09v-.14c0-.06-.06-.24-.18-.53l.02-.32-.03-.38.09-.29-.06-.38.14-.26-.08-.23.06-.38-.14-.42-.01-.06c-.38-.2-.6-.38-.65-.55.03-.14.08-.23.17-.27.09-.05.2-.11.34-.2l.19-.12-.11-.32.13-.06-.07-.26.05-.25-.09-.27.04-.13-.02-.23-.21-.41.04-.18-.1-.07.04-.23-.1-.13-.11-.25-.02-.02-.19.15-.19-.11-.19.11-.06-.07-.3.19-.17-.27-.34.21c-.59-.33-.88-.63-.88-.89 0-.23.12-.36.36-.4.13-.19.3-.29.52-.29h.05l.19.08h.04c.26 0 .48 0 .67.01.19 0 .34.02.45.05.1-.03.2-.05.28-.05.08-.01.16-.01.24-.01l.09.06.11-.04.5.19.44.11c.03-.01.12-.02.26-.02.08 0 .14.01.19.01.05.01.1.02.13.03l.19-.04c.17.02.33.07.48.16l.13.07c.21.05.36.08.48.08l.42-.08.07.1c.15 0 .29.06.4.19h.51l.21.21c.08.02.15.04.21.05.07.01.12.02.17.02l.34.12.16.13h.4l.09.25.36.22.13.54-.28.51c-.14.14-.27.24-.38.32s-.24.13-.38.17l-.29.17-.13-.03-.34.28h-.21l-.49.21-.35.04c-.12.05-.22.09-.29.12s-.14.06-.21.09c-.07.02-.14.05-.23.07-.08.03-.2.07-.35.12v.03c.03 0 .1 0 .21-.01.11-.02.24-.03.37-.04.13-.02.26-.03.37-.04.12-.01.19-.02.23-.02.14-.03.28-.05.44-.08.15-.02.25 0 .3.06.1-.05.19-.08.27-.08.21.07.35.1.4.1h.15c.05 0 .11-.01.19-.04.07.04.18.06.32.07.14 0 .32.01.53.01l.15.09c.16.03.3.04.42.05.13.01.24.04.34.09h.29c.06.06.16.1.29.13.14.02.24.07.32.13.04.03.09.06.16.11.07.04.15.11.26.22.17.15.26.31.26.47l-.02.21zm-3.67-4.03h-.19l-.17-.09-.25-.06-.19.13-.36-.26-.28-.08-.12.06-.15-.17h-.07c-.13 0-.33-.02-.59-.06l-.4.06-.21-.19-.19.04-.06-.02-.11.07-.33-.11-.07.04v.41l.11.33-.09.26.09.21-.02.36.1.29-.12.28.06.19.27-.01c.02-.02.06-.03.11-.05s.1-.06.15-.13l.08-.03.11.07.06-.13.48-.25c.17-.05.3-.08.37-.09.07-.02.13-.05.18-.12l.26-.07.1-.02c.16-.1.35-.17.57-.19l.07-.06c.03 0 .08-.02.16-.07l.28-.16h.04c.06-.05.13-.1.2-.14s.15-.08.24-.1zm12.14 1.88-.11.35c0 .33-.02.58-.06.78l-.12.18v.21l-.09.14-.06.26-.21.21-.13.48-.15.05-.08.21-.23.14-.15.32-.23.11-.01.23-.37.13c-.16.23-.36.38-.6.44l-.08.02c-.18.27-.41.4-.7.4-.13.08-.27.11-.44.11l-.19.14-.19.05-.25.19-.24-.02-.27.08-.32-.13-.82-.06-.28-.44-.42-.43.09-.31-.28-.64.13-.25-.09-.46.09-.28c-.02-.18-.04-.31-.04-.38 0-.24.07-.42.19-.53.02-.13.1-.34.25-.63h.09l-.03-.13.05-.27v-.28c.11-.12.16-.19.17-.23l-.05-.27v-.07c.09-.18.13-.37.13-.56l.4-.55.05-.03c.03-.03.06-.06.08-.08l-.02-.08h.08l.28-.32.02-.44.48-.17c.18-.11.29-.3.34-.57h.25c.14-.07.26-.11.38-.11.11 0 .22.02.32.07l.21.02.49-.19.27.25.21.13h.15l.29.16h.15c.16.15.35.36.57.62l.04.1.13.07.4.52.36.89v.19zm-1.25.46-.02-.09c-.09-.09-.14-.19-.16-.29l.06-.09-.17-.37.04-.36-.08-.09c-.16-.13-.25-.23-.26-.31-.12-.05-.17-.17-.17-.38l-.12-.01-.23-.38-.17-.14-.4-.15-.15-.04c-.07 0-.12-.02-.15-.07l-.38.41-.25.54-.4.21-.05.2-.19.1-.08.49-.23.12c-.05.17-.07.34-.07.49l-.31.29.1.05c0 .16-.06.29-.17.4-.04.12-.09.24-.16.38v.15l-.05.08.02.23-.21.51.04.1v.53l-.08.26.02.27.17.25.27.09.09.04.15-.08.5.04.07-.19h.08c.07 0 .12.02.13.06l.17-.06.15.06.25-.17.04-.06.17-.04c.09-.14.3-.28.63-.41l.04-.1.38-.27.2-.3.31-.15.02-.1.09-.21v-.24l.23-.19.08-.14.09-.11c-.05-.15-.07-.26-.07-.32 0-.12.03-.24.11-.36zm10.12 1.03-.36.34-.02.11c-.04.23-.15.41-.32.55-.31.57-.73.99-1.28 1.26l-.28.23-.25.03-.3.23-.21.02-.48.3-.3-.03-.34.15-.27-.08-.13.12-.36-.06-.36.06-.14-.12-.38-.07-.55-.42-.3-.38c-.19-.24-.29-.45-.29-.61v-.06l-.19-.28v-.25c-.03-.15-.05-.29-.05-.42v-.13l-.1-.32.1-.23-.08-.15.23-.36-.06-.31.15-.49.08-.12.08-.45-.04-.08.23-.24.03-.2.16-.43.24-.53.34-.31.08-.17.11-.21.04-.19.31-.36c.07-.02.16-.05.26-.07.05-.25.37-.38.95-.42.5.1.81.23.95.4.14.02.25.08.33.17l.39.02.27.34c.06.12.11.25.13.38l.16.15-.06.29c.01.08.02.22.02.41l.09.08v.28l.08.59c-.27.27-.57.42-.91.46-.18-.33-.4-.58-.67-.74l-.04-.63-.11-.21v-.15l-.19-.23-.1-.07-.17.05h-.24c-.17.04-.33.16-.48.36-.15.21-.3.42-.45.65l-.02.19-.12.1v.34l-.24.26-.31.84.02.23-.15.34.06.42-.12.05-.04.54.02.09.23.23.1.4.26.07.02.16.32.05.25.06c.09-.05.2-.08.32-.08h.14c.15-.06.29-.09.41-.09.09-.04.21-.08.35-.11.15-.21.36-.31.64-.31h.12c.06 0 .1-.03.13-.09.14-.22.36-.36.66-.42.36-.32.56-.57.61-.76.18-.1.29-.26.34-.48l.12-.07.06-.44c.58.09.87.38.87.87zm11.68-4.83-.4.97-.19.06h-.3l-.29.03-.21-.03-1 .07-.31-.07-.05.02c-.1.05-.29.09-.55.13h-.38l-.12-.04h-.06c-.12 0-.28.03-.47.08-.15.03-.35.05-.59.05l-.27-.05-.03.19h-.19l-.06.55.08.13-.02.25v.42c0 .43-.05.72-.14.87l.14.19-.12.46.12.13-.19.26v.14l-.1.17.08.36-.06.66-.09.31c.01.01.01.04.01.09 0-.02-.01.05-.05.21 0 .01 0 .03.02.06v.08c0 .11-.04.22-.12.34l.06.23c0 .08-.01.13-.02.15l-.02.04c-.01.03-.02.07-.03.1 0 .03-.01.07-.01.1 0 .21.03.38.08.52-.13.02-.26.04-.39.04-.13.01-.21.01-.24.01-.07 0-.15-.01-.23-.03h-.03c-.28-.08-.42-.34-.42-.78.01-.04.02-.12.02-.23 0-.09-.02-.21-.04-.37-.03-.16-.04-.27-.04-.33 0-.12.02-.21.06-.29l.06-.66c-.09-.13-.14-.23-.14-.29 0 .01.02-.03.04-.13-.04-.08-.06-.14-.06-.19 0-.1.03-.17.08-.21 0-.06.04-.2.13-.4-.02-.13-.04-.22-.04-.28.08 0 .12-.04.12-.12 0-.02-.01-.06-.03-.09-.02-.04-.03-.09-.03-.16l.04.06-.06-.15c0-.22.03-.39.08-.53v-.46l-.08-.34.08-.55-.08-.34.02-.16h-.23l-.19.1h-.11v.06c-.24 0-.46-.02-.67-.06l-.05.13-.63-.21-.84-.02-.53.16c-.21-.19-.37-.39-.48-.58-.11-.2-.16-.34-.16-.43 0-.1.01-.18.03-.23l.37-.32.3.02 1.08.21.29-.1.81.02.65.08.42-.16.15-.41.65.15.02-.02.03.04.23.28h.06l.23-.07.47.11c.24-.04.43-.07.56-.1.13-.02.22-.03.26-.03.11 0 .25.03.42.09h.19c.06 0 .12 0 .17-.01.05 0 .09-.01.11-.01h.12l.55-.07.47.09.06.02.25-.08.34.08.8-.02.36.04zm2.43 5.97.15.59.14-.19.41-.5.59-.28c.07-.16.17-.27.32-.36.14-.08.28-.15.42-.21l1.11-1.01.51-.61.45-.32.02-.1c.03-.1.09-.15.19-.16.1 0 .19-.02.25-.05l.38-.57.06-.11.7-.42.74-.99.31-.17.09-.24.27-.14c.06-.11.17-.24.33-.38s.31-.24.45-.3l.15.17.17-.04c.28.03.41.12.4.29.04.06.05.13.05.21 0 .06-.03.14-.09.22l-.08.93-.07.16.02.45-.1.55.04.76-.17.31.26.47-.15.46.1.26.09.2-.05.49v.17c.01.04.01.07.01.1v.09l-.05.11-.14.16c.02.02.02.07.02.15 0 .06-.01.11-.03.14-.01.03-.03.06-.04.09l.11.24-.15.27.15.55c-.04.23-.14.4-.31.51-.17.12-.36.17-.56.17h-.34c-.07-.1-.13-.2-.19-.31-.05-.11-.09-.22-.1-.35 0-.05.02-.11.06-.17l-.19-.27.13-.23-.02-.32.06-.36-.17-.57.17-.04c-.03-.05-.04-.1-.03-.16s.01-.12.01-.18c0-.13.04-.23.13-.3l.06-.23-.17-.8.06-.47-.1-.69.15-.17.06-.36.06-.29-.1-.01-.47.64-.36.27-.21.24c-.11.14-.22.28-.35.4-.12.13-.26.24-.39.35l-.21.3-.31.08-.53.76-.72.58-.31.31-.22.13-.31.27-.45.23-.08.15-1.37 1-.09.02-.14.25c-.06.01-.13.04-.2.09-.06.04-.14.07-.21.08l-.1.08h-.02v.13l-1.06.27-.19-.25-.29-.21.33-.34-.19-.7.05-.06-.09-.21.38-.19-.29-.36.25-.4-.08-.34.02-.25-.09-.53.15-.19-.15-.61.13-.17-.21-.3.12-.75-.04-.07c-.1-.09-.16-.39-.17-.91l-.02-.06.06-.36-.06-.23c.02-.1.08-.21.17-.32.06-.02.09-.05.09-.12 0-.06.02-.13.06-.2s.05-.15.02-.25l.61-.08.09-.17.95.36-.11.17.21.19-.23.14.21.6-.27.21v.91l-.13.52.17.62-.28.25v.06l.17.25-.02.85-.08.06.14.3zm23.15-2.63-.11.35c0 .33-.02.58-.06.78l-.11.18v.21l-.1.14-.05.26-.21.21-.13.48-.16.05-.07.21-.23.14-.15.32-.23.11-.02.23-.36.13c-.16.23-.37.38-.61.44l-.07.02c-.18.27-.42.4-.71.4-.12.08-.27.11-.43.11l-.19.14-.19.05-.25.19-.25-.02-.26.08-.33-.13-.81-.06-.29-.44-.42-.43.1-.31-.29-.64.14-.25-.1-.46.1-.28c-.03-.18-.04-.31-.04-.38 0-.24.06-.42.19-.53.01-.13.09-.34.24-.63h.1l-.04-.13.06-.27v-.28c.1-.12.16-.19.17-.23l-.06-.27v-.07c.09-.18.14-.37.14-.56l.39-.55.05-.03c.03-.03.06-.06.09-.08l-.02-.08h.07l.29-.32.02-.44.47-.17c.18-.11.3-.3.35-.57h.24c.14-.07.27-.11.38-.11.12 0 .22.02.33.07l.2.02.5-.19.26.25.21.13h.16l.28.16h.15c.17.15.36.36.57.62l.04.1.13.07.4.52.36.89v.19zm-1.25.46-.02-.09c-.09-.09-.14-.19-.15-.29l.06-.09-.17-.37.03-.36-.07-.09c-.17-.13-.26-.23-.27-.31-.11-.05-.17-.17-.17-.38l-.11-.01-.23-.38-.17-.14-.4-.15-.15-.04c-.08 0-.13-.02-.16-.07l-.38.41-.24.54-.4.21-.06.2-.19.1-.07.49-.23.12c-.05.17-.08.34-.08.49l-.3.29.09.05c0 .16-.05.29-.17.4-.04.12-.09.24-.15.38v.15l-.06.08.02.23-.21.51.04.1v.53l-.08.26.02.27.17.25.27.09.1.04.15-.08.49.04.08-.19h.07c.08 0 .12.02.14.06l.17-.06.15.06.25-.17.03-.06.18-.04c.08-.14.29-.28.62-.41l.04-.1.38-.27.21-.3.3-.15.02-.1.1-.21v-.24l.23-.19.07-.14.1-.11c-.05-.15-.08-.26-.08-.32 0-.12.04-.24.11-.36zm14.95.4.38-.44.02-.04c.02-.02.04-.04.05-.04.02-.01.04-.03.08-.05.01-.03.04-.05.08-.07.03-.02.08-.04.15-.08.1-.17.23-.29.4-.38l.05-.1v-.15c.27-.33.48-.52.65-.57 0-.16.17-.32.51-.47l.29-.4.09-.29h.19c.03-.11.07-.2.12-.27s.1-.15.15-.22l-.04-.12-.17-.32.25-.34.15-.42h.3c.05 0 .1-.01.14-.02.1 0 .27.05.51.15l.02.14.23.15.01.13.18.12-.1.09c.19.06.29.15.29.27 0 .06-.02.12-.06.17v.26l.23.29-.12.09-.02.08.04.02.08.25.24.19-.2.22-.1.36.13.27-.03.36.19.49c.03.11.06.2.07.3.01.09.02.17.02.24s-.04.17-.13.3c.07.06.11.13.11.19 0 .09-.04.19-.11.31l.07.05-.05.91.21.52v.55c.02.05.05.1.08.15s.06.11.09.17c.01.01.05.05.12.12.07.06.16.15.28.26.13.14.21.26.22.36-.06.17-.3.32-.72.46l-.59-.34-.55-.57-.19-.38-.06-.31-.07-.17c-.09-.18-.15-.34-.18-.49-.03-.16-.05-.3-.05-.44 0-.04 0-.08.01-.11.01-.04.02-.09.03-.14l.04-.03.05-.31-.22-.36.07-.21-.06-.25.04-.22c-.02-.07-.04-.13-.04-.18-.01-.06-.01-.12-.01-.17v-.09c0-.17-.04-.36-.1-.59v-.46l-.06-.28.06-.46-.23.23-.45.72-.46.52-.17.32-.51.55-.55.38-.06.32-.34.12-.06.17-.4.19-.13.3-.29.1-.32.53-.21.11-.06.31c-.09.04-.17.07-.25.09-.09.03-.18.04-.28.04h-.09l-.16-.32-.24-.33.02-.17-.16-.22.08-.12-.02-.02-.07-.26-.14-.1c-.23-.23-.39-.42-.49-.57l-.1-.3-.15-.19-.32-.57-.32-.36-.12-.19-.3-.33-.31-.53c-.05.1-.07.19-.07.26s-.01.2-.02.39l-.32.49.09.36-.17.36-.36 1.01-.15.34-.04.21-.31.53-.24.36.04.33c-.03.1-.07.19-.14.28-.06.09-.12.19-.19.29l.14.4c-.38.31-.65.47-.8.47-.23 0-.38-.08-.46-.25-.04-.03-.07-.08-.1-.12s-.06-.1-.07-.16v-.08c.23-.81.38-1.21.46-1.21.01 0 .02 0 .02.02v-.27c0-.28.12-.49.36-.65v-.09l.09-.32-.02-.12c0-.02.02-.07.05-.15s.07-.18.12-.3l.1-.08v-.44l.19-.28.26-.82-.07-.49.23-.19v-.04l.02-.65.07-.26c.04-.09.06-.17.06-.23v-.08l-.32-.51.09-.32.13-.02.14-.17-.02-.14.26-.19.14.06.24-.15.25.02.46.28v.12l.17.09.21.38-.02.21.02.12c.03.02.08.05.12.07.04.03.1.07.16.13l.02.23.19.15.11.33.8.68.17.4.27.13.3.65.55.85.08.23h.1l.13-.26zm15.1-.86-.11.35c0 .33-.02.58-.06.78l-.12.18v.21l-.09.14-.06.26-.21.21-.13.48-.15.05-.08.21-.23.14-.15.32-.23.11-.01.23-.37.13c-.16.23-.36.38-.6.44l-.08.02c-.18.27-.41.4-.7.4-.13.08-.27.11-.44.11l-.19.14-.19.05-.25.19-.24-.02-.27.08-.32-.13-.82-.06-.28-.44-.42-.43.09-.31-.28-.64.13-.25-.09-.46.09-.28c-.02-.18-.04-.31-.04-.38 0-.24.07-.42.19-.53.02-.13.1-.34.25-.63h.09l-.03-.13.05-.27v-.28c.1-.12.16-.19.17-.23l-.05-.27v-.07c.09-.18.13-.37.13-.56l.4-.55.05-.03c.03-.03.06-.06.08-.08l-.02-.08h.08l.28-.32.02-.44.48-.17c.18-.11.29-.3.34-.57h.25c.14-.07.26-.11.38-.11.11 0 .22.02.32.07l.21.02.49-.19.27.25.21.13h.15l.29.16h.15c.16.15.35.36.57.62l.04.1.13.07.4.52.36.89v.19zm-1.25.46-.02-.09c-.09-.09-.14-.19-.16-.29l.06-.09-.17-.37.04-.36-.08-.09c-.16-.13-.25-.23-.26-.31-.12-.05-.17-.17-.17-.38l-.12-.01-.23-.38-.17-.14-.4-.15-.15-.04c-.07 0-.13-.02-.15-.07l-.38.41-.25.54-.4.21-.05.2-.19.1-.08.49-.23.12c-.05.17-.07.34-.07.49l-.31.29.1.05c0 .16-.06.29-.17.4-.04.12-.09.24-.16.38v.15l-.05.08.02.23-.21.51.04.1v.53l-.08.26.02.27.17.25.27.09.09.04.15-.08.5.04.07-.19h.08c.07 0 .12.02.13.06l.17-.06.15.06.25-.17.04-.06.17-.04c.09-.14.3-.28.63-.41l.04-.1.38-.27.2-.3.31-.15.02-.1.09-.21v-.24l.23-.19.08-.14.09-.11c-.05-.15-.07-.26-.07-.32 0-.12.03-.24.11-.36zm13.08 2.57.17-.1.37.13.13-.15.42.17.02.08-.06.28.04.04.09.38-.17.15.13.17.02.04c.01.33-.04.57-.17.72l.04.4v.29l-.21.36.02.28-.08.29-.32.7-.28.06-.18-.59-.11-.34c-.05-.07-.07-.14-.06-.22.02-.08.03-.18.06-.29l-.06-.08.04-.1-.11-.22.15-.23-.1-.12.1-.17c-.01-.23-.05-.39-.11-.49-.05-.1-.21-.14-.46-.11h-.04l.06-.08c-.05.01-.1.02-.13.03-.04 0-.09.01-.14.01h-.74c-.06 0-.14-.02-.23-.06-.02 0-.05 0-.08-.01s-.08-.02-.13-.03l-.11.14-.63-.12-.13.08h-.34l-.53-.06-.84.1-.44-.12-.97.12c-.08 0-.24 0-.45 0-.22.01-.41.01-.57.01-.07 0-.12.02-.15.04-.04.03-.07.03-.1 0l-.23-.02-.53.08.04.04c-.08 0-.13-.01-.17-.01-.04-.01-.07-.01-.1-.01-.06 0-.14-.01-.22-.03-.09-.02-.15 0-.18.05l-.32.09-.15-.07c0 .12-.05.29-.15.49l.09.17-.09.1.13.24-.08.21.04.14-.05.05c0 .12-.01.21-.01.3-.01.08-.04.15-.09.22l-.11.34-.31.57-.34-.06-.19-.74-.04-.3.04-.29-.21-.34.06-.29.06-.4c-.12-.16-.17-.41-.16-.74l.02-.02c-.01-.03-.02-.07-.03-.1 0-.03-.01-.07-.01-.1 0-.21.05-.38.15-.51.09-.13.27-.23.52-.29h.25l.57-.06.09-.17c.08-.05.11-.12.11-.21-.01-.09.01-.16.06-.21l.19-.07-.04-.21.25-.1c.03-.08.04-.12.04-.13v-.04l.06-.13.17-.14.09-.24v-.19h.19l.02-.27.12-.09.03-.1c.19-.13.29-.21.29-.25l.17-.32.13-.26.19-.27.14-.23.15-.17.15-.29.25-.26.07-.06v-.21l.04-.02.04-.11c.09-.1.16-.23.22-.38.05-.15.09-.26.12-.32l.02-.25.09-.23.08-.02v-.22h.04l.11-.21-.07-.5.13-.28c.1-.07.22-.12.35-.15.13-.04.23-.06.3-.06.11 0 .21.02.3.07.04.03.09.13.17.32.08.18.2.4.38.65l.13.35.17.2.29.37.27.34.01.11.4.44v.15l.21.06.12.43.22.23.16.23c.01.05.03.1.06.14.03.05.07.09.11.13v.03h.05c.07.07.12.14.16.22.03.08.07.17.11.26l.1.19.09.11.17.44.13.11v.19l.08.12.17.28.15.31.23.34.1.17.11.17zm-6.97-.88-.09.06c-.03.02-.05.06-.05.11-.01.05-.02.09-.05.12l-.23.3-.09.34.49-.02.32.06h.31l.3-.04h.61c.1 0 .19-.01.28-.04.08-.02.13-.03.14-.03h.11c.03.01.1-.01.22-.07s.19-.09.2-.09l.48.16.26-.14.5.14.64.03c.03-.01.06-.01.11-.01h.12c.11 0 .22.01.32.05l.19.02c0-.06 0-.14-.02-.24-.01-.09-.03-.16-.05-.22-.08-.1-.12-.19-.12-.28l-.26-.38-.02-.13-.17-.34-.04-.2-.21-.3-.29-.55-.3-.53-.3-.38c-.04-.03-.07-.07-.09-.13-.02-.07-.04-.14-.07-.23l-.17-.04-.03-.17-.33-.23c-.02-.04-.05-.09-.07-.15-.03-.07-.07-.12-.14-.17l-.05-.08-.12.06-.04.19-.26.36-.34.49-.17.35-.21.26-.17.36-.29.31-.23.41-.07.16c-.03.11-.07.19-.12.22-.05.04-.1.11-.15.21zm15.94.74c0 .15-.12.34-.34.57-.07.2-.16.37-.29.5l-.11.02-.21.36-.34.05-.36.23-.19.34-.21-.04c-.14.07-.26.11-.35.12l-.11.17c-.04-.01-.09-.02-.17-.02-.17 0-.32.11-.48.34l-.26-.22c-.05.01-.13.01-.23.01-.16 0-.3-.02-.42-.07h-.32l-.15-.1c-.48-.07-.79-.26-.91-.55v-.05l-.23-.12-.12-.32-.22-.15v-.29l-.23-.83.04-.69.07-.3v-.4l.1-.31-.02-.13.13-.23-.04.04c0-.11.03-.23.1-.36v-.09l-.06-.46c0-.22.1-.41.29-.57.01-.03.01-.06.01-.11 0-.06-.02-.16-.06-.32-.05-.16-.07-.27-.07-.33 0-.15.04-.31.12-.48.1.16.24.23.43.23h.06c.02-.05.08-.11.17-.17.1-.32.24-.58.42-.8l.07-.07c0-.05.04-.2.12-.44h.15l.04-.09.15-.04c.06-.1.1-.16.12-.18s.16-.1.41-.24c.05-.09.13-.17.23-.25.05-.02.11-.05.19-.07l.08-.12c.34-.11.55-.17.64-.17.1 0 .2.03.29.08l.09-.02.14.07c.15.12.3.21.45.29l.32.25v.07c.3.23.44.55.44.97l-.06.19.06.63-.17.11-.19.5-.36.4-.02.3c-.41.29-.78.52-1.12.7-.11.18-.29.27-.53.27h-.06l-.36.23h-.3l-.46.19-.34-.17h-.04c-.03.1-.05.25-.08.45l-.15.11-.02.23-.11.33c.04.3.06.5.06.59l-.08.05c0 .17-.01.29-.02.36 0 .02-.01.03-.02.06v.06c0 .1.05.18.15.24.04.16.1.25.19.29l.14.11.41.12v.05l.16.04.64.04.38-.06.19-.13.12-.04.19-.28.09-.02.48-.15c.05-.09.13-.17.24-.23l.06-.1c.25-.05.4-.18.44-.4.17-.17.4-.26.68-.26h.08c.24.28.36.5.36.68zm-1.88-5.47c0-.04-.02-.11-.06-.23l-.09-.02-.04.02h-.08c-.02.01-.05.02-.07.02s-.04-.01-.06-.02h-.06l-.19.14-.17.01-.09.04-.33.42-.21.15-.3.53-.17.12c-.04.21-.13.4-.27.55l-.07.13c.14-.09.29-.13.47-.13l.13-.06.06-.17.27.02.15-.23h.11l.21.08.1-.29h.13v-.21l.25-.05.05-.06.04-.17.25-.36c.02-.07.04-.14.04-.23zm6.32 6.23-.28.44-.27.13-.11.15-.29.25-.11.15-.35.21-.64.65-.34.15c-.09.18-.21.32-.36.44l-.08.05-.13.25-.27.25c-.21.06-.37.09-.47.09-.04 0-.14-.01-.29-.03-.01-.06-.02-.13-.02-.23 0-.12.03-.26.08-.42l.05-.19.06-.08c.04-.2.17-.35.38-.45l.02-.06.19-.27.08-.26.09-.13.21-.1.04-.08c.01-.07.06-.14.15-.19l.11-.07v-.19l.18-.04c0-.14.03-.28.11-.44l.19-.15c0-.04.01-.09.04-.17 0-.03 0-.06.02-.09v-.1l.11-.15c.18-.23.41-.34.7-.34.21 0 .44.05.71.17l.05.07.36.1zm-132.46 21.84-.36.34-.02.11c-.04.23-.15.41-.33.55-.3.57-.73.99-1.27 1.26l-.28.23-.25.03-.31.23-.2.02-.48.3-.3-.03-.35.15-.26-.08-.13.12-.37-.06-.36.06-.13-.12-.38-.07-.55-.42-.3-.38c-.19-.24-.29-.45-.29-.61v-.06l-.19-.28v-.25c-.04-.15-.06-.29-.06-.42v-.13l-.09-.32.09-.23-.07-.15.23-.36-.06-.31.15-.49.08-.12.07-.45-.04-.08.23-.24.04-.19.15-.44.25-.53.34-.31.08-.17.11-.21.04-.19.3-.36c.08-.02.17-.05.27-.07.05-.25.37-.38.95-.42.49.1.81.23.95.4.14.02.25.08.32.17l.4.02.27.34c.06.12.1.25.13.38l.15.15-.05.29c.01.08.01.22.01.41l.1.08v.28l.08.59c-.27.27-.57.42-.92.46-.17-.33-.4-.58-.66-.74l-.04-.63-.11-.21v-.15l-.19-.23-.1-.07-.17.05h-.25c-.16.04-.32.16-.47.36-.15.21-.31.42-.46.65l-.02.19-.11.1v.34l-.25.26-.3.84.02.23-.15.34.05.42-.11.05-.04.54.02.09.23.23.09.4.27.07.02.16.32.05.25.06c.09-.05.19-.08.32-.08h.13c.16-.06.29-.09.42-.09.09-.04.2-.08.34-.11.16-.21.37-.31.65-.31h.11c.07 0 .11-.03.14-.09.14-.22.36-.36.66-.42.36-.32.56-.57.61-.76.18-.1.29-.26.34-.48l.12-.07.05-.44c.58.09.88.38.88.87zm11.68-4.83-.4.97-.19.06h-.31l-.28.03-.21-.03-1.01.07-.3-.07-.06.02c-.1.05-.28.09-.55.13h-.38l-.11-.04h-.06c-.13 0-.28.03-.47.08-.16.03-.35.05-.59.05l-.27-.05-.04.19h-.19l-.05.55.07.13-.02.25v.42c0 .43-.04.72-.13.87l.13.19-.11.46.11.13-.19.26v.14l-.09.17.07.36-.05.66-.1.31c.01.01.02.04.02.09 0-.02-.02.05-.06.21 0 .01.01.03.02.06v.08c0 .11-.04.22-.11.34l.06.23c0 .08-.01.13-.02.15l-.02.04c-.01.03-.02.07-.03.1s-.01.07-.01.1c0 .21.03.38.08.52-.13.02-.26.04-.39.04-.14.01-.22.01-.24.01-.08 0-.15-.01-.23-.03h-.04c-.28-.08-.42-.34-.42-.78.02-.04.02-.12.02-.23 0-.09-.01-.21-.03-.37-.03-.16-.04-.27-.04-.33 0-.12.02-.21.05-.29l.06-.66c-.09-.13-.13-.23-.13-.29 0 .01.01-.03.04-.13-.04-.08-.06-.14-.06-.19 0-.1.03-.17.08-.21 0-.06.04-.2.13-.4-.03-.13-.04-.22-.04-.28.08 0 .11-.04.11-.12 0-.02 0-.06-.02-.09-.02-.04-.03-.09-.03-.16l.04.06-.06-.15c0-.22.02-.39.07-.53v-.46l-.07-.34.07-.55-.07-.34.02-.16h-.23l-.19.1h-.11v.06c-.24 0-.47-.02-.67-.06l-.06.13-.62-.21-.84-.02-.53.16c-.22-.19-.38-.39-.49-.58-.1-.2-.16-.34-.16-.43 0-.1.02-.18.04-.23l.36-.32.31.02 1.08.21.28-.1.82.02.65.08.41-.16.16-.41.64.15.02-.02.04.04.23.28h.05l.23-.07.48.11c.24-.04.43-.07.56-.09.13-.03.22-.04.25-.04.12 0 .26.03.42.09h.19c.07 0 .12 0 .17-.01.05 0 .09-.01.12-.01h.11l.55-.07.48.09.05.02.25-.07.34.07.8-.02.36.04zm2.43 5.97.15.59.13-.19.42-.5.59-.28c.06-.16.17-.27.31-.36.15-.08.29-.15.43-.21l1.1-1.01.51-.61.46-.32.02-.1c.03-.1.09-.15.19-.16.1 0 .18-.02.25-.05l.38-.57.05-.11.71-.42.74-.99.3-.17.1-.24.26-.14c.07-.11.18-.24.34-.38.15-.14.3-.24.44-.3l.15.17.17-.04c.28.03.42.12.4.29.04.06.06.13.06.21 0 .06-.03.14-.09.22l-.08.94-.08.15.02.45-.09.55.04.76-.18.31.27.47-.15.46.09.27.1.19-.06.49v.17c.01.04.02.07.02.1v.09l-.06.11-.13.16c.01.02.02.07.02.15 0 .06-.01.11-.03.14s-.03.06-.05.09l.12.24-.15.27.15.55c-.04.23-.14.4-.32.51-.17.12-.35.17-.56.17h-.34c-.06-.1-.12-.2-.18-.31s-.09-.22-.1-.35c0-.05.02-.11.05-.17l-.19-.27.14-.23-.02-.32.05-.36-.17-.57.17-.04c-.02-.05-.03-.1-.02-.16 0-.06.01-.12.01-.18 0-.13.04-.23.13-.3l.06-.23-.18-.8.06-.47-.09-.69.15-.17.06-.36.05-.29-.09-.01-.48.64-.36.27-.21.24c-.1.14-.21.28-.34.4-.13.13-.26.24-.4.35l-.21.3-.3.08-.53.76-.73.58-.3.31-.23.13-.3.27-.46.23-.07.15-1.37 1-.1.02-.13.25c-.06.01-.13.04-.2.09-.07.04-.14.07-.22.08l-.09.08h-.02v.13l-1.07.27-.19-.25-.28-.21.32-.34-.19-.7.06-.06-.1-.21.38-.19-.28-.36.25-.4-.08-.34.02-.25-.1-.53.16-.19-.16-.61.14-.17-.21-.3.11-.75-.04-.07c-.1-.09-.15-.39-.17-.91l-.02-.06.06-.36-.06-.23c.03-.1.09-.21.18-.32.06-.02.09-.05.09-.12 0-.06.02-.13.06-.2s.04-.15.02-.25l.6-.08.1-.17.95.36-.11.17.2.19-.22.14.21.6-.27.21v.91l-.13.52.17.62-.29.25v.06l.17.25-.02.85-.07.06.13.3zm19.7-1.58.3.44.21.13.02.21.09.09.04.21c.06.12.12.2.16.27.05.06.08.12.11.17l.17.34.04.21.17.21.05.09-.01.06.03.08-.07.05.09.18c-.02.15-.06.28-.11.39l-.12.21-.2.21-.33.04-.45-.09-.27-.18c-.09-.16-.15-.32-.18-.48s-.05-.31-.05-.47c-.09-.07-.14-.17-.17-.3l-.26-.44-.02-.15-.27-.4-.06-.24-.28-.37-.4-.68-.38-.65-.42-.22c-.04-.03-.07-.08-.1-.17-.03-.08-.07-.17-.11-.27l-.19-.02-.07-.17-.42-.46c-.04-.02-.09-.07-.14-.14-.06-.07-.11-.15-.15-.24l-.21.14-.2.24c-.06.07-.11.14-.18.22-.06.08-.13.19-.2.32l-.12.09v.06l-.19.07-.02.1-.19.19-.21.23-.11.24-.17.23-.19.31-.46.45c-.04.01-.09.15-.15.42l-.08.09-.05.16-.19.13.04.23-.12.15v.23l-.17.17-.09.21c0 .01-.01.02-.02.04-.02.01-.03.02-.03.03-.01.02-.02.03-.05.06l-.08.44-.13.23v.22c-.07.12-.18.21-.32.27l-.38.17-.27-.02c-.23 0-.4-.08-.51-.25-.11-.05-.17-.15-.17-.3v-.09c0-.07-.01-.11-.02-.12l.06-.44.19-.19.13-.34.19-.19.19-.32c.05-.05.08-.13.08-.25l.07-.15c.04-.15.14-.29.31-.42.05-.28.2-.5.45-.66l.12-.17.39-.42.23-.48.33-.38.19-.34.15-.15-.04-.21.59-.68.45-.46.02-.23.02-.13.15-.19-.07-.53.13-.33c.09-.07.22-.13.4-.18.18-.04.3-.06.38-.06.13 0 .22.02.29.07.05.04.24.34.57.92l.15.34.21.23.3.36.21.32v.13l.42.46.05.15.19.04.29.47.23.23.19.27c.01.04.04.08.07.12.04.04.09.09.14.12v.08h.03c.12.1.23.26.33.48l.11.2zm9.28 1.84c0 .15-.11.34-.34.57-.06.2-.16.37-.28.5l-.12.02-.21.36-.34.05-.36.23-.19.34-.21-.03c-.14.06-.25.1-.34.11l-.11.17c-.04-.01-.1-.02-.17-.02-.17 0-.33.11-.48.34l-.27-.22c-.05.01-.12.01-.22.01-.17 0-.31-.02-.42-.07h-.32l-.16-.1c-.48-.07-.78-.26-.91-.55v-.05l-.23-.12-.11-.32-.23-.15v-.29l-.23-.83.04-.69.08-.3v-.4l.09-.31-.02-.13.14-.23-.04.04c0-.11.03-.23.09-.36v-.09l-.05-.46c0-.22.09-.41.28-.57.01-.03.02-.06.02-.11 0-.06-.02-.16-.07-.32-.04-.16-.06-.27-.06-.33 0-.15.04-.31.11-.48.1.16.25.23.44.23h.06c.02-.05.08-.11.17-.17.1-.32.24-.58.41-.8l.08-.07c0-.05.04-.2.11-.44h.16l.03-.09.16-.04c.06-.1.1-.16.12-.18s.16-.1.41-.24c.05-.09.13-.17.23-.25.05-.02.11-.05.19-.07l.07-.12c.34-.11.56-.17.65-.17.1 0 .19.03.28.08l.1-.02.13.07c.15.12.31.21.46.29l.32.25v.07c.29.23.44.55.44.97l-.06.19.06.63-.17.11-.19.5-.36.4-.02.3c-.41.29-.78.52-1.12.7-.12.18-.3.27-.54.27h-.05l-.36.23h-.31l-.45.19-.35-.17h-.03c-.03.1-.06.25-.08.45l-.15.12-.02.22-.12.33c.04.3.06.5.06.59l-.07.05c0 .17-.01.29-.02.36 0 .02-.01.03-.02.06v.06c0 .1.05.18.15.24.04.16.1.25.19.29l.13.11.42.12v.05l.15.04.65.04.38-.06.19-.13.11-.04.19-.28.1-.02.47-.15c.05-.09.14-.17.25-.23l.06-.1c.25-.05.4-.18.43-.4.18-.17.41-.26.69-.26h.07c.24.28.36.5.36.68zm-1.88-5.47c0-.04-.02-.11-.05-.23l-.1-.02-.04.02h-.07c-.03.01-.05.02-.08.02-.01 0-.03-.01-.06-.02h-.05l-.19.14-.17.01-.1.04-.32.42-.21.15-.3.53-.18.12c-.03.21-.12.4-.26.55l-.08.13c.14-.09.3-.13.48-.13l.13-.06.06-.17.26.02.16-.23h.11l.21.08.09-.29h.14v-.21l.24-.05.06-.06.04-.17.25-.36c.02-.07.03-.14.03-.23zm10.68 5.21.15.59.13-.19.42-.5.59-.28c.06-.16.16-.27.31-.36.15-.08.29-.15.43-.21l1.1-1.01.51-.61.46-.32.02-.1c.02-.1.09-.15.19-.16.1 0 .18-.02.25-.05l.38-.57.05-.11.71-.42.74-.99.3-.17.1-.24.26-.14c.06-.11.18-.24.33-.38.16-.14.31-.24.45-.3l.15.17.17-.04c.28.03.41.12.4.29.04.06.06.13.06.21 0 .06-.03.14-.1.22l-.07.94-.08.15.02.45-.09.55.03.76-.17.31.27.47-.15.46.09.27.1.19-.06.49v.17c.01.04.02.07.02.1v.09l-.06.11-.13.16c.01.02.02.07.02.15 0 .06-.01.11-.03.14s-.04.06-.05.09l.12.24-.16.27.16.55c-.04.23-.15.4-.32.51-.17.12-.36.17-.56.17h-.34c-.06-.1-.12-.2-.18-.31s-.09-.22-.1-.35c0-.05.01-.11.05-.17l-.19-.27.14-.23-.02-.32.05-.36-.17-.57.17-.04c-.02-.05-.03-.1-.03-.16.01-.06.01-.12.01-.18 0-.13.05-.23.14-.3l.05-.23-.17-.8.06-.47-.09-.69.15-.17.05-.36.06-.29-.09-.01-.48.64-.36.27-.21.24c-.1.14-.21.28-.34.4-.13.13-.26.24-.4.35l-.21.3-.3.08-.53.76-.73.58-.3.31-.23.13-.3.27-.46.23-.07.15-1.37 1-.1.02-.13.25c-.06.01-.13.04-.2.09-.07.04-.14.07-.22.08l-.09.08h-.02v.13l-1.07.27-.19-.25-.28-.21.32-.34-.19-.7.06-.06-.1-.21.38-.19-.28-.36.25-.4-.08-.34.02-.25-.1-.53.16-.19-.16-.61.14-.17-.21-.3.11-.75-.04-.07c-.1-.09-.16-.39-.17-.91l-.02-.06.06-.36-.06-.23c.03-.1.09-.21.17-.32.07-.02.1-.05.1-.12 0-.06.02-.13.06-.2.03-.07.04-.15.02-.25l.6-.08.1-.17.95.36-.12.17.21.19-.22.14.2.6-.26.21v.91l-.13.52.17.62-.29.25v.06l.17.25-.02.85-.07.06.13.3zm24.23-1.03h-.05l-.1.48c.08 0 .12-.01.13-.02l-.05.43.11.4-.11.34.02.71-.06.32c.1.11.15.26.15.44 0 .07-.02.16-.08.27-.05.11-.07.18-.07.2-.01.05-.02.1-.02.15 0 .13.05.27.15.42l-.23.23.25.15c0 .17-.02.33-.05.49-.03.15-.07.3-.11.42-.05.13-.1.24-.15.32-.06.08-.13.12-.2.12-.08 0-.15-.03-.23-.09-.08-.07-.15-.15-.23-.24-.07-.1-.14-.19-.19-.3-.05-.1-.08-.19-.09-.28l-.1-.15c-.1-.18-.14-.32-.13-.41.01-.1.02-.18.02-.26l-.19-.53.15-.25-.08-.32.04-.49-.02-.16c-.01-.07-.02-.14-.03-.2 0-.05-.01-.11-.01-.16v-.15c0-.05.01-.1.02-.15l-.02-.17-.05-.59.04-.11.03-1.28-.3.38-.23.21-.36.15-.19.35-.25.03-.59.4-.3.19-.25.34-1.25.78-.27.36-.47.16-.19.26h-.19l-.4.34-.23.1-.25.11-.13.02-.06-.02c-.17.19-.32.28-.45.27-.14-.03-.24-.15-.31-.36-.06-.22-.08-.41-.05-.59.16-.1.29-.2.39-.3.09-.11.17-.21.23-.31l.12-.04v-.03c0-.03.02-.07.06-.14.35-.06.58-.22.68-.47l.38-.14.15-.09c.04-.04.09-.09.16-.15.07-.07.16-.15.26-.25l.36-.19.21-.21c.15-.04.23-.13.25-.26l.28-.04.32-.33.12-.07.3-.04.19-.27.23-.05.38-.25.19-.08.46-.19.05-.07-.47-.02-.42-.02-.27-.11-.32-.04-.32-.17-.48-.19-.34-.29-.3-.07-.02-.1c-.1-.08-.17-.13-.21-.17l-.38-.04c-.08-.15-.11-.25-.11-.3v-.08c-.18-.04-.31-.15-.4-.34l-.23-.23-.13-.34-.21-.06-.06-.26-.13-.1.02-.11-.04-.1.07-.03-.19-.4c-.06-.22-.05-.42.04-.59.09-.18.19-.3.29-.36.36-.04.58.11.64.45l.17.14.23.26c.01.03.02.05.03.08.01.02.02.05.05.09.14.07.25.2.34.4l.28.02.02.19.08.11c.23.07.36.19.4.37l.15-.02.19.28.27.02v.08l.15-.02.02.19.26.07.16.21.39.12c.3.01.44.04.44.09v.04c.17.01.31.07.44.19l.34-.04v.04l.4.25.19.02-.04-.9.06-.09-.1-.1.12-.45v-.17l-.12-.02.04-.5c-.02-.05-.03-.1-.01-.16s.05-.12.08-.2.06-.15.09-.24c.03-.08.04-.16.03-.25l.08-.27-.08-.47.04.03.08-.34-.06.12v-.61h.26l.06-.21.57-.15c.14 0 .26.02.36.05.1.04.2.08.29.12.16.23.24.49.24.78v.11h-.05l-.1.89.02.52.06.07-.15.5-.12.36-.02.47-.17.5c.03.06.04.11.04.14v.14c0 .13-.01.22-.02.29l.25.02.4-.25v-.04l.34.04c.13-.12.27-.18.44-.19v-.04c0-.05.14-.08.43-.09l.4-.12.15-.21.27-.07.02-.19.15.02v-.08l.27-.02.19-.28.15.02c.04-.18.17-.3.4-.37l.07-.11.02-.19.29-.02c.09-.2.2-.33.34-.4.03-.04.04-.07.05-.09 0-.03.01-.05.03-.08l.22-.26.18-.14c.06-.34.27-.49.64-.45.1.06.2.18.29.36.09.17.1.37.03.59l-.19.4.08.03-.04.1.02.11-.13.1-.06.26-.21.06-.13.34-.23.23c-.09.19-.22.3-.4.34v.08c0 .05-.04.15-.11.3l-.38.04c-.04.04-.11.09-.21.17l-.02.1-.3.07-.35.29-.47.19-.32.17-.33.04-.26.11-.42.02-.48.02.06.07.46.19.19.08.38.25.23.05.19.27.3.04.11.07.33.33.28.04c.01.13.1.22.25.26l.21.21.36.19c.1.1.19.18.26.25.06.06.12.11.16.15l.15.09.38.14c.1.25.33.41.68.47l.04.08c.01.02.02.04.02.06v.03l.11.04c.07.1.15.2.24.31.1.1.23.2.39.3.03.18.01.37-.06.59-.06.21-.16.33-.3.36-.13.01-.28-.08-.46-.27l-.05.02-.14-.02-.24-.11-.23-.1-.4-.34h-.19l-.19-.26-.48-.16-.26-.36-1.26-.78-.24-.34-.31-.19-.59-.4-.24-.03-.19-.35-.36-.15-.23-.21-.23-.26c0-.07-.02-.11-.08-.15-.05-.03-.12-.06-.2-.08zm10.43 1.03.15.59.14-.19.41-.5.59-.28c.07-.16.17-.27.32-.36.14-.08.28-.15.42-.21l1.11-1.01.51-.61.45-.32.02-.1c.03-.1.09-.15.19-.16.1 0 .19-.02.25-.05l.38-.57.06-.11.7-.42.74-.99.31-.17.09-.24.27-.14c.06-.11.17-.24.33-.38s.31-.24.45-.3l.15.17.17-.04c.28.03.41.12.4.29.04.06.05.13.05.21 0 .06-.03.14-.09.22l-.08.94-.07.15.02.45-.1.55.04.76-.17.31.26.47-.15.46.1.27.09.19-.05.49v.17c.01.04.01.07.01.1v.09l-.05.11-.14.16c.02.02.02.07.02.15 0 .06-.01.11-.02.14-.02.03-.04.06-.05.09l.11.24-.15.27.15.55c-.04.23-.14.4-.31.51-.17.12-.36.17-.56.17h-.34c-.07-.1-.13-.2-.18-.31-.06-.11-.1-.22-.11-.35 0-.05.02-.11.06-.17l-.19-.27.13-.23-.02-.32.06-.36-.17-.57.17-.04c-.03-.05-.04-.1-.03-.16s.01-.12.01-.18c0-.13.04-.23.13-.3l.06-.23-.17-.8.06-.47-.1-.69.15-.17.06-.36.06-.29-.1-.01-.47.64-.36.27-.21.24c-.1.14-.22.28-.35.4-.12.13-.26.24-.39.35l-.21.3-.31.08-.53.76-.72.58-.31.31-.22.13-.31.27-.45.23-.08.15-1.37 1-.09.02-.14.25c-.06.01-.13.04-.19.09-.07.04-.15.07-.22.08l-.1.08h-.02v.13l-1.06.27-.19-.25-.29-.21.33-.34-.19-.7.05-.06-.09-.21.38-.19-.29-.36.25-.4-.08-.34.02-.25-.09-.53.15-.19-.15-.61.13-.17-.21-.3.12-.75-.04-.07c-.1-.09-.16-.39-.17-.91l-.02-.06.06-.36-.06-.23c.02-.1.08-.21.17-.32.06-.02.09-.05.09-.12 0-.06.02-.13.06-.2s.05-.15.02-.25l.61-.08.09-.17.95.36-.11.17.21.19-.23.14.21.6-.27.21v.91l-.13.52.17.62-.28.25v.06l.17.25-.02.85-.08.06.14.3zm19.13-1.45.27.33.05.34.1.19-.1.76-.26.28-.1.31-.34.15v.13l-.28.06-.19.25c-.09.03-.21.07-.36.11-.14.04-.3.08-.48.13-.08.07-.15.13-.22.18-.07.06-.16.09-.27.11-.11.05-.23.11-.38.19-.14.07-.29.13-.44.17l-.19-.06-.72.19-.36-.02-.29-.05-.25.05-.41.06h-.27l-.15-.08c-.02.03-.03.05-.06.06-.05.03-.09.02-.11-.02l-.1-.11c-.02.01-.05.04-.07.08-.01.05-.05.08-.1.09-.08 0-.17-.02-.28-.06l-.14.04c-.07 0-.12-.01-.15-.02-.01.01-.02 0-.04-.03-.01-.03-.03-.05-.05-.05-.09 0-.18-.02-.27-.07l-.27.13-.19-.28-.11.09-.19-.09c-.05.05-.1.07-.13.07h-.14c-.09 0-.17-.06-.24-.19-.16-.07-.27-.17-.35-.28-.07-.12-.11-.32-.11-.61 0-.37.17-.57.49-.61.07-.02.11-.06.12-.11s.06-.09.13-.12l.27-.05.47-.08c.37.15.55.32.55.49 0 .11-.04.2-.13.29.04 0 .11.02.21.06l.3-.06c.13 0 .26.04.38.13.09-.02.18-.02.28.02.09.04.19.06.29.06h.33c.11-.08.19-.12.24-.12.07 0 .15.03.25.08.06-.04.12-.06.17-.08.05-.01.11-.02.17-.03l.31.19.03-.08.35-.06h.21l.3-.21c.1 0 .18.01.24.01.05.01.09.01.1.01.04 0 .1-.03.19-.08.09-.06.18-.12.27-.18h.17l.04-.1.28-.19.06-.11c.13-.05.21-.12.26-.19.06-.08.1-.14.14-.19.06-.1.09-.19.08-.26 0-.07-.02-.13-.04-.2-.03-.02-.06-.04-.08-.04-.03 0-.09-.01-.19-.03l-.29-.23-.34-.06-.3.1-.12-.17-.15.03-.17-.19-.07.06c-.18-.04-.28-.06-.31-.06-.06.02-.12.03-.16.04s-.09.03-.12.04c-.05-.01-.12-.07-.19-.17l-.08.06c-.09.02-.18.04-.28.05-.09.01-.19.03-.31.04l-.09-.11-.4-.06-.14-.13-.2.02-.37-.18-.3-.34-.09-.38.17-.38.32-.21c.11-.07.23-.12.35-.14s.24-.04.35-.07l.23-.17.76-.22.15-.12.31.06.15-.19.11.07c.21-.21.44-.32.71-.32l.15-.13.04-.04c.05-.05.08-.08.1-.09.02-.02.07-.05.16-.1.08-.13.1-.2.07-.22s-.11-.08-.22-.2c-.05-.06-.12-.12-.21-.18s-.26-.12-.51-.18l-.25.04c-.21-.04-.37-.06-.46-.06-.06 0-.12.01-.18.01-.05.01-.11.02-.18.03h-.17l-.3.08-.29-.08-.13.15-.65.04-.38.13c-.1.12-.2.17-.3.17-.04 0-.08 0-.11-.01-.04-.02-.09-.04-.16-.06-.01.04-.02.06-.03.08-.02.02-.03.04-.04.07h-.1c-.07 0-.15.01-.23.02-.09.01-.17.09-.26.23-.08 0-.13-.01-.15-.02l-.1.28-.62-.47-.18-.19.06-.12h-.11c-.05-.08-.08-.17-.08-.24v-.12l.1-.34.09-.09c.05-.04.1-.08.15-.11s.11-.05.17-.05h.08l.11-.17.27.08c.06-.06.14-.11.22-.13.08-.03.16-.04.24-.04h.07c0-.05.04-.13.12-.23h.32l.13-.08.27-.03.23.21-.02-.18h.24l.23-.05.55-.12.19.02c.23-.06.46-.09.69-.09h.21l-.06.05h.08c.08 0 .17.02.24.06l.17-.06.36.04h.22c.11 0 .2 0 .26-.02h.13v.12l.38.13.46.11.21.31.32.25c.11.15.2.3.27.44.06.15.07.35.03.6l-.09.38v.04c-.03.06-.08.18-.17.34-.15.25-.36.42-.63.51l-.15.16-.42.17-.36.07-.25.19-.66.08-.27.13h-.32l-.38.13.4.14h.45l.21-.02h.5c.17 0 .3.04.38.13.1.03.2.05.31.07s.23.03.37.03l.12.09c.01 0 .02-.01.03-.02.02 0 .03.01.05.01.02.01.06.01.12.01l.38.04.25.21h.19zm14.61-2.18-.21.15.17.34-.65.38h-.07c-.07 0-.13-.02-.21-.06l-.21.16-.28-.02-.33.23-.28-.16-.38.1-.36.19c0-.01-.03-.02-.08-.02-.08 0-.13.02-.15.08l-.15.41c.06.07.09.13.09.19 0 .09-.02.17-.07.23l-.04.13.07.02c0 .09-.01.18-.04.26-.04.08-.07.15-.11.22.04.07.07.14.09.2.02.05.04.1.06.14l-.17.11.02.57-.15.82-.02.17c.01.07.02.12.03.15.01.04.01.07.01.1v.08l.07.15.02.28c-.01.03-.02.06-.03.1-.02.04-.04.09-.06.15-.01.18-.1.31-.27.41-.16.09-.39.15-.68.16l-.04-.36-.13-.19-.1-.29v-.55l-.13-.34.04-.02-.04-.25v-.39l.04-.61-.02-.55.11-.33v-.36c0-.06.01-.14.04-.24.03-.09.04-.17.04-.23 0-.09-.03-.19-.1-.29l-.03-.05-.06.03-.23-.05c-.1.02-.2.04-.29.05-.1.02-.2.02-.3.02h-.17c-.05 0-.09 0-.11-.02l-.25.21-.51-.07c-.11-.02-.19-.03-.27-.03-.08-.01-.13-.01-.17-.01-.18 0-.39.04-.63.11h-.07l-.42.15-.27-.17-.43.08-.04-.04-.08.04-.34-.02-.04.13-.49-.17-.44.04v.61l-.04.36.08.3-.13.25.11.21-.11.68.07.21-.04.38.17.31-.09.15.04.19c-.03.23-.17.34-.44.34-.23 0-.42-.1-.57-.29-.15-.2-.23-.49-.23-.87l-.24-.28-.1-.19c0-.07.01-.13.04-.18.02-.06.05-.12.07-.17l.04-.26-.05-.15-.1-1.24v-.21l-.02-.05-.45-.33.05-.74.5-.3c.02-.09.04-.19.05-.29.02-.1.02-.21.02-.34s0-.23-.02-.3c-.01-.08-.03-.17-.05-.27l.09.06-.02-.23.12-.32-.12-.55v-.37l.14-.55.76-.34.32.23.36.11.06.35.15.2-.15.46c.02.09.04.17.04.26.01.08.01.17.01.27 0 .15 0 .3-.02.45-.01.14-.04.29-.09.43l.15.24-.17.21v.19l.15.06.42-.06.29.04.47-.06.04.06c.02-.01.07-.02.14-.02h.14c.04 0 .11.01.21.04h.29c.01 0 .09 0 .23-.01.13-.01.29-.01.47-.01l.27-.17.28.15.25.02.07.02c.13-.03.21-.04.23-.04h.1l1.18-.17.24.02.1-.06-.1-.26.1-.23-.12-.59.12-.21-.31-.76-.03-.11-.08-.08c.01-.01.02-.03.03-.05 0-.02.02-.05.05-.1 0-.01 0-.02 0-.02.01 0 .01-.01.01-.02l.02-.02v-.06c0-.07.09-.15.27-.24l.17-.44.59.08.19.11.51-.09v.22l.21-.05v.74l-.09.13.13.32v.19l.08.27-.12.28.04.21-.1.67v.11l.37-.02.68-.13.34.02.21-.02h.38c.04-.03.08-.04.13-.05.05 0 .1-.01.16-.01.03 0 .07.01.11.01.04.01.08.02.13.05zm2.77 3.63.15.59.13-.19.42-.5.59-.28c.06-.16.17-.27.31-.36.15-.08.29-.15.43-.21l1.1-1.01.52-.61.45-.32.02-.1c.03-.1.09-.15.19-.16.1 0 .19-.02.25-.05l.38-.57.06-.11.7-.42.74-.99.3-.17.1-.24.27-.14c.06-.11.17-.24.33-.38s.3-.24.44-.3l.16.17.17-.04c.28.03.41.12.4.29.03.06.05.13.05.21 0 .06-.03.14-.09.22l-.08.94-.07.15.02.45-.1.55.04.76-.17.31.26.47-.15.46.1.27.09.19-.06.49v.17c.02.04.02.07.02.1v.09l-.05.11-.14.16c.02.02.02.07.02.15 0 .06-.01.11-.03.14s-.03.06-.04.09l.11.24-.15.27.15.55c-.04.23-.14.4-.31.51-.17.12-.36.17-.56.17h-.35c-.06-.1-.12-.2-.18-.31-.05-.11-.09-.22-.1-.35 0-.05.02-.11.06-.17l-.19-.27.13-.23-.02-.32.06-.36-.17-.57.17-.04c-.03-.05-.04-.1-.03-.16 0-.06.01-.12.01-.18 0-.13.04-.23.13-.3l.06-.23-.17-.8.05-.47-.09-.69.15-.17.06-.36.06-.29-.1-.01-.47.64-.37.27-.2.24c-.11.14-.22.28-.35.4-.12.13-.26.24-.4.35l-.2.3-.31.08-.53.76-.72.58-.31.31-.22.13-.31.27-.45.23-.08.15-1.37 1-.09.02-.14.25c-.06.01-.13.04-.2.09-.07.04-.14.07-.21.08l-.1.08h-.02v.13l-1.06.27-.19-.25-.29-.21.33-.34-.19-.7.05-.06-.09-.21.38-.19-.29-.36.25-.4-.08-.34.02-.25-.09-.53.15-.19-.15-.61.13-.17-.21-.3.12-.75-.04-.07c-.1-.09-.16-.39-.17-.91l-.02-.06.05-.36-.05-.23c.02-.1.08-.21.17-.32.06-.02.09-.05.09-.12 0-.06.02-.13.06-.2s.04-.15.02-.25l.61-.08.09-.17.95.36-.11.17.21.19-.23.14.21.6-.27.21v.91l-.13.52.17.62-.28.25v.06l.17.25-.02.85-.08.06.13.3z" fill="#FFFFFF"/><path d="m108.5 58.5h190.5" fill="#b92020" fill-rule="nonzero" stroke="#bb1d18" stroke-linecap="square"/><path d="m30.51 65h-25.71c.6-.88.98-1.88 1.16-3 .11-.66.16-1.59.16-2.8v-37.84c0-1.18-.05-2.11-.16-2.77-.2-1.16-.59-2.17-1.16-3.03h9.49c-1.18 2.11-1.77 4.04-1.77 5.8v37.25h12.19c1.76 0 3.69-.6 5.8-1.78zm-.79-.79v-6.07c-1.67.84-3.34 1.26-5.01 1.26h-12.99v-38.04c0-1.67.42-3.34 1.26-5.01h-6.79c.24.46.42 1.07.54 1.83s.18 1.82.18 3.18v37.84c0 1.25-.03 2.23-.1 2.93-.06.71-.27 1.4-.62 2.08zm7.88-41.76c0-.94.33-1.76.99-2.44s1.47-1.02 2.44-1.02c.95 0 1.75.33 2.42 1s1.01 1.49 1.01 2.46c0 .94-.34 1.75-1.01 2.42s-1.47 1.01-2.42 1.01c-.97 0-1.78-.34-2.44-1.01s-.99-1.48-.99-2.42zm-4.22 41.63c2.35-.22 3.84-.62 4.45-1.21.62-.58.93-2.15.93-4.73v-15.72c0-1.43-.1-2.41-.3-2.96-.33-.9-1.02-1.35-2.08-1.35-.24 0-.47.02-.71.06-.23.05-.89.22-1.99.53v-1.02l1.42-.46c3.84-1.26 6.52-2.2 8.04-2.84.61-.26 1.01-.39 1.19-.39.04.15.06.31.06.49v23.66c0 2.51.3 4.08.91 4.72.6.63 1.97 1.04 4.1 1.22v.92h-16.02zm19.26 0c2.33-.11 3.86-.55 4.6-1.3.73-.76 1.1-2.36 1.1-4.8v-21.16h-5.64v-2.21h5.64c0-3.47.47-6.4 1.42-8.8 1.8-4.59 5.11-6.89 9.92-6.89 1.93 0 3.66.39 5.19 1.16s2.29 1.8 2.29 3.1c0 .72-.26 1.37-.79 1.94s-1.17.86-1.91.86c-.64 0-1.19-.2-1.65-.58s-1.01-1.06-1.65-2.03l-.56-.85c-.31-.47-.67-.86-1.09-1.17-.42-.32-1-.48-1.74-.48-1.67 0-2.81.82-3.4 2.47-.33.88-.49 2.03-.49 3.46v7.81h8.27v2.21h-8.21v21.16c0 2.48.34 4.07 1.01 4.76s2.42 1.14 5.25 1.34v.92h-17.56zm37.11-30c3.1 0 5.82 1.08 8.15 3.22 2.32 2.14 3.49 5.18 3.49 9.11h-20.93c.22 5.1 1.37 8.81 3.46 11.14s4.56 3.49 7.42 3.49c2.3 0 4.25-.6 5.83-1.81s3.04-2.92 4.38-5.14l1.16.4c-.9 2.79-2.59 5.37-5.06 7.74s-5.5 3.56-9.08 3.56c-4.13 0-7.32-1.56-9.58-4.68-2.25-3.12-3.37-6.71-3.37-10.78 0-4.41 1.3-8.23 3.92-11.43 2.61-3.21 6.02-4.82 10.21-4.82zm-1.91 2.41c-2.5 0-4.41 1.11-5.73 3.33-.7 1.19-1.21 2.68-1.52 4.48h13.91c-.24-2.2-.66-3.83-1.25-4.91-1.08-1.93-2.88-2.9-5.41-2.9z" fill="#b91f21"/><path d="m42.3 71.63c-.19.94-.93 1.6-2.25 1.98-.79.2-2.17.55-4.17 1.05-1.73.44-2.97 1.06-3.75 1.86 2.52.62 4.08 1.05 4.71 1.29 2.2.82 3.3 1.77 3.3 2.85 0 1.56-1.31 3.02-3.93 4.38-2.33 1.18-4.34 1.77-6.06 1.77-1.43 0-2.72-.55-3.9-1.65-1.29-1.2-1.88-2.48-1.77-3.84l.03-.45c.56.2 1.36 1.04 2.43 2.52 1 1.38 1.87 2.07 2.64 2.07 1.3 0 2.97-.44 5.04-1.32 2.38-1.02 3.57-2.08 3.57-3.18 0-.78-.7-1.38-2.1-1.8-.07 0-1.55-.38-4.47-1.14-1.63-.42-2.68-.91-3.18-1.47.6-.66 1.78-1.36 3.57-2.1 1.14-.48 2.83-1.06 5.09-1.74 2.45-.74 3.88-1.19 4.33-1.35.26.14.54.23.87.27zm13.92-3.66c0 .5-.17 1.06-.51 1.68-.15.26-.75 1.11-1.83 2.55.5.34 1 .67 1.53.99.56.46.81.98.75 1.56l-.03.33c-.03 0-.48-.14-1.38-.42-.59-.18-1.03-.27-1.35-.27-1.11 0-2.69 1.15-4.76 3.47-2.07 2.31-3.1 4.03-3.1 5.17 0 .98.87 1.69 2.64 2.13 1.12.28 2.37.42 3.78.42.54 0 1.08-.04 1.65-.12-.03.1.06.28.27.54-1.27.48-2.51.72-3.75.72-4.51 0-6.75-1.1-6.75-3.3 0-1.3 1.12-3.21 3.39-5.73l2.58-2.88-1.05-.06c-.45-.02-1.03.1-1.77.36-1.47.52-2.32.78-2.58.78-.35 0-.66-.1-.95-.31-.29-.22-.43-.48-.43-.8 0-.78.88-1.17 2.67-1.17.18 0 .43.01.78.03.34.02.59.03.78.03 1.52 0 2.77-.26 3.76-.78s1.86-1.42 2.63-2.7c.26-.44.86-1.68 1.83-3.72.26 0 .52.18.79.54s.41.68.41.96zm15.78 6.15c0 .76-.6 1.86-1.81 3.3-.64.74-1.75 2.08-3.36 4.02-1.2 1.48-1.79 2.7-1.79 3.66 0 .26.03.48.12.66-1.53.42-2.95 1.64-4.29 3.66l-4.5 6.84c-.29-.06-.81-.34-1.59-.84.32-.66 1.03-1.7 2.16-3.12.58-.68 1.42-1.71 2.55-3.09.94-1.18 1.41-1.96 1.41-2.34 0-.58-.46-.87-1.38-.87h-.6c-.93-.1-1.59-.88-2.01-2.34-.29-.98-.42-2.1-.42-3.36 0-1.4.14-3.04.45-4.92 1.22 0 1.83.98 1.83 2.94 0 .36-.04.89-.11 1.59s-.1 1.23-.1 1.59c0 2.44 1.05 3.66 3.18 3.66.66 0 1.61-.9 2.87-2.7.37-.52 1.5-2.33 3.43-5.43 1.36-2.2 2.37-3.61 3.06-4.23.14.1.32.31.55.63s.35.55.35.69zm11.01-7.5c0 .12-.67 1.41-2.01 3.87l-3.9 7.17c-1.63 3-2.51 4.74-2.67 5.22l-.6 1.92c-.35.8-.78 1.2-1.32 1.2-.31 0-.64-.07-1.02-.21l-.33-.54c.22-1.04.96-2.61 2.25-4.71l3.81-6.27c1.48-2.42 2.44-4.45 2.91-6.09.08-.34.24-.94.51-1.8.24-.6.62-1.05 1.17-1.35.3.04.57.23.82.58.25.36.38.69.38 1.01zm12.33 17.4c-.61.66-2.02 1.16-4.26 1.5-1.59.24-3.19.36-4.83.36-3.39 0-5.07-.97-5.07-2.91 0-2.38 1.75-4.42 5.28-6.12 1.22-.6 2.48-1.09 3.81-1.47 1.28.3 2.12.52 2.55.66.9.3 1.35 1.05 1.35 2.25 0 1.06-.68 1.9-2.04 2.52-1.15.52-2.3.78-3.48.78-1.85 0-3.16-.28-3.96-.84-1.01.48-1.5 1.1-1.5 1.86 0 1.34 1.21 2.01 3.66 2.01.9 0 1.94-.06 3.15-.18 2.82-.28 4.59-.42 5.34-.42zm-3.09-5.76c-.61-.64-1.33-.96-2.19-.96-.63 0-1.18.13-1.68.39-.03.02-.53.3-1.53.84.6.96 1.41 1.44 2.46 1.44 1.18 0 2.15-.57 2.94-1.71zm-38.56 19.16c0 .44-.21 1.08-.63 1.92s-.8 1.42-1.16 1.75c.02.16.03.26.04.3.03.09.07.19.13.29-.1.38-.35.57-.76.57-.21 0-.4-.07-.58-.19-.17-.13-.25-.29-.25-.5 0-.36.32-.99.97-1.88.64-.88.97-1.5.97-1.84 0-.65-.33-.97-.99-.97-.88 0-1.72.41-2.55 1.22-.42.44-1.18 1.22-2.3 2.35-.88.9-1.74 1.42-2.56 1.56v-.17l-.17-.19c0-.67.62-1.75 1.86-3.23.71-.85 1.16-1.46 1.37-1.84.11-.33.24-.66.38-.99.11-.26.22-.43.33-.53.11-.11.28-.16.52-.16.36 0 .53.19.53.56 0 .25-.03.45-.09.6-.01.05-.15.4-.42 1.03 1.09-.58 1.71-.91 1.86-.97.86-.42 1.5-.63 1.9-.63.48 0 .87.2 1.16.6s.44.85.44 1.34zm11.55 1.03c0 1.19-.86 2.12-2.58 2.79-1.31.51-2.68.76-4.13.76-3.02 0-4.54-.75-4.54-2.24 0-1.07.99-2.1 2.97-3.1 1.76-.89 3.24-1.33 4.44-1.33 1.07 0 1.95.25 2.64.74.8.56 1.2 1.35 1.2 2.38zm-1.04-.12c0-.62-.32-1.09-.95-1.4-.51-.26-1.11-.38-1.79-.38-1.14 0-2.32.31-3.55.95-1.3.64-2.22 1.43-2.78 2.37.86.88 1.9 1.31 3.1 1.31 1.15 0 2.34-.21 3.55-.62 1.61-.56 2.42-1.3 2.42-2.23zm9.93-7.75c0 .32-.1.67-.32 1.07-.09.16-.47.7-1.16 1.61.32.22.64.42.97.63.35.29.51.62.48.99l-.02.2c-.02 0-.31-.08-.88-.26-.37-.12-.65-.17-.85-.17-.7 0-1.7.73-3.01 2.19-1.32 1.46-1.97 2.56-1.97 3.28 0 .62.56 1.07 1.67 1.35.71.18 1.51.26 2.4.26.34 0 .69-.02 1.04-.07-.01.06.04.18.17.34-.8.3-1.59.46-2.37.46-2.85 0-4.28-.7-4.28-2.09 0-.83.72-2.04 2.15-3.63l1.63-1.83-.66-.03c-.28-.02-.66.06-1.12.22-.93.33-1.47.5-1.64.5-.21 0-.41-.07-.6-.2-.18-.14-.27-.3-.27-.51 0-.49.56-.74 1.69-.74.11 0 .28.01.49.02.22.01.38.02.5.02.96 0 1.75-.16 2.38-.49s1.18-.9 1.66-1.71c.17-.28.55-1.07 1.16-2.36.17 0 .34.11.51.34s.25.43.25.61zm9.24 10.17c-.38.41-1.28.73-2.7.95-1 .15-2.02.22-3.06.22-2.14 0-3.21-.61-3.21-1.84 0-1.51 1.11-2.8 3.34-3.87.78-.39 1.58-.7 2.42-.94.81.19 1.34.33 1.61.42.57.19.86.67.86 1.43 0 .67-.43 1.2-1.3 1.59-.72.33-1.45.5-2.2.5-1.17 0-2-.18-2.51-.53-.63.3-.95.69-.95 1.17 0 .85.77 1.28 2.32 1.28.57 0 1.23-.04 2-.12 1.78-.18 2.91-.26 3.38-.26zm-1.96-3.65c-.38-.41-.84-.61-1.39-.61-.39 0-.74.08-1.06.25-.01.01-.34.19-.97.53.38.61.9.91 1.56.91.75 0 1.37-.36 1.86-1.08zm13.76-4.2c-.12.59-.59 1.01-1.43 1.25-.49.13-1.37.35-2.64.67-1.09.28-1.88.67-2.37 1.18 1.59.39 2.59.66 2.98.81 1.39.52 2.09 1.12 2.09 1.81 0 .99-.83 1.91-2.49 2.77-1.47.75-2.75 1.12-3.84 1.12-.9 0-1.72-.35-2.47-1.04-.81-.76-1.18-1.57-1.12-2.43l.02-.29c.35.13.87.66 1.54 1.6.63.87 1.19 1.31 1.67 1.31.82 0 1.89-.28 3.19-.84 1.51-.64 2.26-1.32 2.26-2.01 0-.5-.44-.88-1.33-1.14-.04 0-.98-.24-2.83-.72-1.02-.27-1.7-.58-2.01-.93.38-.42 1.13-.87 2.26-1.33.72-.31 1.8-.68 3.23-1.11 1.54-.47 2.46-.75 2.74-.85.16.09.34.14.55.17z" fill="#FFFFFF"/></g></svg>